<?xml version="1.0" encoding="utf-8"?>
<!-- Generator: Adobe Illustrator 21.0.0, SVG Export Plug-In . SVG Version: 6.00 Build 0)  -->
<svg version="1.1" id="Layer_1" xmlns="http://www.w3.org/2000/svg" xmlns:xlink="http://www.w3.org/1999/xlink" x="0px" y="0px"
	 viewBox="0 0 94 94" style="enable-background:new 0 0 94 94;" xml:space="preserve">
<style type="text/css">
	.st0{fill:#F2F2F2;}
	.st1{fill:#FF6B06;}
	.st2{fill:#C1C1C1;}
	.st3{fill:#72A037;}
	.st4{fill:#DFF1FF;}
	.st5{fill:#C4E2E4;}
	.st6{fill:#8AC5CA;}
	.st7{fill:#6DB195;}
	.st8{fill:#F5F0F0;}
	.st9{fill:#B4B9C8;}
	.st10{fill:#F09B8C;}
	.st11{fill:#FAF0DC;}
	.st12{fill:#AA9191;}
	.st13{fill:#AAC3DC;}
	.st14{fill:#F0CDB4;}
	.st15{fill:#82A5CD;}
	.st16{fill:#FFFFFF;}
	.st17{fill:#968282;}
	.st18{fill:#EBE1C3;}
	.st19{fill:#73BE6E;}
	.st20{fill:#6EAA64;}
	.st21{fill:#558C73;}
	.st22{fill:#5A8E4F;}
	.st23{fill:#E24905;}
	.st24{fill:#FFA403;}
	.st25{fill:#54ACD3;}
	.st26{fill:#CECECE;}
	.st27{fill:#332C24;}
	.st28{fill:#E03815;}
	.st29{fill:#ECECE8;}
</style>
<path class="st24" d="M17.5,63.6c0,3.2,1.4,6.2,3.7,8.2v6.6c0,2,1.7,3.7,3.7,3.7h3.7c2,0,3.7-1.7,3.7-3.7v-3.7h29.5v3.7
	c0,2,1.7,3.7,3.7,3.7h3.7c2,0,3.7-1.7,3.7-3.7v-6.6c2.3-2,3.7-4.9,3.7-8.2V26.7c0-12.9-13.2-14.8-29.5-14.8s-29.5,1.8-29.5,14.8
	V63.6z M30.4,67.3c-3.1,0-5.5-2.5-5.5-5.5s2.5-5.5,5.5-5.5s5.5,2.5,5.5,5.5S33.5,67.3,30.4,67.3z M63.6,67.3c-3.1,0-5.5-2.5-5.5-5.5
	s2.5-5.5,5.5-5.5s5.5,2.5,5.5,5.5S66.7,67.3,63.6,67.3z M69.2,45.2H24.8V26.7h44.3V45.2z"/>
</svg>
