<svg id="Layer_1" data-name="Layer 1" xmlns="http://www.w3.org/2000/svg" viewBox="0 0 1083.97 125.33"><title>wheresmybus_app</title><g style="opacity:0.15"><path d="M33,20.24a1.23,1.23,0,0,0,.6-1.06V6.39A1.23,1.23,0,0,0,32.4,5.15H30.13a1.23,1.23,0,0,0-1.23,1.24V10.1a1.23,1.23,0,0,1-1.23,1.24H24a1.23,1.23,0,0,1-1.24-1.23V6.4a1.23,1.23,0,0,0-1.24-1.23H19.2A1.23,1.23,0,0,0,18,6.4V19.19a1.23,1.23,0,0,0,.6,1.06l6.6,3.94a1.23,1.23,0,0,0,1.27,0Z" style="fill:#a3a3a3"/><path d="M7.24,20.26a1.23,1.23,0,0,0,.6-1.06V6.41A1.23,1.23,0,0,0,6.59,5.18H4.32A1.23,1.23,0,0,0,3.09,6.41v3.71a1.23,1.23,0,0,1-1.23,1.24H0v13a1.23,1.23,0,0,0,.63-.18Z" style="fill:#a3a3a3"/><path d="M58.85,20.22a1.23,1.23,0,0,0,.6-1.06V6.36a1.23,1.23,0,0,0-1.24-1.23H55.93A1.23,1.23,0,0,0,54.7,6.37v3.71a1.23,1.23,0,0,1-1.23,1.24H49.76a1.23,1.23,0,0,1-1.24-1.23V6.37a1.23,1.23,0,0,0-1.24-1.23H45a1.23,1.23,0,0,0-1.23,1.24V19.17a1.23,1.23,0,0,0,.6,1.06L51,24.17a1.23,1.23,0,0,0,1.27,0Z" style="fill:#a3a3a3"/><path d="M84.66,20.19a1.23,1.23,0,0,0,.6-1.06V6.34A1.23,1.23,0,0,0,84,5.11H81.74a1.23,1.23,0,0,0-1.23,1.24v3.71a1.23,1.23,0,0,1-1.23,1.24H75.56a1.23,1.23,0,0,1-1.24-1.23V6.35a1.23,1.23,0,0,0-1.24-1.23H70.82a1.23,1.23,0,0,0-1.23,1.24V19.15a1.23,1.23,0,0,0,.6,1.06l6.6,3.94a1.23,1.23,0,0,0,1.27,0Z" style="fill:#a3a3a3"/><path d="M110.47,20.17a1.23,1.23,0,0,0,.6-1.06V6.32a1.23,1.23,0,0,0-1.24-1.23h-2.27a1.23,1.23,0,0,0-1.23,1.24V10a1.23,1.23,0,0,1-1.23,1.24h-3.71A1.23,1.23,0,0,1,100.14,10V6.33A1.23,1.23,0,0,0,98.9,5.09H96.62a1.23,1.23,0,0,0-1.23,1.24V19.13a1.23,1.23,0,0,0,.6,1.06l6.6,3.94a1.23,1.23,0,0,0,1.27,0Z" style="fill:#a3a3a3"/><path d="M136.27,20.15a1.23,1.23,0,0,0,.6-1.06V6.3a1.23,1.23,0,0,0-1.24-1.23h-2.27a1.23,1.23,0,0,0-1.23,1.24V10a1.23,1.23,0,0,1-1.23,1.24h-3.71A1.23,1.23,0,0,1,125.94,10V6.31a1.23,1.23,0,0,0-1.24-1.23h-2.27a1.23,1.23,0,0,0-1.23,1.24V19.11a1.23,1.23,0,0,0,.6,1.06l6.6,3.94a1.23,1.23,0,0,0,1.27,0Z" style="fill:#a3a3a3"/><path d="M162.08,20.13a1.23,1.23,0,0,0,.6-1.06V6.27A1.23,1.23,0,0,0,161.43,5h-2.27a1.23,1.23,0,0,0-1.23,1.24V10a1.23,1.23,0,0,1-1.23,1.24H153A1.23,1.23,0,0,1,151.75,10V6.28a1.23,1.23,0,0,0-1.24-1.23h-2.27A1.23,1.23,0,0,0,147,6.29V19.08a1.23,1.23,0,0,0,.6,1.06l6.6,3.94a1.23,1.23,0,0,0,1.27,0Z" style="fill:#a3a3a3"/><path d="M176.11,117.62V104.83a1.23,1.23,0,0,0-.6-1.06l-6.6-3.94a1.23,1.23,0,0,0-1.27,0l-6.59,4a1.23,1.23,0,0,0-.6,1.06v12.79a1.23,1.23,0,0,0,1.24,1.23H164a1.23,1.23,0,0,0,1.23-1.24v-3.71a1.23,1.23,0,0,1,1.23-1.24h3.71a1.23,1.23,0,0,1,1.24,1.23v3.71a1.23,1.23,0,0,0,1.24,1.23h2.27A1.23,1.23,0,0,0,176.11,117.62Z" style="fill:#a3a3a3"/><path d="M150.3,117.64V104.85a1.23,1.23,0,0,0-.6-1.06l-6.6-3.94a1.23,1.23,0,0,0-1.27,0l-6.59,4a1.23,1.23,0,0,0-.6,1.06v12.79a1.23,1.23,0,0,0,1.24,1.23h2.27a1.23,1.23,0,0,0,1.23-1.24v-3.71a1.23,1.23,0,0,1,1.23-1.24h3.71a1.23,1.23,0,0,1,1.24,1.23v3.71a1.23,1.23,0,0,0,1.24,1.23h2.27A1.23,1.23,0,0,0,150.3,117.64Z" style="fill:#a3a3a3"/><path d="M124.5,117.67V104.87a1.23,1.23,0,0,0-.6-1.06l-6.6-3.94a1.23,1.23,0,0,0-1.27,0l-6.59,4a1.23,1.23,0,0,0-.6,1.06v12.79a1.23,1.23,0,0,0,1.24,1.23h2.27a1.23,1.23,0,0,0,1.23-1.24V114a1.23,1.23,0,0,1,1.23-1.24h3.71a1.23,1.23,0,0,1,1.24,1.23v3.71a1.23,1.23,0,0,0,1.24,1.23h2.27A1.23,1.23,0,0,0,124.5,117.67Z" style="fill:#a3a3a3"/><path d="M98.69,117.69V104.9a1.23,1.23,0,0,0-.6-1.06l-6.6-3.94a1.23,1.23,0,0,0-1.27,0l-6.59,4a1.23,1.23,0,0,0-.6,1.06V117.7a1.23,1.23,0,0,0,1.24,1.23h2.27a1.23,1.23,0,0,0,1.23-1.24V114A1.23,1.23,0,0,1,89,112.75h3.71A1.23,1.23,0,0,1,93.94,114v3.71a1.23,1.23,0,0,0,1.24,1.23h2.27A1.23,1.23,0,0,0,98.69,117.69Z" style="fill:#a3a3a3"/><path d="M72.88,117.71V104.92a1.23,1.23,0,0,0-.6-1.06l-6.6-3.94a1.23,1.23,0,0,0-1.27,0l-6.59,4a1.23,1.23,0,0,0-.6,1.06v12.79A1.23,1.23,0,0,0,58.45,119h2.27A1.23,1.23,0,0,0,62,117.72V114a1.23,1.23,0,0,1,1.23-1.24H66.9A1.23,1.23,0,0,1,68.14,114v3.71a1.23,1.23,0,0,0,1.24,1.23h2.27A1.23,1.23,0,0,0,72.88,117.71Z" style="fill:#a3a3a3"/><path d="M47.07,117.73V104.94a1.23,1.23,0,0,0-.6-1.06l-6.6-3.94a1.23,1.23,0,0,0-1.27,0l-6.59,4a1.23,1.23,0,0,0-.6,1.06v12.79A1.23,1.23,0,0,0,32.64,119h2.27a1.23,1.23,0,0,0,1.23-1.24V114a1.23,1.23,0,0,1,1.23-1.24h3.71A1.23,1.23,0,0,1,42.33,114v3.71A1.23,1.23,0,0,0,43.57,119h2.27A1.23,1.23,0,0,0,47.07,117.73Z" style="fill:#a3a3a3"/><path d="M21.27,117.76V105a1.23,1.23,0,0,0-.6-1.06L14.05,100a1.23,1.23,0,0,0-1.27,0l-6.59,4a1.23,1.23,0,0,0-.6,1.06v12.79A1.23,1.23,0,0,0,6.84,119H9.11a1.23,1.23,0,0,0,1.23-1.24v-3.71a1.23,1.23,0,0,1,1.23-1.24h3.71A1.23,1.23,0,0,1,16.52,114v3.71A1.23,1.23,0,0,0,17.76,119H20A1.23,1.23,0,0,0,21.27,117.76Z" style="fill:#a3a3a3"/><path d="M198.62,6.24V19a1.23,1.23,0,0,0,.6,1.06l6.6,3.94a1.23,1.23,0,0,0,1.27,0l6.59-4a1.23,1.23,0,0,0,.6-1.06V6.23A1.23,1.23,0,0,0,213,5h-2.27a1.23,1.23,0,0,0-1.23,1.24V9.94a1.23,1.23,0,0,1-1.23,1.24H204.6a1.23,1.23,0,0,1-1.24-1.23V6.24A1.23,1.23,0,0,0,202.13,5h-2.27A1.23,1.23,0,0,0,198.62,6.24Z" style="fill:#a3a3a3"/><path d="M183.74,6.25V10a1.23,1.23,0,0,1-1.23,1.24h-3.71A1.23,1.23,0,0,1,177.56,10V6.26A1.23,1.23,0,0,0,176.32,5H174a1.23,1.23,0,0,0-1.23,1.24V19.06a1.23,1.23,0,0,0,.6,1.06l6.6,3.94a1.23,1.23,0,0,0,.63.17h0a1.23,1.23,0,0,0,.63-.18l6.59-4a1.23,1.23,0,0,0,.6-1.06V6.25A1.23,1.23,0,0,0,187.24,5H185A1.23,1.23,0,0,0,183.74,6.25Z" style="fill:#a3a3a3"/><path d="M224.43,6.22V19a1.23,1.23,0,0,0,.6,1.06l6.6,3.94a1.23,1.23,0,0,0,1.27,0l6.59-4a1.23,1.23,0,0,0,.6-1.06V6.2A1.23,1.23,0,0,0,238.86,5h-2.27a1.23,1.23,0,0,0-1.23,1.24V9.92a1.23,1.23,0,0,1-1.23,1.24h-3.71a1.23,1.23,0,0,1-1.24-1.23V6.21A1.23,1.23,0,0,0,227.93,5h-2.27A1.23,1.23,0,0,0,224.43,6.22Z" style="fill:#a3a3a3"/><path d="M250.23,6.19V19a1.23,1.23,0,0,0,.6,1.06l6.6,3.94a1.23,1.23,0,0,0,1.27,0l6.59-4a1.23,1.23,0,0,0,.6-1.06V6.18a1.23,1.23,0,0,0-1.24-1.23h-2.27a1.23,1.23,0,0,0-1.23,1.24V9.9a1.23,1.23,0,0,1-1.23,1.24h-3.71A1.23,1.23,0,0,1,255,9.9V6.19A1.23,1.23,0,0,0,253.74,5h-2.27A1.23,1.23,0,0,0,250.23,6.19Z" style="fill:#a3a3a3"/><path d="M276,6.17V19a1.23,1.23,0,0,0,.6,1.06l6.6,3.94a1.23,1.23,0,0,0,1.27,0l6.59-4a1.23,1.23,0,0,0,.6-1.06V6.16a1.23,1.23,0,0,0-1.24-1.23H288.2A1.23,1.23,0,0,0,287,6.16V9.87a1.23,1.23,0,0,1-1.23,1.24H282a1.23,1.23,0,0,1-1.24-1.23V6.17a1.23,1.23,0,0,0-1.24-1.23h-2.27A1.23,1.23,0,0,0,276,6.17Z" style="fill:#a3a3a3"/><path d="M316.92,20a1.23,1.23,0,0,0,.6-1.06V6.14a1.23,1.23,0,0,0-1.24-1.23H314a1.23,1.23,0,0,0-1.23,1.24V9.85a1.23,1.23,0,0,1-1.23,1.24h-3.71a1.23,1.23,0,0,1-1.24-1.23V6.15a1.23,1.23,0,0,0-1.24-1.23h-2.27a1.23,1.23,0,0,0-1.23,1.24V18.94a1.23,1.23,0,0,0,.6,1.06l6.6,3.94a1.23,1.23,0,0,0,1.27,0Z" style="fill:#a3a3a3"/><path d="M342.73,20a1.23,1.23,0,0,0,.6-1.06V6.11a1.23,1.23,0,0,0-1.24-1.23h-2.27a1.23,1.23,0,0,0-1.23,1.24V9.83a1.23,1.23,0,0,1-1.23,1.24h-3.71a1.23,1.23,0,0,1-1.24-1.23V6.12a1.23,1.23,0,0,0-1.24-1.23h-2.27a1.23,1.23,0,0,0-1.23,1.24V18.92a1.23,1.23,0,0,0,.6,1.06l6.6,3.94a1.23,1.23,0,0,0,1.27,0Z" style="fill:#a3a3a3"/><path d="M353.46,6.1V18.9a1.23,1.23,0,0,0,.6,1.06l6.6,3.94a1.23,1.23,0,0,0,.63.17V11h-1.86a1.23,1.23,0,0,1-1.24-1.23V6.1A1.23,1.23,0,0,0,357,4.87H354.7A1.23,1.23,0,0,0,353.46,6.1Z" style="fill:#a3a3a3"/><polygon points="180.68 49.23 192.68 42.89 206.51 49.02 218.73 42.87 231.99 48.99 244.78 42.84 257.48 48.97 270.33 43.05 282.46 48.95 282.74 48.84 282.96 48.95 291.91 44.99 297.15 42.8 310.42 48.93 323.2 42.78 335.9 48.91 349.25 42.75 361.33 48.86 361.32 31.55 349.56 25.61 336.05 31.84 323.21 25.64 310.28 31.86 296.86 25.66 283.06 31.7 271.13 25.68 270.81 25.83 270.51 25.68 257.46 31.82 244.79 25.7 231.86 31.93 218.44 25.73 206.09 31.95 192.09 25.75 180.67 31.78 180.67 31.71 168.91 25.77 155.4 32 142.56 25.8 129.63 32.02 116.21 25.82 102.41 31.87 90.48 25.84 90.16 25.99 89.86 25.84 76.81 31.98 64.14 25.87 51.21 32.09 37.79 25.89 25.44 32.11 11.44 25.91 0.02 31.94 0.03 49.39 12.03 43.06 25.86 49.18 38.08 43.03 51.34 49.16 64.13 43 76.83 49.13 89.68 43.21 101.81 49.12 102.09 49 102.31 49.11 111.26 45.16 116.5 42.96 129.77 49.09 142.55 42.94 155.25 49.07 168.6 42.91 180.68 49.02 180.68 49.23" style="fill:#a3a3a3"/><path d="M352,113.75v3.71a1.23,1.23,0,0,0,1.24,1.23h2.27a1.23,1.23,0,0,0,1.23-1.24V104.67a1.23,1.23,0,0,0-.6-1.06l-6.6-3.94a1.23,1.23,0,0,0-1.27,0l-6.59,4a1.23,1.23,0,0,0-.6,1.06v12.79a1.23,1.23,0,0,0,1.24,1.23h2.27a1.23,1.23,0,0,0,1.23-1.24v-3.71a1.23,1.23,0,0,1,1.23-1.24h3.71A1.23,1.23,0,0,1,352,113.75Z" style="fill:#a3a3a3"/><path d="M331,117.48V104.69a1.23,1.23,0,0,0-.6-1.06l-6.6-3.94a1.23,1.23,0,0,0-1.27,0l-6.59,4a1.23,1.23,0,0,0-.6,1.06V117.5a1.23,1.23,0,0,0,1.24,1.23h2.27a1.23,1.23,0,0,0,1.23-1.24v-3.71a1.23,1.23,0,0,1,1.23-1.24H325a1.23,1.23,0,0,1,1.24,1.23v3.71a1.23,1.23,0,0,0,1.24,1.23h2.27A1.23,1.23,0,0,0,331,117.48Z" style="fill:#a3a3a3"/><path d="M305.14,117.51V104.71a1.23,1.23,0,0,0-.6-1.06l-6.6-3.94a1.23,1.23,0,0,0-1.27,0l-6.59,4a1.23,1.23,0,0,0-.6,1.06v12.79a1.23,1.23,0,0,0,1.24,1.23H293a1.23,1.23,0,0,0,1.23-1.24V113.8a1.23,1.23,0,0,1,1.23-1.24h3.71a1.23,1.23,0,0,1,1.24,1.23v3.71a1.23,1.23,0,0,0,1.24,1.23h2.27A1.23,1.23,0,0,0,305.14,117.51Z" style="fill:#a3a3a3"/><path d="M279.34,117.53V104.74a1.23,1.23,0,0,0-.6-1.06l-6.6-3.94a1.23,1.23,0,0,0-1.27,0l-6.59,4a1.23,1.23,0,0,0-.6,1.06v12.79a1.23,1.23,0,0,0,1.24,1.23h2.27a1.23,1.23,0,0,0,1.23-1.24v-3.71a1.23,1.23,0,0,1,1.23-1.24h3.71a1.23,1.23,0,0,1,1.24,1.23v3.71a1.23,1.23,0,0,0,1.24,1.23h2.27A1.23,1.23,0,0,0,279.34,117.53Z" style="fill:#a3a3a3"/><path d="M248.79,113.84v3.71a1.23,1.23,0,0,0,1.24,1.23h2.27a1.23,1.23,0,0,0,1.23-1.24V104.76a1.23,1.23,0,0,0-.6-1.06l-6.6-3.94a1.23,1.23,0,0,0-1.27,0l-6.59,4a1.23,1.23,0,0,0-.6,1.06v12.79a1.23,1.23,0,0,0,1.24,1.23h2.27a1.23,1.23,0,0,0,1.23-1.24v-3.71a1.23,1.23,0,0,1,1.23-1.24h3.71A1.23,1.23,0,0,1,248.79,113.84Z" style="fill:#a3a3a3"/><path d="M212.65,103.73a1.23,1.23,0,0,0-.6,1.06v12.79a1.23,1.23,0,0,0,1.24,1.23h2.27a1.23,1.23,0,0,0,1.23-1.24v-3.71a1.23,1.23,0,0,1,1.23-1.24h3.71a1.23,1.23,0,0,1,1.24,1.23v3.71a1.23,1.23,0,0,0,1.24,1.23h2.27a1.23,1.23,0,0,0,1.23-1.24V104.78a1.23,1.23,0,0,0-.6-1.06l-6.6-3.94a1.23,1.23,0,0,0-1.27,0Z" style="fill:#a3a3a3"/><path d="M186.84,103.76a1.23,1.23,0,0,0-.6,1.06v12.79a1.23,1.23,0,0,0,1.24,1.23h2.27a1.23,1.23,0,0,0,1.23-1.24v-3.71a1.23,1.23,0,0,1,1.23-1.24h3.71a1.23,1.23,0,0,1,1.24,1.23v3.71a1.23,1.23,0,0,0,1.24,1.23h2.27a1.23,1.23,0,0,0,1.23-1.24V104.8a1.23,1.23,0,0,0-.6-1.06l-6.6-3.94a1.23,1.23,0,0,0-1.27,0Z" style="fill:#a3a3a3"/><polygon points="297.92 91.88 310.59 98 323.52 91.77 336.94 97.97 349.29 91.75 361.38 97.11 361.36 80.21 348.87 74.68 336.65 80.83 323.38 74.7 310.6 80.86 297.9 74.73 285.05 80.65 272.92 74.74 272.64 74.86 272.41 74.75 263.46 78.7 258.23 80.9 244.96 74.77 232.18 80.92 219.48 74.79 206.13 80.95 193.99 74.81 180.71 80.69 180.71 80.38 168.22 74.84 156 80.99 142.74 74.87 129.95 81.02 117.25 74.89 104.4 80.81 92.27 74.91 91.99 75.02 91.76 74.91 82.82 78.87 77.58 81.06 64.31 74.93 51.53 81.09 38.83 74.96 25.48 81.11 13.34 74.98 0.06 80.85 0.08 97.72 12.9 92.05 25.17 98.25 38.68 92.03 51.52 98.22 64.45 92 77.87 98.2 91.67 92.16 103.6 98.18 103.92 98.03 104.22 98.18 117.27 92.04 129.94 98.16 142.87 91.94 156.29 98.13 168.64 91.91 180.73 97.27 180.73 97.56 193.55 91.89 205.82 98.09 219.32 91.86 232.17 98.06 245.1 91.84 258.52 98.04 272.32 92 284.25 98.02 284.57 97.87 284.86 98.02 297.92 91.88" style="fill:#a3a3a3"/><polygon points="180.71 73.73 192.7 67.39 206.53 73.52 218.75 67.37 232.02 73.5 244.8 67.34 257.5 73.47 270.35 67.55 282.48 73.46 282.76 73.34 282.99 73.45 291.94 69.5 297.17 67.3 310.44 73.43 323.22 67.28 335.93 73.41 349.27 67.25 361.35 73.36 361.34 56.05 349.58 50.11 336.08 56.34 323.23 50.14 310.3 56.36 296.88 50.16 283.08 56.2 271.15 50.18 270.83 50.33 270.54 50.18 257.48 56.32 244.81 50.2 231.88 56.43 218.46 50.23 206.11 56.45 192.11 50.25 180.69 56.28 180.69 56.22 168.93 50.27 155.43 56.5 142.58 50.3 129.65 56.52 116.23 50.32 102.43 56.37 90.5 50.34 90.18 50.49 89.89 50.34 76.83 56.48 64.16 50.37 51.23 56.59 37.81 50.39 25.46 56.61 11.46 50.41 0.04 56.44 0.06 73.89 12.05 67.56 25.88 73.68 38.1 67.53 51.37 73.66 64.15 67.5 76.85 73.63 89.7 67.71 101.83 73.62 102.11 73.5 102.34 73.61 111.29 69.66 116.52 67.46 129.79 73.59 142.57 67.44 155.28 73.57 168.62 67.42 180.71 73.52 180.71 73.73" style="fill:#a3a3a3"/><path d="M394.35,19.85a1.23,1.23,0,0,0,.6-1.06V6a1.23,1.23,0,0,0-1.24-1.23h-2.27A1.23,1.23,0,0,0,390.19,6V9.72A1.23,1.23,0,0,1,389,11h-3.71A1.23,1.23,0,0,1,384,9.72V6a1.23,1.23,0,0,0-1.24-1.23H380.5A1.23,1.23,0,0,0,379.27,6V18.81a1.23,1.23,0,0,0,.6,1.06l6.6,3.94a1.23,1.23,0,0,0,1.27,0Z" style="fill:#a3a3a3"/><path d="M368.54,19.88a1.23,1.23,0,0,0,.6-1.06V6a1.23,1.23,0,0,0-1.24-1.23h-2.27A1.23,1.23,0,0,0,364.39,6V9.74A1.23,1.23,0,0,1,363.16,11H361.3V24a1.23,1.23,0,0,0,.63-.18Z" style="fill:#a3a3a3"/><path d="M420.15,19.83a1.23,1.23,0,0,0,.6-1.06V6a1.23,1.23,0,0,0-1.24-1.23h-2.27A1.23,1.23,0,0,0,416,6V9.69a1.23,1.23,0,0,1-1.23,1.24h-3.71a1.23,1.23,0,0,1-1.24-1.23V6a1.23,1.23,0,0,0-1.24-1.23h-2.27A1.23,1.23,0,0,0,405.08,6V18.79a1.23,1.23,0,0,0,.6,1.06l6.6,3.94a1.23,1.23,0,0,0,1.27,0Z" style="fill:#a3a3a3"/><path d="M446,19.81a1.23,1.23,0,0,0,.6-1.06V6a1.23,1.23,0,0,0-1.24-1.23H443A1.23,1.23,0,0,0,441.81,6V9.67a1.23,1.23,0,0,1-1.23,1.24h-3.71a1.23,1.23,0,0,1-1.24-1.23V6a1.23,1.23,0,0,0-1.24-1.23h-2.27A1.23,1.23,0,0,0,430.88,6V18.76a1.23,1.23,0,0,0,.6,1.06l6.6,3.94a1.23,1.23,0,0,0,1.27,0Z" style="fill:#a3a3a3"/><path d="M471.77,19.78a1.23,1.23,0,0,0,.6-1.06V5.93a1.23,1.23,0,0,0-1.24-1.23h-2.27a1.23,1.23,0,0,0-1.23,1.24V9.65a1.23,1.23,0,0,1-1.23,1.24h-3.71a1.23,1.23,0,0,1-1.24-1.23V5.94a1.23,1.23,0,0,0-1.24-1.23h-2.27a1.23,1.23,0,0,0-1.23,1.24V18.74a1.23,1.23,0,0,0,.6,1.06l6.6,3.94a1.23,1.23,0,0,0,1.27,0Z" style="fill:#a3a3a3"/><path d="M497.57,19.76a1.23,1.23,0,0,0,.6-1.06V5.91a1.23,1.23,0,0,0-1.24-1.23h-2.27a1.23,1.23,0,0,0-1.23,1.24V9.63a1.23,1.23,0,0,1-1.23,1.24h-3.71a1.23,1.23,0,0,1-1.24-1.23V5.92A1.23,1.23,0,0,0,486,4.69h-2.27a1.23,1.23,0,0,0-1.23,1.24V18.72a1.23,1.23,0,0,0,.6,1.06l6.6,3.94a1.23,1.23,0,0,0,1.27,0Z" style="fill:#a3a3a3"/><path d="M523.38,19.74a1.23,1.23,0,0,0,.6-1.06V5.89a1.23,1.23,0,0,0-1.24-1.23h-2.27a1.23,1.23,0,0,0-1.23,1.24V9.61A1.23,1.23,0,0,1,518,10.84h-3.71A1.23,1.23,0,0,1,513,9.61V5.9a1.23,1.23,0,0,0-1.24-1.23h-2.27A1.23,1.23,0,0,0,508.3,5.9V18.7a1.23,1.23,0,0,0,.6,1.06l6.6,3.94a1.23,1.23,0,0,0,1.27,0Z" style="fill:#a3a3a3"/><path d="M537.41,117.24V104.44a1.23,1.23,0,0,0-.6-1.06l-6.6-3.94a1.23,1.23,0,0,0-1.27,0l-6.59,4a1.23,1.23,0,0,0-.6,1.06v12.79a1.23,1.23,0,0,0,1.24,1.23h2.27a1.23,1.23,0,0,0,1.23-1.24v-3.71a1.23,1.23,0,0,1,1.23-1.24h3.71a1.23,1.23,0,0,1,1.24,1.23v3.71a1.23,1.23,0,0,0,1.24,1.23h2.27A1.23,1.23,0,0,0,537.41,117.24Z" style="fill:#a3a3a3"/><path d="M511.6,117.26V104.47a1.23,1.23,0,0,0-.6-1.06l-6.6-3.94a1.23,1.23,0,0,0-1.27,0l-6.59,4a1.23,1.23,0,0,0-.6,1.06v12.79a1.23,1.23,0,0,0,1.24,1.23h2.27a1.23,1.23,0,0,0,1.23-1.24v-3.71a1.23,1.23,0,0,1,1.23-1.24h3.71a1.23,1.23,0,0,1,1.24,1.23v3.71a1.23,1.23,0,0,0,1.24,1.23h2.27A1.23,1.23,0,0,0,511.6,117.26Z" style="fill:#a3a3a3"/><path d="M485.79,117.28V104.49a1.23,1.23,0,0,0-.6-1.06l-6.6-3.94a1.23,1.23,0,0,0-1.27,0l-6.59,4a1.23,1.23,0,0,0-.6,1.06V117.3a1.23,1.23,0,0,0,1.24,1.23h2.27a1.23,1.23,0,0,0,1.23-1.24v-3.71a1.23,1.23,0,0,1,1.23-1.24h3.71a1.23,1.23,0,0,1,1.24,1.23v3.71a1.23,1.23,0,0,0,1.24,1.23h2.27A1.23,1.23,0,0,0,485.79,117.28Z" style="fill:#a3a3a3"/><path d="M460,117.3V104.51a1.23,1.23,0,0,0-.6-1.06l-6.6-3.94a1.23,1.23,0,0,0-1.27,0l-6.59,4a1.23,1.23,0,0,0-.6,1.06v12.79a1.23,1.23,0,0,0,1.24,1.23h2.27a1.23,1.23,0,0,0,1.23-1.24V113.6a1.23,1.23,0,0,1,1.23-1.24H454a1.23,1.23,0,0,1,1.24,1.23v3.71a1.23,1.23,0,0,0,1.24,1.23h2.27A1.23,1.23,0,0,0,460,117.3Z" style="fill:#a3a3a3"/><path d="M434.18,117.32V104.53a1.23,1.23,0,0,0-.6-1.06L427,99.53a1.23,1.23,0,0,0-1.27,0l-6.59,4a1.23,1.23,0,0,0-.6,1.06v12.79a1.23,1.23,0,0,0,1.24,1.23H422a1.23,1.23,0,0,0,1.23-1.24v-3.71a1.23,1.23,0,0,1,1.23-1.24h3.71a1.23,1.23,0,0,1,1.24,1.23v3.71a1.23,1.23,0,0,0,1.24,1.23h2.27A1.23,1.23,0,0,0,434.18,117.32Z" style="fill:#a3a3a3"/><path d="M408.37,117.35V104.55a1.23,1.23,0,0,0-.6-1.06l-6.6-3.94a1.23,1.23,0,0,0-1.27,0l-6.59,4a1.23,1.23,0,0,0-.6,1.06v12.79a1.23,1.23,0,0,0,1.24,1.23h2.27a1.23,1.23,0,0,0,1.23-1.24v-3.71a1.23,1.23,0,0,1,1.23-1.24h3.71a1.23,1.23,0,0,1,1.24,1.23v3.71a1.23,1.23,0,0,0,1.24,1.23h2.27A1.23,1.23,0,0,0,408.37,117.35Z" style="fill:#a3a3a3"/><path d="M382.57,117.37V104.58a1.23,1.23,0,0,0-.6-1.06l-6.6-3.94a1.23,1.23,0,0,0-1.27,0l-6.59,4a1.23,1.23,0,0,0-.6,1.06v12.79a1.23,1.23,0,0,0,1.24,1.23h2.27a1.23,1.23,0,0,0,1.23-1.24v-3.71a1.23,1.23,0,0,1,1.23-1.24h3.71a1.23,1.23,0,0,1,1.24,1.23v3.71a1.23,1.23,0,0,0,1.24,1.23h2.27A1.23,1.23,0,0,0,382.57,117.37Z" style="fill:#a3a3a3"/><path d="M559.92,5.85V18.65a1.23,1.23,0,0,0,.6,1.06l6.6,3.94a1.23,1.23,0,0,0,1.27,0l6.59-4a1.23,1.23,0,0,0,.6-1.06V5.84a1.23,1.23,0,0,0-1.24-1.23h-2.27a1.23,1.23,0,0,0-1.23,1.24V9.56a1.23,1.23,0,0,1-1.23,1.24H565.9a1.23,1.23,0,0,1-1.24-1.23V5.85a1.23,1.23,0,0,0-1.24-1.23h-2.27A1.23,1.23,0,0,0,559.92,5.85Z" style="fill:#a3a3a3"/><path d="M545,5.87V9.58a1.23,1.23,0,0,1-1.23,1.24h-3.71a1.23,1.23,0,0,1-1.24-1.23V5.88a1.23,1.23,0,0,0-1.24-1.23h-2.27a1.23,1.23,0,0,0-1.23,1.24V18.67a1.23,1.23,0,0,0,.6,1.06l6.6,3.94a1.23,1.23,0,0,0,.63.17h0a1.23,1.23,0,0,0,.63-.18l6.59-4a1.23,1.23,0,0,0,.6-1.06V5.86a1.23,1.23,0,0,0-1.24-1.23h-2.27A1.23,1.23,0,0,0,545,5.87Z" style="fill:#a3a3a3"/><path d="M585.73,5.83V18.62a1.23,1.23,0,0,0,.6,1.06l6.6,3.94a1.23,1.23,0,0,0,1.27,0l6.59-4a1.23,1.23,0,0,0,.6-1.06V5.82a1.23,1.23,0,0,0-1.24-1.23h-2.27a1.23,1.23,0,0,0-1.23,1.24V9.53a1.23,1.23,0,0,1-1.23,1.24h-3.71a1.23,1.23,0,0,1-1.24-1.23V5.83a1.23,1.23,0,0,0-1.24-1.23H587A1.23,1.23,0,0,0,585.73,5.83Z" style="fill:#a3a3a3"/><path d="M611.53,5.81V18.6a1.23,1.23,0,0,0,.6,1.06l6.6,3.94a1.23,1.23,0,0,0,1.27,0l6.59-4a1.23,1.23,0,0,0,.6-1.06V5.79A1.23,1.23,0,0,0,626,4.56h-2.27a1.23,1.23,0,0,0-1.23,1.24V9.51a1.23,1.23,0,0,1-1.23,1.24h-3.71a1.23,1.23,0,0,1-1.24-1.23V5.8A1.23,1.23,0,0,0,615,4.57h-2.27A1.23,1.23,0,0,0,611.53,5.81Z" style="fill:#a3a3a3"/><path d="M637.34,5.78V18.58a1.23,1.23,0,0,0,.6,1.06l6.6,3.94a1.23,1.23,0,0,0,1.27,0l6.59-4a1.23,1.23,0,0,0,.6-1.06V5.77a1.23,1.23,0,0,0-1.24-1.23H649.5a1.23,1.23,0,0,0-1.23,1.24V9.49A1.23,1.23,0,0,1,647,10.72h-3.71a1.23,1.23,0,0,1-1.24-1.23V5.78a1.23,1.23,0,0,0-1.24-1.23h-2.27A1.23,1.23,0,0,0,637.34,5.78Z" style="fill:#a3a3a3"/><path d="M678.22,19.6a1.23,1.23,0,0,0,.6-1.06V5.75a1.23,1.23,0,0,0-1.24-1.23H675.3a1.23,1.23,0,0,0-1.23,1.24V9.47a1.23,1.23,0,0,1-1.23,1.24h-3.71a1.23,1.23,0,0,1-1.24-1.23V5.76a1.23,1.23,0,0,0-1.24-1.23h-2.27a1.23,1.23,0,0,0-1.23,1.24V18.56a1.23,1.23,0,0,0,.6,1.06l6.6,3.94a1.23,1.23,0,0,0,1.27,0Z" style="fill:#a3a3a3"/><path d="M704,19.58a1.23,1.23,0,0,0,.6-1.06V5.73a1.23,1.23,0,0,0-1.24-1.23h-2.27a1.23,1.23,0,0,0-1.23,1.24V9.44a1.23,1.23,0,0,1-1.23,1.24h-3.71a1.23,1.23,0,0,1-1.24-1.23V5.74a1.23,1.23,0,0,0-1.24-1.23h-2.27A1.23,1.23,0,0,0,689,5.74V18.53a1.23,1.23,0,0,0,.6,1.06l6.6,3.94a1.23,1.23,0,0,0,1.27,0Z" style="fill:#a3a3a3"/><path d="M714.76,5.72V18.51a1.23,1.23,0,0,0,.6,1.06l6.6,3.94a1.23,1.23,0,0,0,.63.17v-13h-1.86a1.23,1.23,0,0,1-1.24-1.23V5.71a1.23,1.23,0,0,0-1.24-1.23H716A1.23,1.23,0,0,0,714.76,5.72Z" style="fill:#a3a3a3"/><polygon points="541.98 48.84 553.98 42.51 567.81 48.63 580.03 42.48 593.29 48.61 606.08 42.46 618.78 48.59 631.63 42.66 643.76 48.57 644.04 48.45 644.26 48.57 653.21 44.61 658.45 42.41 671.72 48.54 684.5 42.39 697.2 48.52 710.55 42.37 722.63 48.47 722.62 31.17 710.85 25.23 697.35 31.45 684.51 25.25 671.58 31.47 658.16 25.27 644.36 31.32 632.43 25.29 632.11 25.44 631.81 25.29 618.75 31.43 606.08 25.32 593.16 31.54 579.74 25.34 567.38 31.56 553.39 25.36 541.97 31.39 541.97 31.33 530.2 25.39 516.7 31.61 503.86 25.41 490.93 31.63 477.51 25.43 463.71 31.48 451.78 25.45 451.46 25.6 451.16 25.45 438.11 31.59 425.44 25.48 412.51 31.7 399.09 25.5 386.74 31.72 372.74 25.52 361.32 31.55 361.33 49 373.33 42.67 387.16 48.8 399.38 42.64 412.64 48.77 425.43 42.62 438.13 48.75 450.98 42.83 463.11 48.73 463.39 48.61 463.61 48.73 472.56 44.77 477.8 42.58 491.07 48.7 503.85 42.55 516.55 48.68 529.9 42.53 541.98 48.63 541.98 48.84" style="fill:#a3a3a3"/><path d="M713.31,113.37v3.71a1.23,1.23,0,0,0,1.24,1.23h2.27a1.23,1.23,0,0,0,1.23-1.24V104.28a1.23,1.23,0,0,0-.6-1.06l-6.6-3.94a1.23,1.23,0,0,0-1.27,0l-6.59,4a1.23,1.23,0,0,0-.6,1.06v12.79a1.23,1.23,0,0,0,1.24,1.23h2.27a1.23,1.23,0,0,0,1.23-1.24v-3.71a1.23,1.23,0,0,1,1.23-1.24h3.71A1.23,1.23,0,0,1,713.31,113.37Z" style="fill:#a3a3a3"/><path d="M692.25,117.1V104.3a1.23,1.23,0,0,0-.6-1.06L685,99.3a1.23,1.23,0,0,0-1.27,0l-6.59,4a1.23,1.23,0,0,0-.6,1.06v12.79a1.23,1.23,0,0,0,1.24,1.23h2.27a1.23,1.23,0,0,0,1.23-1.24v-3.71a1.23,1.23,0,0,1,1.23-1.24h3.71a1.23,1.23,0,0,1,1.24,1.23v3.71a1.23,1.23,0,0,0,1.24,1.23H691A1.23,1.23,0,0,0,692.25,117.1Z" style="fill:#a3a3a3"/><path d="M666.44,117.12V104.33a1.23,1.23,0,0,0-.6-1.06l-6.6-3.94a1.23,1.23,0,0,0-1.27,0l-6.59,4a1.23,1.23,0,0,0-.6,1.06v12.79a1.23,1.23,0,0,0,1.24,1.23h2.27a1.23,1.23,0,0,0,1.23-1.24v-3.71a1.23,1.23,0,0,1,1.23-1.24h3.71a1.23,1.23,0,0,1,1.24,1.23v3.71a1.23,1.23,0,0,0,1.24,1.23h2.27A1.23,1.23,0,0,0,666.44,117.12Z" style="fill:#a3a3a3"/><path d="M640.64,117.14V104.35a1.23,1.23,0,0,0-.6-1.06l-6.6-3.94a1.23,1.23,0,0,0-1.27,0l-6.59,4a1.23,1.23,0,0,0-.6,1.06v12.79a1.23,1.23,0,0,0,1.24,1.23h2.27a1.23,1.23,0,0,0,1.23-1.24v-3.71a1.23,1.23,0,0,1,1.23-1.24h3.71a1.23,1.23,0,0,1,1.24,1.23v3.71a1.23,1.23,0,0,0,1.24,1.23h2.27A1.23,1.23,0,0,0,640.64,117.14Z" style="fill:#a3a3a3"/><path d="M610.08,113.45v3.71a1.23,1.23,0,0,0,1.24,1.23h2.27a1.23,1.23,0,0,0,1.23-1.24V104.37a1.23,1.23,0,0,0-.6-1.06l-6.6-3.94a1.23,1.23,0,0,0-1.27,0l-6.59,4a1.23,1.23,0,0,0-.6,1.06v12.79a1.23,1.23,0,0,0,1.24,1.23h2.27a1.23,1.23,0,0,0,1.23-1.24v-3.71a1.23,1.23,0,0,1,1.23-1.24h3.71A1.23,1.23,0,0,1,610.08,113.45Z" style="fill:#a3a3a3"/><path d="M573.95,103.35a1.23,1.23,0,0,0-.6,1.06V117.2a1.23,1.23,0,0,0,1.24,1.23h2.27a1.23,1.23,0,0,0,1.23-1.24v-3.71a1.23,1.23,0,0,1,1.23-1.24H583a1.23,1.23,0,0,1,1.24,1.23v3.71a1.23,1.23,0,0,0,1.24,1.23h2.27a1.23,1.23,0,0,0,1.23-1.24V104.39a1.23,1.23,0,0,0-.6-1.06l-6.6-3.94a1.23,1.23,0,0,0-1.27,0Z" style="fill:#a3a3a3"/><path d="M548.14,103.37a1.23,1.23,0,0,0-.6,1.06v12.79a1.23,1.23,0,0,0,1.24,1.23h2.27a1.23,1.23,0,0,0,1.23-1.24v-3.71a1.23,1.23,0,0,1,1.23-1.24h3.71a1.23,1.23,0,0,1,1.24,1.23v3.71a1.23,1.23,0,0,0,1.24,1.23H562a1.23,1.23,0,0,0,1.23-1.24V104.42a1.23,1.23,0,0,0-.6-1.06L556,99.42a1.23,1.23,0,0,0-1.27,0Z" style="fill:#a3a3a3"/><polygon points="659.22 91.5 671.89 97.61 684.82 91.39 698.24 97.59 710.59 91.37 722.67 96.72 722.66 79.83 710.17 74.29 697.95 80.45 684.68 74.32 671.9 80.47 659.2 74.34 646.35 80.26 634.22 74.36 633.94 74.47 633.71 74.36 624.76 78.32 619.53 80.51 606.26 74.39 593.48 80.54 580.77 74.41 567.43 80.56 555.29 74.43 542.01 80.3 542.01 79.99 529.52 74.45 517.3 80.61 504.03 74.48 491.25 80.63 478.55 74.5 465.7 80.42 453.57 74.52 453.29 74.64 453.06 74.52 444.12 78.48 438.88 80.67 425.61 74.55 412.83 80.7 400.13 74.57 386.78 80.72 374.64 74.59 361.36 80.46 361.38 97.34 374.2 91.67 386.47 97.86 399.97 91.64 412.82 97.84 425.75 91.62 439.17 97.81 452.97 91.77 464.9 97.8 465.22 97.65 465.51 97.8 478.57 91.66 491.24 97.77 504.17 91.55 517.59 97.75 529.94 91.53 542.02 96.88 542.02 97.17 554.85 91.5 567.12 97.7 580.62 91.48 593.47 97.68 606.39 91.45 619.82 97.65 633.62 91.61 645.54 97.63 645.87 97.48 646.16 97.63 659.22 91.5" style="fill:#a3a3a3"/><polygon points="542 73.34 554 67.01 567.83 73.13 580.05 66.98 593.32 73.11 606.1 66.96 618.8 73.09 631.65 67.17 643.78 73.07 644.06 72.95 644.28 73.07 653.23 69.11 658.47 66.91 671.74 73.04 684.52 66.89 697.22 73.02 710.57 66.87 722.65 72.97 722.64 55.67 710.88 49.73 697.37 55.95 684.53 49.75 671.6 55.97 658.18 49.77 644.38 55.82 632.45 49.79 632.13 49.94 631.84 49.79 618.78 55.93 606.11 49.82 593.18 56.04 579.76 49.84 567.41 56.06 553.41 49.86 541.99 55.89 541.99 55.83 530.23 49.89 516.73 56.11 503.88 49.91 490.95 56.13 477.53 49.94 463.73 55.98 451.8 49.95 451.48 50.1 451.19 49.95 438.13 56.09 425.46 49.98 412.53 56.2 399.11 50 386.76 56.22 372.76 50.02 361.34 56.05 361.36 73.5 373.35 67.17 387.18 73.3 399.4 67.14 412.67 73.27 425.45 67.12 438.15 73.25 451 67.33 463.13 73.23 463.41 73.11 463.64 73.23 472.58 69.27 477.82 67.08 491.09 73.2 503.87 67.05 516.57 73.18 529.92 67.03 542 73.13 542 73.34" style="fill:#a3a3a3"/><path d="M755.64,19.47a1.23,1.23,0,0,0,.6-1.06V5.61A1.23,1.23,0,0,0,755,4.38h-2.27a1.23,1.23,0,0,0-1.23,1.24V9.33a1.23,1.23,0,0,1-1.23,1.24h-3.71a1.23,1.23,0,0,1-1.24-1.23V5.62a1.23,1.23,0,0,0-1.24-1.23H741.8a1.23,1.23,0,0,0-1.23,1.24V18.42a1.23,1.23,0,0,0,.6,1.06l6.6,3.94a1.23,1.23,0,0,0,1.27,0Z" style="fill:#a3a3a3"/><path d="M729.84,19.49a1.23,1.23,0,0,0,.6-1.06V5.64a1.23,1.23,0,0,0-1.24-1.23h-2.27a1.23,1.23,0,0,0-1.23,1.24V9.35a1.23,1.23,0,0,1-1.23,1.24H722.6v13a1.23,1.23,0,0,0,.63-.18Z" style="fill:#a3a3a3"/><path d="M781.45,19.44a1.23,1.23,0,0,0,.6-1.06V5.59a1.23,1.23,0,0,0-1.24-1.23h-2.27A1.23,1.23,0,0,0,777.3,5.6V9.31a1.23,1.23,0,0,1-1.23,1.24h-3.71a1.23,1.23,0,0,1-1.24-1.23V5.6a1.23,1.23,0,0,0-1.24-1.23h-2.27a1.23,1.23,0,0,0-1.23,1.24V18.4a1.23,1.23,0,0,0,.6,1.06l6.6,3.94a1.23,1.23,0,0,0,1.27,0Z" style="fill:#a3a3a3"/><path d="M807.26,19.42a1.23,1.23,0,0,0,.6-1.06V5.57a1.23,1.23,0,0,0-1.24-1.23h-2.27a1.23,1.23,0,0,0-1.23,1.24V9.29a1.23,1.23,0,0,1-1.23,1.24h-3.71a1.23,1.23,0,0,1-1.24-1.23V5.58a1.23,1.23,0,0,0-1.24-1.23h-2.27a1.23,1.23,0,0,0-1.23,1.24V18.38a1.23,1.23,0,0,0,.6,1.06l6.6,3.94a1.23,1.23,0,0,0,1.27,0Z" style="fill:#a3a3a3"/><path d="M833.07,19.4a1.23,1.23,0,0,0,.6-1.06V5.55a1.23,1.23,0,0,0-1.24-1.23h-2.27a1.23,1.23,0,0,0-1.23,1.24V9.26a1.23,1.23,0,0,1-1.23,1.24H824a1.23,1.23,0,0,1-1.24-1.23V5.55a1.23,1.23,0,0,0-1.24-1.23h-2.27A1.23,1.23,0,0,0,818,5.56V18.35a1.23,1.23,0,0,0,.6,1.06l6.6,3.94a1.23,1.23,0,0,0,1.27,0Z" style="fill:#a3a3a3"/><path d="M858.87,19.38a1.23,1.23,0,0,0,.6-1.06V5.53a1.23,1.23,0,0,0-1.24-1.23H856a1.23,1.23,0,0,0-1.23,1.24V9.24a1.23,1.23,0,0,1-1.23,1.24h-3.71a1.23,1.23,0,0,1-1.24-1.23V5.53A1.23,1.23,0,0,0,847.3,4.3H845a1.23,1.23,0,0,0-1.23,1.24V18.33a1.23,1.23,0,0,0,.6,1.06l6.6,3.94a1.23,1.23,0,0,0,1.27,0Z" style="fill:#a3a3a3"/><path d="M884.68,19.36a1.23,1.23,0,0,0,.6-1.06V5.5A1.23,1.23,0,0,0,884,4.27h-2.27a1.23,1.23,0,0,0-1.23,1.24V9.22a1.23,1.23,0,0,1-1.23,1.24h-3.71a1.23,1.23,0,0,1-1.24-1.23V5.51a1.23,1.23,0,0,0-1.24-1.23h-2.27a1.23,1.23,0,0,0-1.23,1.24V18.31a1.23,1.23,0,0,0,.6,1.06l6.6,3.94a1.23,1.23,0,0,0,1.27,0Z" style="fill:#a3a3a3"/><path d="M898.71,116.85V104.06a1.23,1.23,0,0,0-.6-1.06l-6.6-3.94a1.23,1.23,0,0,0-1.27,0l-6.59,4a1.23,1.23,0,0,0-.6,1.06v12.79a1.23,1.23,0,0,0,1.24,1.23h2.27a1.23,1.23,0,0,0,1.23-1.24v-3.71a1.23,1.23,0,0,1,1.23-1.24h3.71a1.23,1.23,0,0,1,1.24,1.23v3.71a1.23,1.23,0,0,0,1.24,1.23h2.27A1.23,1.23,0,0,0,898.71,116.85Z" style="fill:#a3a3a3"/><path d="M872.9,116.87V104.08a1.23,1.23,0,0,0-.6-1.06l-6.6-3.94a1.23,1.23,0,0,0-1.27,0l-6.59,4a1.23,1.23,0,0,0-.6,1.06v12.79a1.23,1.23,0,0,0,1.24,1.23h2.27a1.23,1.23,0,0,0,1.23-1.24v-3.71a1.23,1.23,0,0,1,1.23-1.24h3.71a1.23,1.23,0,0,1,1.24,1.23v3.71a1.23,1.23,0,0,0,1.24,1.23h2.27A1.23,1.23,0,0,0,872.9,116.87Z" style="fill:#a3a3a3"/><path d="M847.09,116.9V104.1a1.23,1.23,0,0,0-.6-1.06l-6.6-3.94a1.23,1.23,0,0,0-1.27,0l-6.59,4a1.23,1.23,0,0,0-.6,1.06v12.79a1.23,1.23,0,0,0,1.24,1.23h2.27a1.23,1.23,0,0,0,1.23-1.24v-3.71A1.23,1.23,0,0,1,837.4,112h3.71a1.23,1.23,0,0,1,1.24,1.23v3.71a1.23,1.23,0,0,0,1.24,1.23h2.27A1.23,1.23,0,0,0,847.09,116.9Z" style="fill:#a3a3a3"/><path d="M821.29,116.92V104.12a1.23,1.23,0,0,0-.6-1.06l-6.6-3.94a1.23,1.23,0,0,0-1.27,0l-6.59,4a1.23,1.23,0,0,0-.6,1.06v12.79a1.23,1.23,0,0,0,1.24,1.23h2.27a1.23,1.23,0,0,0,1.23-1.24v-3.71a1.23,1.23,0,0,1,1.23-1.24h3.71a1.23,1.23,0,0,1,1.24,1.23v3.71a1.23,1.23,0,0,0,1.24,1.23h2.27A1.23,1.23,0,0,0,821.29,116.92Z" style="fill:#a3a3a3"/><path d="M795.48,116.94V104.14a1.23,1.23,0,0,0-.6-1.06l-6.6-3.94a1.23,1.23,0,0,0-1.27,0l-6.59,4a1.23,1.23,0,0,0-.6,1.06V117a1.23,1.23,0,0,0,1.24,1.23h2.27a1.23,1.23,0,0,0,1.23-1.24v-3.71a1.23,1.23,0,0,1,1.23-1.24h3.71a1.23,1.23,0,0,1,1.24,1.23v3.71a1.23,1.23,0,0,0,1.24,1.23h2.27A1.23,1.23,0,0,0,795.48,116.94Z" style="fill:#a3a3a3"/><path d="M769.67,117V104.17a1.23,1.23,0,0,0-.6-1.06l-6.6-3.94a1.23,1.23,0,0,0-1.27,0l-6.59,4a1.23,1.23,0,0,0-.6,1.06V117a1.23,1.23,0,0,0,1.24,1.23h2.27a1.23,1.23,0,0,0,1.23-1.24v-3.71A1.23,1.23,0,0,1,760,112h3.71a1.23,1.23,0,0,1,1.24,1.23V117a1.23,1.23,0,0,0,1.24,1.23h2.27A1.23,1.23,0,0,0,769.67,117Z" style="fill:#a3a3a3"/><path d="M743.86,117V104.19a1.23,1.23,0,0,0-.6-1.06l-6.6-3.94a1.23,1.23,0,0,0-1.27,0l-6.59,4a1.23,1.23,0,0,0-.6,1.06V117a1.23,1.23,0,0,0,1.24,1.23h2.27a1.23,1.23,0,0,0,1.23-1.24v-3.71a1.23,1.23,0,0,1,1.23-1.24h3.71a1.23,1.23,0,0,1,1.24,1.23V117a1.23,1.23,0,0,0,1.24,1.23h2.27A1.23,1.23,0,0,0,743.86,117Z" style="fill:#a3a3a3"/><path d="M921.22,5.47V18.26a1.23,1.23,0,0,0,.6,1.06l6.6,3.94a1.23,1.23,0,0,0,1.27,0l6.59-4a1.23,1.23,0,0,0,.6-1.06V5.45a1.23,1.23,0,0,0-1.24-1.23h-2.27a1.23,1.23,0,0,0-1.23,1.24V9.17a1.23,1.23,0,0,1-1.23,1.24H927.2A1.23,1.23,0,0,1,926,9.18V5.46a1.23,1.23,0,0,0-1.24-1.23h-2.27A1.23,1.23,0,0,0,921.22,5.47Z" style="fill:#a3a3a3"/><path d="M906.33,5.48V9.19a1.23,1.23,0,0,1-1.23,1.24h-3.71a1.23,1.23,0,0,1-1.24-1.23V5.49a1.23,1.23,0,0,0-1.24-1.23h-2.27a1.23,1.23,0,0,0-1.23,1.24V18.29a1.23,1.23,0,0,0,.6,1.06l6.6,3.94a1.23,1.23,0,0,0,.63.17h0a1.23,1.23,0,0,0,.63-.18l6.59-4a1.23,1.23,0,0,0,.6-1.06V5.48a1.23,1.23,0,0,0-1.24-1.23h-2.27A1.23,1.23,0,0,0,906.33,5.48Z" style="fill:#a3a3a3"/><path d="M947,5.44V18.24a1.23,1.23,0,0,0,.6,1.06l6.6,3.94a1.23,1.23,0,0,0,1.27,0l6.59-4a1.23,1.23,0,0,0,.6-1.06V5.43a1.23,1.23,0,0,0-1.24-1.23h-2.27a1.23,1.23,0,0,0-1.23,1.24V9.15a1.23,1.23,0,0,1-1.23,1.24H953a1.23,1.23,0,0,1-1.24-1.23V5.44a1.23,1.23,0,0,0-1.24-1.23h-2.27A1.23,1.23,0,0,0,947,5.44Z" style="fill:#a3a3a3"/><path d="M972.83,5.42V18.21a1.23,1.23,0,0,0,.6,1.06l6.6,3.94a1.23,1.23,0,0,0,1.27,0l6.59-4a1.23,1.23,0,0,0,.6-1.06V5.41a1.23,1.23,0,0,0-1.24-1.23H985a1.23,1.23,0,0,0-1.23,1.24V9.12a1.23,1.23,0,0,1-1.23,1.24h-3.71a1.23,1.23,0,0,1-1.24-1.23V5.42a1.23,1.23,0,0,0-1.24-1.23h-2.27A1.23,1.23,0,0,0,972.83,5.42Z" style="fill:#a3a3a3"/><path d="M998.64,5.4V18.19a1.23,1.23,0,0,0,.6,1.06l6.6,3.94a1.23,1.23,0,0,0,1.27,0l6.59-4a1.23,1.23,0,0,0,.6-1.06V5.38a1.23,1.23,0,0,0-1.24-1.23h-2.27a1.23,1.23,0,0,0-1.23,1.24V9.1a1.23,1.23,0,0,1-1.23,1.24h-3.71a1.23,1.23,0,0,1-1.24-1.23V5.39a1.23,1.23,0,0,0-1.24-1.23h-2.27A1.23,1.23,0,0,0,998.64,5.4Z" style="fill:#a3a3a3"/><path d="M1039.52,19.22a1.23,1.23,0,0,0,.6-1.06V5.36a1.23,1.23,0,0,0-1.24-1.23h-2.27a1.23,1.23,0,0,0-1.23,1.24V9.08a1.23,1.23,0,0,1-1.23,1.24h-3.71a1.23,1.23,0,0,1-1.24-1.23V5.37A1.23,1.23,0,0,0,1028,4.14h-2.27a1.23,1.23,0,0,0-1.23,1.24V18.17a1.23,1.23,0,0,0,.6,1.06l6.6,3.94a1.23,1.23,0,0,0,1.27,0Z" style="fill:#a3a3a3"/><path d="M1065.33,19.19a1.23,1.23,0,0,0,.6-1.06V5.34a1.23,1.23,0,0,0-1.24-1.23h-2.27a1.23,1.23,0,0,0-1.23,1.24V9.06a1.23,1.23,0,0,1-1.23,1.24h-3.71A1.23,1.23,0,0,1,1055,9.06V5.35a1.23,1.23,0,0,0-1.24-1.23h-2.27a1.23,1.23,0,0,0-1.23,1.24V18.15a1.23,1.23,0,0,0,.6,1.06l6.6,3.94a1.23,1.23,0,0,0,1.27,0Z" style="fill:#a3a3a3"/><path d="M1076.06,5.33V18.12a1.23,1.23,0,0,0,.6,1.06l6.6,3.94a1.23,1.23,0,0,0,.63.17v-13H1082A1.23,1.23,0,0,1,1080.8,9V5.33a1.23,1.23,0,0,0-1.24-1.23h-2.27A1.23,1.23,0,0,0,1076.06,5.33Z" style="fill:#a3a3a3"/><polygon points="903.28 48.46 915.28 42.12 929.11 48.25 941.33 42.09 954.59 48.22 967.37 42.07 980.08 48.2 992.92 42.28 1005.06 48.18 1005.34 48.07 1005.56 48.18 1014.51 44.22 1019.75 42.03 1033.02 48.16 1045.8 42 1058.5 48.13 1071.85 41.98 1083.93 48.09 1083.91 30.78 1072.15 24.84 1058.65 31.06 1045.81 24.86 1032.88 31.09 1019.46 24.89 1005.66 30.93 993.73 24.91 993.4 25.06 993.11 24.91 980.05 31.05 967.38 24.93 954.46 31.15 941.04 24.95 928.68 31.17 914.69 24.97 903.26 31 903.26 30.94 891.5 25 878 31.23 865.16 25.03 852.23 31.25 838.81 25.05 825.01 31.09 813.08 25.07 812.75 25.22 812.46 25.07 799.4 31.21 786.73 25.09 773.81 31.32 760.39 25.12 748.03 31.34 734.04 25.14 722.62 31.17 722.63 48.62 734.63 42.28 748.46 48.41 760.68 42.26 773.94 48.38 786.73 42.23 799.43 48.36 812.27 42.44 824.41 48.34 824.69 48.23 824.91 48.34 833.86 44.38 839.1 42.19 852.37 48.32 865.15 42.16 877.85 48.29 891.2 42.14 903.28 48.25 903.28 48.46" style="fill:#a3a3a3"/><path d="M1074.61,113v3.71a1.23,1.23,0,0,0,1.24,1.23h2.27a1.23,1.23,0,0,0,1.23-1.24V103.89a1.23,1.23,0,0,0-.6-1.06l-6.6-3.94a1.23,1.23,0,0,0-1.27,0l-6.59,4a1.23,1.23,0,0,0-.6,1.06V116.7a1.23,1.23,0,0,0,1.24,1.23h2.27a1.23,1.23,0,0,0,1.23-1.24V113a1.23,1.23,0,0,1,1.23-1.24h3.71A1.23,1.23,0,0,1,1074.61,113Z" style="fill:#a3a3a3"/><path d="M1053.55,116.71V103.92a1.23,1.23,0,0,0-.6-1.06l-6.6-3.94a1.23,1.23,0,0,0-1.27,0l-6.59,4a1.23,1.23,0,0,0-.6,1.06v12.79a1.23,1.23,0,0,0,1.24,1.23h2.27a1.23,1.23,0,0,0,1.23-1.24V113a1.23,1.23,0,0,1,1.23-1.24h3.71a1.23,1.23,0,0,1,1.24,1.23v3.71a1.23,1.23,0,0,0,1.24,1.23h2.27A1.23,1.23,0,0,0,1053.55,116.71Z" style="fill:#a3a3a3"/><path d="M1027.74,116.73V103.94a1.23,1.23,0,0,0-.6-1.06l-6.6-3.94a1.23,1.23,0,0,0-1.27,0l-6.59,4a1.23,1.23,0,0,0-.6,1.06v12.79a1.23,1.23,0,0,0,1.24,1.23h2.27a1.23,1.23,0,0,0,1.23-1.24V113a1.23,1.23,0,0,1,1.23-1.24h3.71A1.23,1.23,0,0,1,1023,113v3.71a1.23,1.23,0,0,0,1.24,1.23h2.27A1.23,1.23,0,0,0,1027.74,116.73Z" style="fill:#a3a3a3"/><path d="M1001.94,116.76V104a1.23,1.23,0,0,0-.6-1.06L994.72,99a1.23,1.23,0,0,0-1.27,0l-6.59,4a1.23,1.23,0,0,0-.6,1.06v12.79a1.23,1.23,0,0,0,1.24,1.23h2.27a1.23,1.23,0,0,0,1.23-1.24v-3.71a1.23,1.23,0,0,1,1.23-1.24H996a1.23,1.23,0,0,1,1.24,1.23v3.71a1.23,1.23,0,0,0,1.24,1.23h2.27A1.23,1.23,0,0,0,1001.94,116.76Z" style="fill:#a3a3a3"/><path d="M971.38,113.07v3.71a1.23,1.23,0,0,0,1.24,1.23h2.27a1.23,1.23,0,0,0,1.23-1.24V104a1.23,1.23,0,0,0-.6-1.06L968.91,99a1.23,1.23,0,0,0-1.27,0l-6.59,4a1.23,1.23,0,0,0-.6,1.06v12.79A1.23,1.23,0,0,0,961.7,118H964a1.23,1.23,0,0,0,1.23-1.24v-3.71a1.23,1.23,0,0,1,1.23-1.24h3.71A1.23,1.23,0,0,1,971.38,113.07Z" style="fill:#a3a3a3"/><path d="M935.24,103a1.23,1.23,0,0,0-.6,1.06v12.79a1.23,1.23,0,0,0,1.24,1.23h2.27a1.23,1.23,0,0,0,1.23-1.24V113.1a1.23,1.23,0,0,1,1.23-1.24h3.71a1.23,1.23,0,0,1,1.24,1.23v3.71a1.23,1.23,0,0,0,1.24,1.23h2.27a1.23,1.23,0,0,0,1.23-1.24V104a1.23,1.23,0,0,0-.6-1.06L943.11,99a1.23,1.23,0,0,0-1.27,0Z" style="fill:#a3a3a3"/><path d="M909.44,103a1.23,1.23,0,0,0-.6,1.06v12.79a1.23,1.23,0,0,0,1.24,1.23h2.27a1.23,1.23,0,0,0,1.23-1.24v-3.71a1.23,1.23,0,0,1,1.23-1.24h3.71a1.23,1.23,0,0,1,1.24,1.23v3.71a1.23,1.23,0,0,0,1.24,1.23h2.27a1.23,1.23,0,0,0,1.23-1.24V104a1.23,1.23,0,0,0-.6-1.06L917.3,99A1.23,1.23,0,0,0,916,99Z" style="fill:#a3a3a3"/><polygon points="1020.52 91.11 1033.19 97.22 1046.12 91 1059.54 97.2 1071.89 90.98 1083.97 96.33 1083.96 79.44 1071.47 73.91 1059.25 80.06 1045.98 73.93 1033.2 80.08 1020.5 73.95 1007.65 79.88 995.51 73.97 995.24 74.09 995.01 73.97 986.06 77.93 980.83 80.13 967.56 74 954.78 80.15 942.07 74.02 928.73 80.17 916.59 74.04 903.31 79.92 903.31 79.6 890.82 74.07 878.6 80.22 865.33 74.09 852.55 80.25 839.85 74.12 827 80.04 814.86 74.13 814.59 74.25 814.36 74.14 805.41 78.09 800.18 80.29 786.91 74.16 774.13 80.31 761.42 74.18 748.08 80.33 735.94 74.2 722.66 80.08 722.67 96.95 735.5 91.28 747.77 97.48 761.27 91.25 774.12 97.45 787.04 91.23 800.47 97.43 814.27 91.38 826.2 97.41 826.52 97.26 826.81 97.41 839.87 91.27 852.54 97.38 865.47 91.16 878.89 97.36 891.24 91.14 903.32 96.5 903.32 96.79 916.15 91.12 928.42 97.31 941.92 91.09 954.77 97.29 967.69 91.07 981.11 97.27 994.91 91.22 1006.84 97.25 1007.17 97.1 1007.46 97.25 1020.52 91.11" style="fill:#a3a3a3"/><polygon points="903.3 72.96 915.3 66.62 929.13 72.75 941.35 66.59 954.61 72.72 967.4 66.57 980.1 72.7 992.95 66.78 1005.08 72.68 1005.36 72.57 1005.58 72.68 1014.53 68.72 1019.77 66.53 1033.04 72.66 1045.82 66.5 1058.52 72.63 1071.87 66.48 1083.95 72.58 1083.94 55.28 1072.17 49.34 1058.67 55.56 1045.83 49.37 1032.9 55.59 1019.48 49.39 1005.68 55.43 993.75 49.41 993.43 49.56 993.13 49.41 980.08 55.55 967.4 49.43 954.48 55.65 941.06 49.45 928.71 55.67 914.71 49.48 903.29 55.51 903.29 55.44 891.52 49.5 878.02 55.73 865.18 49.53 852.25 55.75 838.83 49.55 825.03 55.59 813.1 49.57 812.78 49.72 812.48 49.57 799.43 55.71 786.75 49.59 773.83 55.81 760.41 49.62 748.06 55.84 734.06 49.64 722.64 55.67 722.65 73.12 734.65 66.78 748.48 72.91 760.7 66.76 773.96 72.88 786.75 66.73 799.45 72.86 812.3 66.94 824.43 72.84 824.71 72.73 824.93 72.84 833.88 68.88 839.12 66.69 852.39 72.82 865.17 66.67 877.87 72.79 891.22 66.64 903.3 72.75 903.3 72.96" style="fill:#a3a3a3"/></g></svg>