<svg id="Layer_1" data-name="Layer 1" xmlns="http://www.w3.org/2000/svg" xmlns:xlink="http://www.w3.org/1999/xlink" viewBox="0 0 1084 1214.38"><defs><clipPath id="clip-path"><rect y="1" width="1084" height="1213.38" style="fill:none"/></clipPath></defs><title>wheresmybus_app</title><g style="clip-path:url(#clip-path)"><path d="M14.09,1048.89a1.82,1.82,0,0,0,.31-1.77L8,1029.31a1.82,1.82,0,0,0-2.33-1.1l-3.16,1.13a1.82,1.82,0,0,0-1.1,2.33l1.85,5.17a1.82,1.82,0,0,1-1.1,2.33L-3,1041a1.82,1.82,0,0,1-2.33-1.1l-1.85-5.17a1.82,1.82,0,0,0-2.33-1.1l-3.16,1.13a1.82,1.82,0,0,0-1.1,2.33l6.36,17.8A1.82,1.82,0,0,0-6,1056.08l11.14,2.21a1.82,1.82,0,0,0,1.76-.63Z" style="fill:#f79514"/><path d="M50,1036.05a1.82,1.82,0,0,0,.31-1.77l-6.36-17.8a1.82,1.82,0,0,0-2.33-1.1l-3.16,1.13a1.82,1.82,0,0,0-1.1,2.33l1.85,5.17a1.82,1.82,0,0,1-1.1,2.33l-5.17,1.85a1.82,1.82,0,0,1-2.33-1.1l-1.85-5.17a1.82,1.82,0,0,0-2.33-1.1l-3.16,1.13a1.82,1.82,0,0,0-1.1,2.33l6.36,17.8a1.82,1.82,0,0,0,1.36,1.17L41,1045.46a1.82,1.82,0,0,0,1.76-.63Z" style="fill:#f79514"/><path d="M85.9,1023.22a1.82,1.82,0,0,0,.31-1.77l-6.36-17.8a1.82,1.82,0,0,0-2.33-1.1l-3.16,1.13a1.82,1.82,0,0,0-1.1,2.33l1.85,5.17a1.82,1.82,0,0,1-1.1,2.33l-5.17,1.85a1.82,1.82,0,0,1-2.33-1.1l-1.85-5.17a1.82,1.82,0,0,0-2.33-1.1l-3.16,1.13a1.82,1.82,0,0,0-1.1,2.33l6.36,17.8a1.82,1.82,0,0,0,1.36,1.17l11.14,2.21a1.82,1.82,0,0,0,1.76-.63Z" style="fill:#f79514"/><path d="M153.79,1151.95l-6.36-17.8a1.82,1.82,0,0,0-1.36-1.17l-11.14-2.21a1.82,1.82,0,0,0-1.76.63l-7.22,8.77a1.82,1.82,0,0,0-.31,1.77l6.36,17.8a1.82,1.82,0,0,0,2.33,1.1l3.16-1.13a1.82,1.82,0,0,0,1.1-2.33l-1.85-5.17a1.82,1.82,0,0,1,1.1-2.33L143,1148a1.82,1.82,0,0,1,2.33,1.1l1.85,5.17a1.82,1.82,0,0,0,2.33,1.1l3.16-1.13A1.82,1.82,0,0,0,153.79,1151.95Z" style="fill:#f79514"/><path d="M117.89,1164.78l-6.36-17.8a1.82,1.82,0,0,0-1.36-1.17L99,1143.6a1.82,1.82,0,0,0-1.76.63L90,1153a1.82,1.82,0,0,0-.31,1.77l6.36,17.8a1.82,1.82,0,0,0,2.33,1.1l3.16-1.13a1.82,1.82,0,0,0,1.1-2.33l-1.85-5.17a1.82,1.82,0,0,1,1.1-2.33l5.17-1.85a1.82,1.82,0,0,1,2.33,1.1l1.85,5.17a1.82,1.82,0,0,0,2.33,1.1l3.16-1.13A1.82,1.82,0,0,0,117.89,1164.78Z" style="fill:#f79514"/><path d="M82,1177.62l-6.36-17.8a1.82,1.82,0,0,0-1.36-1.17l-11.14-2.21a1.82,1.82,0,0,0-1.76.63l-7.22,8.77a1.82,1.82,0,0,0-.31,1.77l6.36,17.8a1.82,1.82,0,0,0,2.33,1.1l3.16-1.13a1.82,1.82,0,0,0,1.1-2.33l-1.85-5.17a1.82,1.82,0,0,1,1.1-2.33l5.17-1.85a1.82,1.82,0,0,1,2.33,1.1l1.85,5.17a1.82,1.82,0,0,0,2.33,1.1l3.16-1.13A1.82,1.82,0,0,0,82,1177.62Z" style="fill:#f79514"/><path d="M46.08,1190.45l-6.36-17.8a1.82,1.82,0,0,0-1.36-1.17l-11.14-2.21a1.82,1.82,0,0,0-1.76.63l-7.22,8.77a1.82,1.82,0,0,0-.31,1.77l6.36,17.8a1.82,1.82,0,0,0,2.33,1.1l3.16-1.13a1.82,1.82,0,0,0,1.1-2.33L29,1190.72a1.82,1.82,0,0,1,1.1-2.33l5.17-1.85a1.82,1.82,0,0,1,2.33,1.1l1.85,5.17a1.82,1.82,0,0,0,2.33,1.1l3.16-1.13A1.82,1.82,0,0,0,46.08,1190.45Z" style="fill:#f79514"/><path d="M10.17,1203.29l-6.36-17.8a1.82,1.82,0,0,0-1.36-1.17L-8.7,1182.1a1.82,1.82,0,0,0-1.76.63l-7.22,8.77a1.82,1.82,0,0,0-.31,1.77l6.36,17.8a1.82,1.82,0,0,0,2.33,1.1l3.16-1.13a1.82,1.82,0,0,0,1.1-2.33l-1.85-5.17a1.82,1.82,0,0,1,1.1-2.33l5.17-1.85a1.82,1.82,0,0,1,2.33,1.1l1.85,5.17a1.82,1.82,0,0,0,2.33,1.1l3.16-1.13A1.82,1.82,0,0,0,10.17,1203.29Z" style="fill:#f79514"/><path d="M129.86,985.76l6.36,17.8a1.82,1.82,0,0,0,1.36,1.17l11.14,2.21a1.82,1.82,0,0,0,1.76-.63l7.22-8.77a1.82,1.82,0,0,0,.31-1.77L151.66,978a1.82,1.82,0,0,0-2.33-1.1L146.16,978a1.82,1.82,0,0,0-1.1,2.33l1.85,5.17a1.82,1.82,0,0,1-1.1,2.33l-5.17,1.85a1.82,1.82,0,0,1-2.33-1.1l-1.85-5.17a1.82,1.82,0,0,0-2.33-1.1L131,983.43A1.82,1.82,0,0,0,129.86,985.76Z" style="fill:#f79514"/><path d="M109.15,993.16l1.85,5.17a1.82,1.82,0,0,1-1.1,2.33l-2.58.92h0l-2.58.92a1.82,1.82,0,0,1-2.33-1.1l-1.85-5.17a1.82,1.82,0,0,0-2.33-1.1l-3.16,1.13A1.82,1.82,0,0,0,94,998.6l6.36,17.8a1.82,1.82,0,0,0,1.36,1.17l11.14,2.21a1.82,1.82,0,0,0,1-.07h0a1.82,1.82,0,0,0,.79-.56l7.22-8.77a1.82,1.82,0,0,0,.31-1.77l-6.36-17.8a1.82,1.82,0,0,0-2.33-1.1l-3.16,1.13A1.82,1.82,0,0,0,109.15,993.16Z" style="fill:#f79514"/><path d="M165.77,972.92l6.36,17.8a1.82,1.82,0,0,0,1.36,1.17l11.14,2.21a1.82,1.82,0,0,0,1.76-.63l7.22-8.77a1.82,1.82,0,0,0,.31-1.77l-6.36-17.8a1.82,1.82,0,0,0-2.33-1.1l-3.16,1.13a1.82,1.82,0,0,0-1.1,2.33l1.85,5.17a1.82,1.82,0,0,1-1.1,2.33l-5.17,1.85a1.82,1.82,0,0,1-2.33-1.1l-1.85-5.17a1.82,1.82,0,0,0-2.33-1.1l-3.16,1.13A1.82,1.82,0,0,0,165.77,972.92Z" style="fill:#f79514"/><path d="M201.67,960.09l6.36,17.8a1.82,1.82,0,0,0,1.36,1.17l11.14,2.21a1.82,1.82,0,0,0,1.76-.63l7.22-8.77a1.82,1.82,0,0,0,.31-1.77l-6.36-17.8a1.82,1.82,0,0,0-2.33-1.1L218,952.32a1.82,1.82,0,0,0-1.1,2.33l1.85,5.17a1.82,1.82,0,0,1-1.1,2.33L212.45,964a1.82,1.82,0,0,1-2.33-1.1l-1.85-5.17a1.82,1.82,0,0,0-2.33-1.1l-3.16,1.13A1.82,1.82,0,0,0,201.67,960.09Z" style="fill:#f79514"/><path d="M237.58,947.25l6.36,17.8a1.82,1.82,0,0,0,1.36,1.17l11.14,2.21a1.82,1.82,0,0,0,1.76-.63l7.22-8.77a1.82,1.82,0,0,0,.31-1.77l-6.36-17.8a1.82,1.82,0,0,0-2.33-1.1l-3.16,1.13a1.82,1.82,0,0,0-1.1,2.33l1.85,5.17a1.82,1.82,0,0,1-1.1,2.33l-5.17,1.85a1.82,1.82,0,0,1-2.33-1.1l-1.85-5.17a1.82,1.82,0,0,0-2.33-1.1l-3.16,1.13A1.82,1.82,0,0,0,237.58,947.25Z" style="fill:#f79514"/><path d="M301.34,946.2a1.82,1.82,0,0,0,.31-1.77l-6.36-17.8a1.82,1.82,0,0,0-2.33-1.1l-3.16,1.13a1.82,1.82,0,0,0-1.1,2.33l1.85,5.17a1.82,1.82,0,0,1-1.1,2.33l-5.17,1.85a1.82,1.82,0,0,1-2.33-1.1l-1.85-5.17a1.82,1.82,0,0,0-2.33-1.1l-3.16,1.13a1.82,1.82,0,0,0-1.1,2.33l6.36,17.8a1.82,1.82,0,0,0,1.36,1.17l11.14,2.21a1.82,1.82,0,0,0,1.76-.63Z" style="fill:#f79514"/><path d="M337.24,933.37a1.82,1.82,0,0,0,.31-1.77l-6.36-17.8a1.82,1.82,0,0,0-2.33-1.1l-3.16,1.13a1.82,1.82,0,0,0-1.1,2.33l1.85,5.17a1.82,1.82,0,0,1-1.1,2.33l-5.17,1.85a1.82,1.82,0,0,1-2.33-1.1L316,919.23a1.82,1.82,0,0,0-2.33-1.1l-3.16,1.13a1.82,1.82,0,0,0-1.1,2.33l6.36,17.8a1.82,1.82,0,0,0,1.36,1.17l11.14,2.21a1.82,1.82,0,0,0,1.76-.63Z" style="fill:#f79514"/><path d="M345.3,908.75l6.36,17.8a1.82,1.82,0,0,0,1.36,1.17l11.14,2.21a1.82,1.82,0,0,0,1-.07l-6.48-18.12-2.58.92a1.82,1.82,0,0,1-2.33-1.1l-1.85-5.17a1.82,1.82,0,0,0-2.33-1.1l-3.16,1.13A1.82,1.82,0,0,0,345.3,908.75Z" style="fill:#f79514"/><polygon points="126.23 1054.49 139.78 1039.72 162.07 1041.39 176.02 1026.76 197.53 1028.71 212.26 1013.8 232.98 1016.03 247.93 1001.42 267.75 1003.61 268.07 1003.32 268.44 1003.36 278.93 993.41 285.13 987.76 306.64 989.71 321.38 974.8 342.1 977.03 357.62 961.85 377.47 964.35 368.86 940.27 349.54 937.84 333.84 953.2 312.89 950.95 297.98 966.02 276.23 964.05 260.02 979.31 240.43 976.84 240.05 977.21 239.57 977.15 224.44 992.17 203.77 989.95 188.87 1005.02 167.12 1003.05 153.01 1017.84 130.46 1016.15 117.55 1030.21 117.52 1030.12 98.2 1027.69 82.5 1043.05 61.54 1040.8 46.64 1055.87 24.89 1053.9 8.68 1069.16 -10.91 1066.69 -11.29 1067.06 -11.77 1067 -26.9 1082.02 -47.57 1079.8 -62.47 1094.87 -84.23 1092.9 -98.33 1107.69 -120.89 1106 -133.79 1120.06 -125.11 1144.34 -111.56 1129.57 -89.27 1131.24 -75.32 1116.61 -53.82 1118.56 -39.08 1103.65 -18.36 1105.88 -3.42 1091.27 16.4 1093.47 16.73 1093.17 17.1 1093.21 27.59 1083.27 33.79 1077.61 55.3 1079.56 70.03 1064.65 90.75 1066.88 106.28 1051.7 126.12 1054.2 126.23 1054.49" style="fill:#f79514"/><path d="M396.69,1059.29l1.85,5.17a1.82,1.82,0,0,0,2.33,1.1l3.16-1.13a1.82,1.82,0,0,0,1.1-2.33l-6.36-17.8a1.82,1.82,0,0,0-1.36-1.17l-11.14-2.21a1.82,1.82,0,0,0-1.76.63l-7.22,8.77a1.82,1.82,0,0,0-.31,1.77l6.36,17.8a1.82,1.82,0,0,0,2.33,1.1l3.16-1.13a1.82,1.82,0,0,0,1.1-2.33l-1.85-5.17a1.82,1.82,0,0,1,1.1-2.33l5.17-1.85A1.82,1.82,0,0,1,396.69,1059.29Z" style="fill:#f79514"/><path d="M369.23,1074.93l-6.36-17.8a1.82,1.82,0,0,0-1.36-1.17l-11.14-2.21a1.82,1.82,0,0,0-1.76.63l-7.22,8.77a1.82,1.82,0,0,0-.31,1.77l6.36,17.8a1.82,1.82,0,0,0,2.33,1.1l3.16-1.13a1.82,1.82,0,0,0,1.1-2.33l-1.85-5.17a1.82,1.82,0,0,1,1.1-2.33l5.17-1.85a1.82,1.82,0,0,1,2.33,1.1l1.85,5.17a1.82,1.82,0,0,0,2.33,1.1l3.16-1.13A1.82,1.82,0,0,0,369.23,1074.93Z" style="fill:#f79514"/><path d="M333.32,1087.77,327,1070a1.82,1.82,0,0,0-1.36-1.17l-11.14-2.21a1.82,1.82,0,0,0-1.76.63l-7.22,8.77a1.82,1.82,0,0,0-.31,1.77l6.36,17.8a1.82,1.82,0,0,0,2.33,1.1l3.16-1.13a1.82,1.82,0,0,0,1.1-2.33l-1.85-5.17a1.82,1.82,0,0,1,1.1-2.33l5.17-1.85a1.82,1.82,0,0,1,2.33,1.1l1.85,5.17a1.82,1.82,0,0,0,2.33,1.1l3.16-1.13A1.82,1.82,0,0,0,333.32,1087.77Z" style="fill:#f79514"/><path d="M297.42,1100.6l-6.36-17.8a1.82,1.82,0,0,0-1.36-1.17l-11.14-2.21a1.82,1.82,0,0,0-1.76.63l-7.22,8.77a1.82,1.82,0,0,0-.31,1.77l6.36,17.8a1.82,1.82,0,0,0,2.33,1.1l3.16-1.13a1.82,1.82,0,0,0,1.1-2.33l-1.85-5.17a1.82,1.82,0,0,1,1.1-2.33l5.17-1.85a1.82,1.82,0,0,1,2.33,1.1l1.85,5.17a1.82,1.82,0,0,0,2.33,1.1l3.16-1.13A1.82,1.82,0,0,0,297.42,1100.6Z" style="fill:#f79514"/><path d="M253.07,1110.63l1.85,5.17a1.82,1.82,0,0,0,2.33,1.1l3.16-1.13a1.82,1.82,0,0,0,1.1-2.33l-6.36-17.8a1.82,1.82,0,0,0-1.36-1.17l-11.14-2.21a1.82,1.82,0,0,0-1.76.63l-7.22,8.77a1.82,1.82,0,0,0-.31,1.77l6.36,17.8a1.82,1.82,0,0,0,2.33,1.1l3.16-1.13a1.82,1.82,0,0,0,1.1-2.33l-1.85-5.17a1.82,1.82,0,0,1,1.1-2.33l5.17-1.85A1.82,1.82,0,0,1,253.07,1110.63Z" style="fill:#f79514"/><path d="M197.76,1114.49a1.82,1.82,0,0,0-.31,1.77l6.36,17.8a1.82,1.82,0,0,0,2.33,1.1l3.16-1.13a1.82,1.82,0,0,0,1.1-2.33l-1.85-5.17a1.82,1.82,0,0,1,1.1-2.33l5.17-1.85a1.82,1.82,0,0,1,2.33,1.1l1.85,5.17a1.82,1.82,0,0,0,2.33,1.1l3.16-1.13a1.82,1.82,0,0,0,1.1-2.33l-6.36-17.8a1.82,1.82,0,0,0-1.36-1.17l-11.14-2.21a1.82,1.82,0,0,0-1.76.63Z" style="fill:#f79514"/><path d="M161.85,1127.33a1.82,1.82,0,0,0-.31,1.77l6.36,17.8a1.82,1.82,0,0,0,2.33,1.1l3.16-1.13a1.82,1.82,0,0,0,1.1-2.33l-1.85-5.17a1.82,1.82,0,0,1,1.1-2.33l5.17-1.85a1.82,1.82,0,0,1,2.33,1.1l1.85,5.17a1.82,1.82,0,0,0,2.33,1.1l3.16-1.13a1.82,1.82,0,0,0,1.1-2.33l-6.36-17.8a1.82,1.82,0,0,0-1.36-1.17l-11.14-2.21a1.82,1.82,0,0,0-1.76.63Z" style="fill:#f79514"/><polygon points="310.56 1055.69 331.23 1057.91 346.13 1042.84 367.88 1044.81 381.99 1030.02 401.46 1031.48 393.06 1007.97 372.93 1006.47 358.98 1021.1 337.47 1019.15 322.74 1034.05 302.01 1031.82 287.07 1046.44 267.25 1044.24 266.93 1044.54 266.56 1044.5 256.06 1054.44 249.87 1060.1 228.36 1058.15 213.62 1073.06 192.9 1070.83 177.38 1086.01 157.44 1083.5 141.88 1098.26 141.72 1097.83 121.59 1096.32 107.64 1110.95 86.13 1109 71.39 1123.9 50.67 1121.67 35.73 1136.29 15.91 1134.09 15.58 1134.39 15.21 1134.35 4.72 1144.3 -1.48 1149.95 -22.98 1148 -37.72 1162.91 -58.44 1160.68 -73.96 1175.86 -93.9 1173.35 -109.47 1188.11 -101.07 1211.59 -86.04 1197.33 -65.88 1199.87 -50.18 1184.51 -29.23 1186.76 -14.32 1171.69 7.43 1173.66 23.64 1158.4 43.23 1160.87 43.61 1160.5 44.09 1160.56 59.22 1145.54 79.89 1147.76 94.79 1132.69 116.54 1134.66 130.65 1119.87 150.12 1121.33 150.27 1121.74 165.3 1107.48 185.46 1110.02 201.16 1094.66 222.11 1096.91 237.02 1081.84 258.77 1083.81 274.98 1068.55 294.57 1071.02 294.95 1070.65 295.43 1070.71 310.56 1055.69" style="fill:#f79514"/><polygon points="138.41 1088.58 151.97 1073.81 174.25 1075.47 188.21 1060.85 209.71 1062.8 224.45 1047.89 245.17 1050.12 260.11 1035.51 279.93 1037.7 280.26 1037.4 280.63 1037.45 291.12 1027.5 297.32 1021.85 318.82 1023.79 333.56 1008.89 354.28 1011.12 369.81 995.94 389.65 998.43 381.05 974.36 361.73 971.93 346.02 987.29 325.07 985.03 310.17 1000.11 288.41 998.14 272.2 1013.39 252.61 1010.93 252.24 1011.3 251.75 1011.24 236.63 1026.26 215.96 1024.03 201.05 1039.11 179.3 1037.14 165.19 1051.92 142.64 1050.24 129.73 1064.3 129.7 1064.21 110.39 1061.78 94.68 1077.14 73.73 1074.88 58.83 1089.96 37.07 1087.99 20.86 1103.25 1.27 1100.78 0.89 1101.15 0.41 1101.09 -14.72 1116.11 -35.38 1113.89 -50.29 1128.96 -72.04 1126.99 -86.15 1141.77 -108.7 1140.09 -121.61 1154.15 -112.93 1178.43 -99.37 1163.66 -77.09 1165.33 -63.13 1150.7 -41.63 1152.65 -26.89 1137.74 -6.17 1139.97 8.77 1125.36 28.59 1127.55 28.92 1127.25 29.29 1127.3 39.78 1117.35 45.98 1111.7 67.48 1113.65 82.22 1098.74 102.94 1100.97 118.46 1085.79 138.31 1088.29 138.41 1088.58" style="fill:#f79514"/><path d="M409,907.6a1.82,1.82,0,0,0,.31-1.77L403,888a1.82,1.82,0,0,0-2.33-1.1l-3.16,1.13a1.82,1.82,0,0,0-1.1,2.33l1.85,5.17a1.82,1.82,0,0,1-1.1,2.33l-5.17,1.85a1.82,1.82,0,0,1-2.33-1.1l-1.85-5.17a1.82,1.82,0,0,0-2.33-1.1l-3.16,1.13a1.82,1.82,0,0,0-1.1,2.33l6.36,17.8a1.82,1.82,0,0,0,1.36,1.17L400,917a1.82,1.82,0,0,0,1.76-.63Z" style="fill:#f79514"/><path d="M373.12,920.44a1.82,1.82,0,0,0,.31-1.77l-6.36-17.8a1.82,1.82,0,0,0-2.33-1.1l-3.16,1.13a1.82,1.82,0,0,0-1.1,2.33l1.85,5.17a1.82,1.82,0,0,1-1.1,2.33l-2.58.92,6.48,18.12a1.82,1.82,0,0,0,.79-.56Z" style="fill:#f79514"/><path d="M444.93,894.77a1.82,1.82,0,0,0,.31-1.77l-6.36-17.8a1.82,1.82,0,0,0-2.33-1.1l-3.16,1.13a1.82,1.82,0,0,0-1.1,2.33l1.85,5.17A1.82,1.82,0,0,1,433,885l-5.17,1.85a1.82,1.82,0,0,1-2.33-1.1l-1.85-5.17a1.82,1.82,0,0,0-2.33-1.1l-3.16,1.13a1.82,1.82,0,0,0-1.1,2.33l6.36,17.8a1.82,1.82,0,0,0,1.36,1.17l11.14,2.21a1.82,1.82,0,0,0,1.76-.63Z" style="fill:#f79514"/><path d="M480.83,881.93a1.82,1.82,0,0,0,.31-1.77l-6.36-17.8a1.82,1.82,0,0,0-2.33-1.1l-3.16,1.13a1.82,1.82,0,0,0-1.1,2.33l1.85,5.17a1.82,1.82,0,0,1-1.1,2.33l-5.17,1.85a1.82,1.82,0,0,1-2.33-1.1l-1.85-5.17a1.82,1.82,0,0,0-2.33-1.1l-3.16,1.13a1.82,1.82,0,0,0-1.1,2.33l6.36,17.8a1.82,1.82,0,0,0,1.36,1.17l11.14,2.21a1.82,1.82,0,0,0,1.76-.63Z" style="fill:#f79514"/><path d="M516.74,869.09a1.82,1.82,0,0,0,.31-1.77l-6.36-17.8a1.82,1.82,0,0,0-2.33-1.1l-3.16,1.13a1.82,1.82,0,0,0-1.1,2.33l1.85,5.17a1.82,1.82,0,0,1-1.1,2.33l-5.17,1.85a1.82,1.82,0,0,1-2.33-1.1L495.49,855a1.82,1.82,0,0,0-2.33-1.1L490,855a1.82,1.82,0,0,0-1.1,2.33l6.36,17.8a1.82,1.82,0,0,0,1.36,1.17l11.14,2.21a1.82,1.82,0,0,0,1.76-.63Z" style="fill:#f79514"/><path d="M552.65,856.26a1.82,1.82,0,0,0,.31-1.77l-6.36-17.8a1.82,1.82,0,0,0-2.33-1.1l-3.16,1.13A1.82,1.82,0,0,0,540,839l1.85,5.17a1.82,1.82,0,0,1-1.1,2.33l-5.17,1.85a1.82,1.82,0,0,1-2.33-1.1l-1.85-5.17a1.82,1.82,0,0,0-2.33-1.1l-3.16,1.13a1.82,1.82,0,0,0-1.1,2.33l6.36,17.8a1.82,1.82,0,0,0,1.36,1.17l11.14,2.21a1.82,1.82,0,0,0,1.76-.63Z" style="fill:#f79514"/><path d="M588.55,843.43a1.82,1.82,0,0,0,.31-1.77l-6.36-17.8a1.82,1.82,0,0,0-2.33-1.1L577,823.88a1.82,1.82,0,0,0-1.1,2.33l1.85,5.17a1.82,1.82,0,0,1-1.1,2.33l-5.17,1.85a1.82,1.82,0,0,1-2.33-1.1l-1.85-5.17a1.82,1.82,0,0,0-2.33-1.1l-3.16,1.13a1.82,1.82,0,0,0-1.1,2.33l6.36,17.8a1.82,1.82,0,0,0,1.36,1.17l11.14,2.21a1.82,1.82,0,0,0,1.76-.63Z" style="fill:#f79514"/><path d="M656.45,972.16l-6.36-17.8a1.82,1.82,0,0,0-1.36-1.17L637.58,951a1.82,1.82,0,0,0-1.76.63l-7.22,8.77a1.82,1.82,0,0,0-.31,1.77l6.36,17.8a1.82,1.82,0,0,0,2.33,1.1l3.16-1.13a1.82,1.82,0,0,0,1.1-2.33l-1.85-5.17a1.82,1.82,0,0,1,1.1-2.33l5.17-1.85a1.82,1.82,0,0,1,2.33,1.1l1.85,5.17a1.82,1.82,0,0,0,2.33,1.1l3.16-1.13A1.82,1.82,0,0,0,656.45,972.16Z" style="fill:#f79514"/><path d="M620.54,985l-6.36-17.8a1.82,1.82,0,0,0-1.36-1.17l-11.14-2.21a1.82,1.82,0,0,0-1.76.63l-7.22,8.77a1.82,1.82,0,0,0-.31,1.77l6.36,17.8a1.82,1.82,0,0,0,2.33,1.1l3.16-1.13a1.82,1.82,0,0,0,1.1-2.33l-1.85-5.17a1.82,1.82,0,0,1,1.1-2.33l5.17-1.85a1.82,1.82,0,0,1,2.33,1.1l1.85,5.17a1.82,1.82,0,0,0,2.33,1.1l3.16-1.13A1.82,1.82,0,0,0,620.54,985Z" style="fill:#f79514"/><path d="M584.64,997.83,578.27,980a1.82,1.82,0,0,0-1.36-1.17l-11.14-2.21a1.82,1.82,0,0,0-1.76.63L556.79,986a1.82,1.82,0,0,0-.31,1.77l6.36,17.8a1.82,1.82,0,0,0,2.33,1.1l3.16-1.13a1.82,1.82,0,0,0,1.1-2.33l-1.85-5.17a1.82,1.82,0,0,1,1.1-2.33l5.17-1.85a1.82,1.82,0,0,1,2.33,1.1l1.85,5.17a1.82,1.82,0,0,0,2.33,1.1l3.16-1.13A1.82,1.82,0,0,0,584.64,997.83Z" style="fill:#f79514"/><path d="M548.73,1010.66l-6.36-17.8a1.82,1.82,0,0,0-1.36-1.17l-11.14-2.21a1.82,1.82,0,0,0-1.76.63l-7.22,8.77a1.82,1.82,0,0,0-.31,1.77l6.36,17.8a1.82,1.82,0,0,0,2.33,1.1l3.16-1.13a1.82,1.82,0,0,0,1.1-2.33l-1.85-5.17a1.82,1.82,0,0,1,1.1-2.33l5.17-1.85a1.82,1.82,0,0,1,2.33,1.1l1.85,5.17a1.82,1.82,0,0,0,2.33,1.1l3.16-1.13A1.82,1.82,0,0,0,548.73,1010.66Z" style="fill:#f79514"/><path d="M512.82,1023.5l-6.36-17.8a1.82,1.82,0,0,0-1.36-1.17L494,1002.31a1.82,1.82,0,0,0-1.76.63l-7.22,8.77a1.82,1.82,0,0,0-.31,1.77l6.36,17.8a1.82,1.82,0,0,0,2.33,1.1l3.16-1.13a1.82,1.82,0,0,0,1.1-2.33l-1.85-5.17a1.82,1.82,0,0,1,1.1-2.33l5.17-1.85a1.82,1.82,0,0,1,2.33,1.1l1.85,5.17a1.82,1.82,0,0,0,2.33,1.1l3.16-1.13A1.82,1.82,0,0,0,512.82,1023.5Z" style="fill:#f79514"/><path d="M476.92,1036.33l-6.36-17.8a1.82,1.82,0,0,0-1.36-1.17L458,1015.15a1.82,1.82,0,0,0-1.76.63l-7.22,8.77a1.82,1.82,0,0,0-.31,1.77l6.36,17.8a1.82,1.82,0,0,0,2.33,1.1l3.16-1.13a1.82,1.82,0,0,0,1.1-2.33l-1.85-5.17a1.82,1.82,0,0,1,1.1-2.33l5.17-1.85a1.82,1.82,0,0,1,2.33,1.1l1.85,5.17a1.82,1.82,0,0,0,2.33,1.1l3.16-1.13A1.82,1.82,0,0,0,476.92,1036.33Z" style="fill:#f79514"/><path d="M441,1049.17l-6.36-17.8a1.82,1.82,0,0,0-1.36-1.17L422.14,1028a1.82,1.82,0,0,0-1.76.63l-7.22,8.77a1.82,1.82,0,0,0-.31,1.77l6.36,17.8a1.82,1.82,0,0,0,2.33,1.1l3.16-1.13a1.82,1.82,0,0,0,1.1-2.33l-1.85-5.17a1.82,1.82,0,0,1,1.1-2.33l5.17-1.85a1.82,1.82,0,0,1,2.33,1.1l1.85,5.17a1.82,1.82,0,0,0,2.33,1.1l3.16-1.13A1.82,1.82,0,0,0,441,1049.17Z" style="fill:#f79514"/><path d="M632.52,806l6.36,17.8a1.82,1.82,0,0,0,1.36,1.17l11.14,2.21a1.82,1.82,0,0,0,1.76-.63l7.22-8.77a1.82,1.82,0,0,0,.31-1.77l-6.36-17.8a1.82,1.82,0,0,0-2.33-1.1l-3.16,1.13a1.82,1.82,0,0,0-1.1,2.33l1.85,5.17a1.82,1.82,0,0,1-1.1,2.33l-5.17,1.85a1.82,1.82,0,0,1-2.33-1.1l-1.85-5.17a1.82,1.82,0,0,0-2.33-1.1l-3.16,1.13A1.82,1.82,0,0,0,632.52,806Z" style="fill:#f79514"/><path d="M611.81,813.37l1.85,5.17a1.82,1.82,0,0,1-1.1,2.33l-2.58.92h0l-2.58.92a1.82,1.82,0,0,1-2.33-1.1l-1.85-5.17a1.82,1.82,0,0,0-2.33-1.1l-3.16,1.13a1.82,1.82,0,0,0-1.1,2.33l6.36,17.8a1.82,1.82,0,0,0,1.36,1.17L615.48,840a1.82,1.82,0,0,0,1-.07h0a1.82,1.82,0,0,0,.79-.56l7.22-8.77a1.82,1.82,0,0,0,.31-1.77L618.4,811a1.82,1.82,0,0,0-2.33-1.1L612.91,811A1.82,1.82,0,0,0,611.81,813.37Z" style="fill:#f79514"/><path d="M668.42,793.13l6.36,17.8a1.82,1.82,0,0,0,1.36,1.17l11.14,2.21a1.82,1.82,0,0,0,1.76-.63l7.22-8.77a1.82,1.82,0,0,0,.31-1.77l-6.36-17.8a1.82,1.82,0,0,0-2.33-1.1l-3.16,1.13a1.82,1.82,0,0,0-1.1,2.33l1.85,5.17a1.82,1.82,0,0,1-1.1,2.33L679.2,797a1.82,1.82,0,0,1-2.33-1.1L675,790.78a1.82,1.82,0,0,0-2.33-1.1l-3.16,1.13A1.82,1.82,0,0,0,668.42,793.13Z" style="fill:#f79514"/><path d="M704.33,780.3l6.36,17.8a1.82,1.82,0,0,0,1.36,1.17l11.14,2.21a1.82,1.82,0,0,0,1.76-.63l7.22-8.77a1.82,1.82,0,0,0,.31-1.77l-6.36-17.8a1.82,1.82,0,0,0-2.33-1.1l-3.16,1.13a1.82,1.82,0,0,0-1.1,2.33l1.85,5.17a1.82,1.82,0,0,1-1.1,2.33l-5.17,1.85a1.82,1.82,0,0,1-2.33-1.1l-1.85-5.17a1.82,1.82,0,0,0-2.33-1.1L705.43,778A1.82,1.82,0,0,0,704.33,780.3Z" style="fill:#f79514"/><path d="M740.23,767.46l6.36,17.8a1.82,1.82,0,0,0,1.36,1.17l11.14,2.21a1.82,1.82,0,0,0,1.76-.63l7.22-8.77a1.82,1.82,0,0,0,.31-1.77L762,759.67a1.82,1.82,0,0,0-2.33-1.1l-3.16,1.13a1.82,1.82,0,0,0-1.1,2.33l1.85,5.17a1.82,1.82,0,0,1-1.1,2.33L751,771.37a1.82,1.82,0,0,1-2.33-1.1l-1.85-5.17a1.82,1.82,0,0,0-2.33-1.1l-3.16,1.13A1.82,1.82,0,0,0,740.23,767.46Z" style="fill:#f79514"/><path d="M804,766.41a1.82,1.82,0,0,0,.31-1.77l-6.36-17.8a1.82,1.82,0,0,0-2.33-1.1l-3.16,1.13a1.82,1.82,0,0,0-1.1,2.33l1.85,5.17a1.82,1.82,0,0,1-1.1,2.33l-5.17,1.85a1.82,1.82,0,0,1-2.33-1.1l-1.85-5.17a1.82,1.82,0,0,0-2.33-1.1l-3.16,1.13a1.82,1.82,0,0,0-1.1,2.33l6.36,17.8a1.82,1.82,0,0,0,1.36,1.17L795,775.81a1.82,1.82,0,0,0,1.76-.63Z" style="fill:#f79514"/><path d="M839.9,753.58a1.82,1.82,0,0,0,.31-1.77L833.84,734a1.82,1.82,0,0,0-2.33-1.1L828.35,734a1.82,1.82,0,0,0-1.1,2.33l1.85,5.17a1.82,1.82,0,0,1-1.1,2.33l-5.17,1.85a1.82,1.82,0,0,1-2.33-1.1l-1.85-5.17a1.82,1.82,0,0,0-2.33-1.1l-3.16,1.13a1.82,1.82,0,0,0-1.1,2.33l6.36,17.8a1.82,1.82,0,0,0,1.36,1.17L830.92,763a1.82,1.82,0,0,0,1.76-.63Z" style="fill:#f79514"/><path d="M848,729l6.36,17.8a1.82,1.82,0,0,0,1.36,1.17l11.14,2.21a1.82,1.82,0,0,0,1-.07l-6.48-18.12-2.58.92a1.82,1.82,0,0,1-2.33-1.1l-1.85-5.17a1.82,1.82,0,0,0-2.33-1.1l-3.16,1.13A1.82,1.82,0,0,0,848,729Z" style="fill:#f79514"/><polygon points="628.88 874.7 642.43 859.93 664.72 861.6 678.67 846.97 700.18 848.92 714.92 834.01 735.64 836.24 750.58 821.63 770.4 823.82 770.73 823.52 771.1 823.57 781.59 813.62 787.79 807.97 809.29 809.92 824.03 795.01 844.75 797.24 860.27 782.06 880.12 784.56 871.51 760.48 852.19 758.05 836.49 773.41 815.54 771.15 800.63 786.23 778.88 784.26 762.67 799.52 743.08 797.05 742.7 797.42 742.22 797.36 727.09 812.38 706.42 810.16 691.52 825.23 669.77 823.26 655.66 838.04 633.11 836.36 620.2 850.42 620.17 850.33 600.85 847.9 585.15 863.26 564.2 861 549.29 876.08 527.54 874.11 511.33 889.37 491.74 886.9 491.36 887.27 490.88 887.21 475.75 902.23 455.08 900.01 440.18 915.08 418.43 913.11 404.32 927.9 381.76 926.21 368.86 940.27 377.54 964.55 391.09 949.78 413.38 951.45 427.33 936.82 448.84 938.77 463.57 923.86 484.3 926.09 499.24 911.48 519.06 913.67 519.38 913.38 519.75 913.42 530.24 903.47 536.45 897.82 557.95 899.77 572.69 884.86 593.41 887.09 608.93 871.91 628.78 874.41 628.88 874.7" style="fill:#f79514"/><path d="M899.35,879.5l1.85,5.17a1.82,1.82,0,0,0,2.33,1.1l3.16-1.13a1.82,1.82,0,0,0,1.1-2.33l-6.36-17.8a1.82,1.82,0,0,0-1.36-1.17l-11.14-2.21a1.82,1.82,0,0,0-1.76.63l-7.22,8.77a1.82,1.82,0,0,0-.31,1.77L886,890.1a1.82,1.82,0,0,0,2.33,1.1l3.16-1.13a1.82,1.82,0,0,0,1.1-2.33l-1.85-5.17a1.82,1.82,0,0,1,1.1-2.33l5.17-1.85A1.82,1.82,0,0,1,899.35,879.5Z" style="fill:#f79514"/><path d="M871.88,895.14l-6.36-17.8a1.82,1.82,0,0,0-1.36-1.17L853,874a1.82,1.82,0,0,0-1.76.63L844,883.36a1.82,1.82,0,0,0-.31,1.77l6.36,17.8a1.82,1.82,0,0,0,2.33,1.1l3.16-1.13a1.82,1.82,0,0,0,1.1-2.33l-1.85-5.17a1.82,1.82,0,0,1,1.1-2.33l5.17-1.85a1.82,1.82,0,0,1,2.33,1.1l1.85,5.17a1.82,1.82,0,0,0,2.33,1.1l3.16-1.13A1.82,1.82,0,0,0,871.88,895.14Z" style="fill:#f79514"/><path d="M836,908l-6.36-17.8a1.82,1.82,0,0,0-1.36-1.17l-11.14-2.21a1.82,1.82,0,0,0-1.76.63l-7.22,8.77a1.82,1.82,0,0,0-.31,1.77l6.36,17.8a1.82,1.82,0,0,0,2.33,1.1l3.16-1.13a1.82,1.82,0,0,0,1.1-2.33l-1.85-5.17a1.82,1.82,0,0,1,1.1-2.33l5.17-1.85a1.82,1.82,0,0,1,2.33,1.1l1.85,5.17a1.82,1.82,0,0,0,2.33,1.1l3.16-1.13A1.82,1.82,0,0,0,836,908Z" style="fill:#f79514"/><path d="M800.07,920.81,793.71,903a1.82,1.82,0,0,0-1.36-1.17l-11.14-2.21a1.82,1.82,0,0,0-1.76.63L772.22,909a1.82,1.82,0,0,0-.31,1.77l6.36,17.8a1.82,1.82,0,0,0,2.33,1.1l3.16-1.13a1.82,1.82,0,0,0,1.1-2.33L783,921.08a1.82,1.82,0,0,1,1.1-2.33l5.17-1.85a1.82,1.82,0,0,1,2.33,1.1l1.85,5.17a1.82,1.82,0,0,0,2.33,1.1l3.16-1.13A1.82,1.82,0,0,0,800.07,920.81Z" style="fill:#f79514"/><path d="M755.72,930.84l1.85,5.17a1.82,1.82,0,0,0,2.33,1.1l3.16-1.13a1.82,1.82,0,0,0,1.1-2.33l-6.36-17.8a1.82,1.82,0,0,0-1.36-1.17l-11.14-2.21a1.82,1.82,0,0,0-1.76.63l-7.22,8.77a1.82,1.82,0,0,0-.31,1.77l6.36,17.8a1.82,1.82,0,0,0,2.33,1.1l3.16-1.13a1.82,1.82,0,0,0,1.1-2.33l-1.85-5.17a1.82,1.82,0,0,1,1.1-2.33l5.17-1.85A1.82,1.82,0,0,1,755.72,930.84Z" style="fill:#f79514"/><path d="M700.41,934.7a1.82,1.82,0,0,0-.31,1.77l6.36,17.8a1.82,1.82,0,0,0,2.33,1.1l3.16-1.13a1.82,1.82,0,0,0,1.1-2.33l-1.85-5.17a1.82,1.82,0,0,1,1.1-2.33l5.17-1.85a1.82,1.82,0,0,1,2.33,1.1l1.85,5.17a1.82,1.82,0,0,0,2.33,1.1l3.16-1.13a1.82,1.82,0,0,0,1.1-2.33l-6.36-17.8a1.82,1.82,0,0,0-1.36-1.17l-11.14-2.21a1.82,1.82,0,0,0-1.76.63Z" style="fill:#f79514"/><path d="M664.5,947.53a1.82,1.82,0,0,0-.31,1.77l6.36,17.8a1.82,1.82,0,0,0,2.33,1.1l3.16-1.13a1.82,1.82,0,0,0,1.1-2.33l-1.85-5.17a1.82,1.82,0,0,1,1.1-2.33l5.17-1.85a1.82,1.82,0,0,1,2.33,1.1l1.85,5.17a1.82,1.82,0,0,0,2.33,1.1l3.16-1.13a1.82,1.82,0,0,0,1.1-2.33L686,941.52a1.82,1.82,0,0,0-1.36-1.17l-11.14-2.21a1.82,1.82,0,0,0-1.76.63Z" style="fill:#f79514"/><polygon points="813.21 875.9 833.88 878.12 848.78 863.05 870.54 865.02 884.64 850.23 904.12 851.69 895.71 828.18 875.58 826.68 861.63 841.3 840.13 839.36 825.39 854.26 804.67 852.03 789.73 866.65 769.91 864.45 769.58 864.75 769.21 864.71 758.72 874.65 752.52 880.31 731.01 878.36 716.27 893.26 695.55 891.03 680.03 906.22 660.1 903.71 644.53 918.47 644.37 918.03 624.24 916.53 610.29 931.15 588.78 929.21 574.05 944.11 553.33 941.88 538.38 956.5 518.57 954.3 518.24 954.6 517.87 954.56 507.38 964.5 501.18 970.16 479.67 968.21 464.93 983.12 444.21 980.89 428.69 996.07 408.75 993.56 393.19 1008.32 401.58 1031.8 416.62 1017.54 436.77 1020.08 452.47 1004.72 473.42 1006.97 488.33 991.9 510.08 993.87 526.29 978.61 545.88 981.08 546.26 980.71 546.74 980.77 561.87 965.75 582.54 967.97 597.44 952.9 619.2 954.87 633.3 940.08 652.77 941.54 652.92 941.95 667.96 927.69 688.11 930.23 703.81 914.87 724.77 917.12 739.67 902.05 761.42 904.02 777.63 888.76 797.22 891.23 797.6 890.86 798.08 890.92 813.21 875.9" style="fill:#f79514"/><polygon points="641.07 908.79 654.62 894.02 676.91 895.68 690.86 881.06 712.36 883 727.1 868.1 747.82 870.33 762.76 855.71 782.58 857.91 782.91 857.61 783.28 857.66 793.77 847.71 799.97 842.06 821.48 844 836.22 829.1 856.94 831.33 872.46 816.14 892.3 818.64 883.7 794.57 864.38 792.14 848.68 807.5 827.72 805.24 812.82 820.32 791.07 818.35 774.86 833.61 755.27 831.14 754.89 831.51 754.41 831.45 739.28 846.47 718.61 844.24 703.71 859.32 681.95 857.35 667.85 872.13 645.29 870.45 632.39 884.51 632.36 884.42 613.04 881.99 597.34 897.35 576.38 895.09 561.48 910.17 539.73 908.2 523.52 923.46 503.92 920.99 503.55 921.36 503.06 921.3 487.94 936.32 467.27 934.1 452.36 949.17 430.61 947.2 416.51 961.98 393.95 960.3 381.05 974.36 389.72 998.64 403.28 983.87 425.56 985.54 439.52 970.91 461.02 972.86 475.76 957.95 496.48 960.18 511.42 945.57 531.24 947.76 531.57 947.46 531.94 947.51 542.43 937.56 548.63 931.91 570.13 933.86 584.87 918.95 605.59 921.18 621.12 906 640.96 908.5 641.07 908.79" style="fill:#f79514"/><path d="M911.67,727.81A1.82,1.82,0,0,0,912,726l-6.36-17.8a1.82,1.82,0,0,0-2.33-1.1l-3.16,1.13a1.82,1.82,0,0,0-1.1,2.33l1.85,5.17a1.82,1.82,0,0,1-1.1,2.33l-5.17,1.85a1.82,1.82,0,0,1-2.33-1.1l-1.85-5.17a1.82,1.82,0,0,0-2.33-1.1l-3.16,1.13a1.82,1.82,0,0,0-1.1,2.33l6.36,17.8a1.82,1.82,0,0,0,1.36,1.17l11.14,2.21a1.82,1.82,0,0,0,1.76-.63Z" style="fill:#f79514"/><path d="M875.77,740.65a1.82,1.82,0,0,0,.31-1.77l-6.36-17.8a1.82,1.82,0,0,0-2.33-1.1l-3.16,1.13a1.82,1.82,0,0,0-1.1,2.33L865,728.6a1.82,1.82,0,0,1-1.1,2.33l-2.58.92L867.76,750a1.82,1.82,0,0,0,.79-.56Z" style="fill:#f79514"/><path d="M947.58,715a1.82,1.82,0,0,0,.31-1.77l-6.36-17.8a1.82,1.82,0,0,0-2.33-1.1L936,695.43a1.82,1.82,0,0,0-1.1,2.33l1.85,5.17a1.82,1.82,0,0,1-1.1,2.33l-5.17,1.85a1.82,1.82,0,0,1-2.33-1.1l-1.85-5.17a1.82,1.82,0,0,0-2.33-1.1l-3.16,1.13a1.82,1.82,0,0,0-1.1,2.33L926.1,721a1.82,1.82,0,0,0,1.36,1.17l11.14,2.21a1.82,1.82,0,0,0,1.76-.63Z" style="fill:#f79514"/><path d="M983.49,702.14a1.82,1.82,0,0,0,.31-1.77l-6.36-17.8a1.82,1.82,0,0,0-2.33-1.1l-3.16,1.13a1.82,1.82,0,0,0-1.1,2.33l1.85,5.17a1.82,1.82,0,0,1-1.1,2.33l-5.17,1.85a1.82,1.82,0,0,1-2.33-1.1L962.23,688a1.82,1.82,0,0,0-2.33-1.1L956.74,688a1.82,1.82,0,0,0-1.1,2.33l6.36,17.8a1.82,1.82,0,0,0,1.36,1.17l11.14,2.21a1.82,1.82,0,0,0,1.76-.63Z" style="fill:#f79514"/><path d="M1019.39,689.3a1.82,1.82,0,0,0,.31-1.77l-6.36-17.8a1.82,1.82,0,0,0-2.33-1.1l-3.16,1.13a1.82,1.82,0,0,0-1.1,2.33l1.85,5.17a1.82,1.82,0,0,1-1.1,2.33l-5.17,1.85a1.82,1.82,0,0,1-2.33-1.1l-1.85-5.17a1.82,1.82,0,0,0-2.33-1.1l-3.16,1.13a1.82,1.82,0,0,0-1.1,2.33l6.36,17.8a1.82,1.82,0,0,0,1.36,1.17l11.14,2.21a1.82,1.82,0,0,0,1.76-.63Z" style="fill:#f79514"/><path d="M1055.3,676.47a1.82,1.82,0,0,0,.31-1.77l-6.36-17.8a1.82,1.82,0,0,0-2.33-1.1l-3.16,1.13a1.82,1.82,0,0,0-1.1,2.33l1.85,5.17a1.82,1.82,0,0,1-1.1,2.33l-5.17,1.85a1.82,1.82,0,0,1-2.33-1.1l-1.85-5.17a1.82,1.82,0,0,0-2.33-1.1l-3.16,1.13a1.82,1.82,0,0,0-1.1,2.33l6.36,17.8a1.82,1.82,0,0,0,1.36,1.17l11.14,2.21a1.82,1.82,0,0,0,1.76-.63Z" style="fill:#f79514"/><path d="M1091.21,663.64a1.82,1.82,0,0,0,.31-1.77l-6.36-17.8a1.82,1.82,0,0,0-2.33-1.1l-3.16,1.13a1.82,1.82,0,0,0-1.1,2.33l1.85,5.17a1.82,1.82,0,0,1-1.1,2.33l-5.17,1.85a1.82,1.82,0,0,1-2.33-1.1L1070,649.5a1.82,1.82,0,0,0-2.33-1.1l-3.16,1.13a1.82,1.82,0,0,0-1.1,2.33l6.36,17.8a1.82,1.82,0,0,0,1.36,1.17l11.14,2.21a1.82,1.82,0,0,0,1.76-.63Z" style="fill:#f79514"/><path d="M1087.29,818l-6.36-17.8a1.82,1.82,0,0,0-1.36-1.17l-11.14-2.21a1.82,1.82,0,0,0-1.76.63l-7.22,8.77a1.82,1.82,0,0,0-.31,1.77l6.36,17.8a1.82,1.82,0,0,0,2.33,1.1l3.16-1.13a1.82,1.82,0,0,0,1.1-2.33l-1.85-5.17a1.82,1.82,0,0,1,1.1-2.33l5.17-1.85a1.82,1.82,0,0,1,2.33,1.1l1.85,5.17a1.82,1.82,0,0,0,2.33,1.1l3.16-1.13A1.82,1.82,0,0,0,1087.29,818Z" style="fill:#f79514"/><path d="M1051.38,830.87l-6.36-17.8a1.82,1.82,0,0,0-1.36-1.17l-11.14-2.21a1.82,1.82,0,0,0-1.76.63l-7.22,8.77a1.82,1.82,0,0,0-.31,1.77l6.36,17.8a1.82,1.82,0,0,0,2.33,1.1l3.16-1.13a1.82,1.82,0,0,0,1.1-2.33l-1.85-5.17a1.82,1.82,0,0,1,1.1-2.33l5.17-1.85a1.82,1.82,0,0,1,2.33,1.1l1.85,5.17a1.82,1.82,0,0,0,2.33,1.1l3.16-1.13A1.82,1.82,0,0,0,1051.38,830.87Z" style="fill:#f79514"/><path d="M1015.47,843.7l-6.36-17.8a1.82,1.82,0,0,0-1.36-1.17l-11.14-2.21a1.82,1.82,0,0,0-1.76.63l-7.22,8.77a1.82,1.82,0,0,0-.31,1.77l6.36,17.8a1.82,1.82,0,0,0,2.33,1.1l3.16-1.13a1.82,1.82,0,0,0,1.1-2.33L998.43,844a1.82,1.82,0,0,1,1.1-2.33l5.17-1.85a1.82,1.82,0,0,1,2.33,1.1l1.85,5.17a1.82,1.82,0,0,0,2.33,1.1l3.16-1.13A1.82,1.82,0,0,0,1015.47,843.7Z" style="fill:#f79514"/><path d="M979.57,856.54l-6.36-17.8a1.82,1.82,0,0,0-1.36-1.17l-11.14-2.21a1.82,1.82,0,0,0-1.76.63l-7.22,8.77a1.82,1.82,0,0,0-.31,1.77l6.36,17.8a1.82,1.82,0,0,0,2.33,1.1l3.16-1.13a1.82,1.82,0,0,0,1.1-2.33l-1.85-5.17a1.82,1.82,0,0,1,1.1-2.33l5.17-1.85a1.82,1.82,0,0,1,2.33,1.1L973,858.9a1.82,1.82,0,0,0,2.33,1.1l3.16-1.13A1.82,1.82,0,0,0,979.57,856.54Z" style="fill:#f79514"/><path d="M943.66,869.38l-6.36-17.8a1.82,1.82,0,0,0-1.36-1.17l-11.14-2.21a1.82,1.82,0,0,0-1.76.63l-7.22,8.77a1.82,1.82,0,0,0-.31,1.77l6.36,17.8a1.82,1.82,0,0,0,2.33,1.1l3.16-1.13a1.82,1.82,0,0,0,1.1-2.33l-1.85-5.17a1.82,1.82,0,0,1,1.1-2.33l5.17-1.85a1.82,1.82,0,0,1,2.33,1.1l1.85,5.17a1.82,1.82,0,0,0,2.33,1.1l3.16-1.13A1.82,1.82,0,0,0,943.66,869.38Z" style="fill:#f79514"/><polygon points="1131.53 694.91 1145.09 680.14 1167.37 681.81 1181.33 667.18 1202.83 669.13 1217.57 654.22 1238.29 656.45 1253.23 641.84 1273.05 644.03 1273.38 643.73 1273.75 643.78 1284.24 633.83 1290.44 628.18 1311.94 630.13 1326.68 615.22 1347.4 617.45 1362.92 602.27 1382.77 604.77 1374.16 580.69 1354.85 578.26 1339.14 593.62 1318.19 591.36 1303.29 606.44 1281.53 604.47 1265.33 619.73 1245.73 617.26 1245.36 617.63 1244.87 617.57 1229.74 632.59 1209.08 630.37 1194.17 645.44 1172.42 643.47 1158.32 658.25 1135.76 656.57 1122.85 670.63 1122.82 670.54 1103.51 668.11 1087.8 683.47 1066.85 681.22 1051.94 696.29 1030.19 694.32 1013.98 709.58 994.39 707.11 994.01 707.48 993.53 707.42 978.4 722.44 957.74 720.22 942.83 735.29 921.08 733.32 906.97 748.11 884.42 746.42 871.51 760.48 880.19 784.76 893.75 769.99 916.03 771.66 929.98 757.03 951.49 758.98 966.23 744.07 986.95 746.3 1001.89 731.69 1021.71 733.88 1022.04 733.58 1022.41 733.63 1032.9 723.68 1039.1 718.03 1060.6 719.98 1075.34 705.07 1096.06 707.3 1111.58 692.12 1131.43 694.62 1131.53 694.91" style="fill:#f79514"/><polygon points="1315.87 696.11 1336.53 698.33 1351.44 683.25 1373.19 685.23 1387.3 670.44 1406.77 671.89 1398.37 648.39 1378.24 646.89 1364.28 661.51 1342.78 659.57 1328.04 674.47 1307.32 672.24 1292.38 686.86 1272.56 684.66 1272.23 684.96 1271.86 684.91 1261.37 694.86 1255.17 700.51 1233.67 698.57 1218.93 713.47 1198.21 711.24 1182.69 726.43 1162.75 723.92 1147.18 738.68 1147.03 738.24 1126.89 736.74 1112.94 751.36 1091.44 749.42 1076.7 764.32 1055.98 762.09 1041.04 776.71 1021.22 774.51 1020.89 774.81 1020.52 774.76 1010.03 784.71 1003.83 790.37 982.32 788.42 967.59 803.32 946.87 801.1 931.34 816.28 911.41 813.77 895.84 828.53 904.23 852.01 919.27 837.75 939.42 840.29 955.12 824.93 976.08 827.18 990.98 812.11 1012.73 814.08 1028.94 798.82 1048.54 801.29 1048.91 800.92 1049.39 800.98 1064.52 785.96 1085.19 788.18 1100.1 773.11 1121.85 775.08 1135.95 760.29 1155.43 761.75 1155.57 762.16 1170.61 747.9 1190.76 750.44 1206.47 735.08 1227.42 737.33 1242.32 722.26 1264.08 724.23 1280.29 708.97 1299.88 711.43 1300.26 711.06 1300.74 711.13 1315.87 696.11" style="fill:#f79514"/><polygon points="1143.72 729 1157.27 714.23 1179.56 715.89 1193.51 701.27 1215.02 703.21 1229.75 688.31 1250.47 690.54 1265.42 675.92 1285.24 678.12 1285.57 677.82 1285.93 677.87 1296.42 667.92 1302.63 662.27 1324.13 664.21 1338.87 649.31 1359.59 651.54 1375.11 636.35 1394.96 638.85 1386.35 614.78 1367.03 612.35 1351.33 627.71 1330.38 625.45 1315.47 640.52 1293.72 638.55 1277.51 653.81 1257.92 651.35 1257.54 651.72 1257.06 651.65 1241.93 666.68 1221.26 664.45 1206.36 679.53 1184.61 677.56 1170.5 692.34 1147.95 690.66 1135.04 704.72 1135.01 704.63 1115.69 702.2 1099.99 717.56 1079.04 715.3 1064.13 730.38 1042.38 728.41 1026.17 743.66 1006.58 741.2 1006.2 741.57 1005.72 741.5 990.59 756.53 969.92 754.3 955.02 769.38 933.26 767.41 919.16 782.19 896.6 780.51 883.7 794.57 892.38 818.85 905.93 804.08 928.22 805.75 942.17 791.12 963.67 793.07 978.41 778.16 999.13 780.39 1014.07 765.77 1033.89 767.97 1034.22 767.67 1034.59 767.72 1045.08 757.77 1051.28 752.12 1072.79 754.06 1087.53 739.16 1108.25 741.39 1123.77 726.21 1143.62 728.71 1143.72 729" style="fill:#f79514"/><path d="M-1.05,393l6.36,17.8A1.82,1.82,0,0,0,6.67,412l11.14,2.21a1.82,1.82,0,0,0,1.76-.63l7.22-8.77A1.82,1.82,0,0,0,27.1,403l-6.36-17.8a1.82,1.82,0,0,0-2.33-1.1l-3.16,1.13a1.82,1.82,0,0,0-1.1,2.33L16,392.73a1.82,1.82,0,0,1-1.1,2.33L9.72,396.9a1.82,1.82,0,0,1-2.33-1.1l-1.85-5.17a1.82,1.82,0,0,0-2.33-1.1L0,390.66A1.82,1.82,0,0,0-1.05,393Z" style="fill:#f79514"/><path d="M34.85,380.16,41.21,398a1.82,1.82,0,0,0,1.36,1.17l11.14,2.21a1.82,1.82,0,0,0,1.76-.63l7.22-8.77a1.82,1.82,0,0,0,.31-1.77l-6.36-17.8a1.82,1.82,0,0,0-2.33-1.1l-3.16,1.13a1.82,1.82,0,0,0-1.1,2.33l1.85,5.17a1.82,1.82,0,0,1-1.1,2.33l-5.17,1.85A1.82,1.82,0,0,1,43.3,383l-1.85-5.17a1.82,1.82,0,0,0-2.33-1.1L36,377.83A1.82,1.82,0,0,0,34.85,380.16Z" style="fill:#f79514"/><path d="M98.61,379.11a1.82,1.82,0,0,0,.31-1.77l-6.36-17.8a1.82,1.82,0,0,0-2.33-1.1l-3.16,1.13a1.82,1.82,0,0,0-1.1,2.33l1.85,5.17a1.82,1.82,0,0,1-1.1,2.33l-5.17,1.85a1.82,1.82,0,0,1-2.33-1.1L77.36,365a1.82,1.82,0,0,0-2.33-1.1L71.86,365a1.82,1.82,0,0,0-1.1,2.33l6.36,17.8a1.82,1.82,0,0,0,1.36,1.17l11.14,2.21a1.82,1.82,0,0,0,1.76-.63Z" style="fill:#f79514"/><path d="M134.51,366.27a1.82,1.82,0,0,0,.31-1.77l-6.36-17.8a1.82,1.82,0,0,0-2.33-1.1L123,346.72a1.82,1.82,0,0,0-1.1,2.33l1.85,5.17a1.82,1.82,0,0,1-1.1,2.33l-5.17,1.85a1.82,1.82,0,0,1-2.33-1.1l-1.85-5.17a1.82,1.82,0,0,0-2.33-1.1l-3.16,1.13a1.82,1.82,0,0,0-1.1,2.33l6.36,17.8a1.82,1.82,0,0,0,1.36,1.17l11.14,2.21a1.82,1.82,0,0,0,1.76-.63Z" style="fill:#f79514"/><path d="M142.57,341.65l6.36,17.8a1.82,1.82,0,0,0,1.36,1.17l11.14,2.21a1.82,1.82,0,0,0,1-.07l-6.48-18.12-2.58.92a1.82,1.82,0,0,1-2.33-1.1l-1.85-5.17a1.82,1.82,0,0,0-2.33-1.1l-3.16,1.13A1.82,1.82,0,0,0,142.57,341.65Z" style="fill:#f79514"/><polygon points="-76.5 487.39 -62.95 472.63 -40.66 474.29 -26.71 459.67 -5.2 461.61 9.53 446.71 30.25 448.94 45.2 434.32 65.02 436.52 65.34 436.22 65.71 436.26 76.2 426.32 82.41 420.66 103.91 422.61 118.65 407.71 139.37 409.94 154.89 394.75 174.74 397.25 166.13 373.18 146.81 370.74 131.11 386.1 110.16 383.85 95.25 398.92 73.5 396.95 57.29 412.21 37.7 409.75 37.32 410.12 36.84 410.05 21.71 425.07 1.04 422.85 -13.86 437.92 -35.62 435.95 -49.72 450.74 -72.27 449.05 -85.18 463.12 -85.21 463.03 -104.53 460.59 -120.23 475.95 -141.19 473.7 -156.09 488.77 -177.84 486.8 -194.05 502.06 -213.64 499.6 -214.02 499.97 -214.5 499.9 -229.63 514.93 -250.3 512.7 -265.2 527.77 -286.96 525.8 -301.06 540.59 -323.62 538.9 -336.52 552.97 -327.84 577.25 -314.29 562.48 -292 564.14 -278.05 549.52 -256.55 551.46 -241.81 536.56 -221.09 538.79 -206.15 524.17 -186.33 526.37 -186 526.07 -185.63 526.12 -175.14 516.17 -168.94 510.51 -147.43 512.46 -132.69 497.56 -111.97 499.79 -96.45 484.6 -76.61 487.1 -76.5 487.39" style="fill:#f79514"/><path d="M194,492.19l1.85,5.17a1.82,1.82,0,0,0,2.33,1.1l3.16-1.13a1.82,1.82,0,0,0,1.1-2.33L196,477.2a1.82,1.82,0,0,0-1.36-1.17l-11.14-2.21a1.82,1.82,0,0,0-1.76.63l-7.22,8.77a1.82,1.82,0,0,0-.31,1.77l6.36,17.8a1.82,1.82,0,0,0,2.33,1.1l3.16-1.13a1.82,1.82,0,0,0,1.1-2.33l-1.85-5.17a1.82,1.82,0,0,1,1.1-2.33l5.17-1.85A1.82,1.82,0,0,1,194,492.19Z" style="fill:#f79514"/><path d="M166.5,507.84,160.14,490a1.82,1.82,0,0,0-1.36-1.17l-11.14-2.21a1.82,1.82,0,0,0-1.76.63l-7.22,8.77a1.82,1.82,0,0,0-.31,1.77l6.36,17.8a1.82,1.82,0,0,0,2.33,1.1l3.16-1.13a1.82,1.82,0,0,0,1.1-2.33l-1.85-5.17a1.82,1.82,0,0,1,1.1-2.33l5.17-1.85a1.82,1.82,0,0,1,2.33,1.1l1.85,5.17a1.82,1.82,0,0,0,2.33,1.1l3.16-1.13A1.82,1.82,0,0,0,166.5,507.84Z" style="fill:#f79514"/><path d="M130.6,520.67l-6.36-17.8a1.82,1.82,0,0,0-1.36-1.17l-11.14-2.21a1.82,1.82,0,0,0-1.76.63l-7.22,8.77a1.82,1.82,0,0,0-.31,1.77l6.36,17.8a1.82,1.82,0,0,0,2.33,1.1l3.16-1.13a1.82,1.82,0,0,0,1.1-2.33l-1.85-5.17a1.82,1.82,0,0,1,1.1-2.33l5.17-1.85a1.82,1.82,0,0,1,2.33,1.1L124,523a1.82,1.82,0,0,0,2.33,1.1l3.16-1.13A1.82,1.82,0,0,0,130.6,520.67Z" style="fill:#f79514"/><path d="M94.69,533.51l-6.36-17.8A1.82,1.82,0,0,0,87,514.53l-11.14-2.21a1.82,1.82,0,0,0-1.76.63l-7.22,8.77a1.82,1.82,0,0,0-.31,1.77l6.36,17.8a1.82,1.82,0,0,0,2.33,1.1l3.16-1.13a1.82,1.82,0,0,0,1.1-2.33l-1.85-5.17a1.82,1.82,0,0,1,1.1-2.33l5.17-1.85a1.82,1.82,0,0,1,2.33,1.1l1.85,5.17a1.82,1.82,0,0,0,2.33,1.1l3.16-1.13A1.82,1.82,0,0,0,94.69,533.51Z" style="fill:#f79514"/><path d="M50.34,543.53l1.85,5.17a1.82,1.82,0,0,0,2.33,1.1l3.16-1.13a1.82,1.82,0,0,0,1.1-2.33l-6.36-17.8a1.82,1.82,0,0,0-1.36-1.17l-11.14-2.21a1.82,1.82,0,0,0-1.76.63l-7.22,8.77a1.82,1.82,0,0,0-.31,1.77L37,554.13a1.82,1.82,0,0,0,2.33,1.1l3.16-1.13a1.82,1.82,0,0,0,1.1-2.33l-1.85-5.17a1.82,1.82,0,0,1,1.1-2.33L48,542.43A1.82,1.82,0,0,1,50.34,543.53Z" style="fill:#f79514"/><path d="M-5,547.39a1.82,1.82,0,0,0-.31,1.77L1.08,567a1.82,1.82,0,0,0,2.33,1.1l3.16-1.13a1.82,1.82,0,0,0,1.1-2.33l-1.85-5.17a1.82,1.82,0,0,1,1.1-2.33l5.17-1.85a1.82,1.82,0,0,1,2.33,1.1l1.85,5.17a1.82,1.82,0,0,0,2.33,1.1l3.16-1.13a1.82,1.82,0,0,0,1.1-2.33l-6.36-17.8a1.82,1.82,0,0,0-1.36-1.17L4,538a1.82,1.82,0,0,0-1.76.63Z" style="fill:#f79514"/><polygon points="107.83 488.59 128.5 490.81 143.4 475.74 165.16 477.71 179.26 462.93 198.73 464.38 190.33 440.88 170.2 439.37 156.25 454 134.75 452.05 120.01 466.96 99.29 464.73 84.34 479.34 64.53 477.15 64.2 477.45 63.83 477.4 53.34 487.35 47.14 493 25.63 491.05 10.89 505.96 -9.83 503.73 -25.35 518.91 -45.29 516.4 -60.85 531.16 -61.01 530.73 -81.14 529.23 -95.09 543.85 -116.6 541.9 -131.34 556.81 -152.06 554.58 -167 569.2 -186.82 567 -187.15 567.3 -187.51 567.25 -198.01 577.2 -204.21 582.85 -225.71 580.91 -240.45 595.81 -261.17 593.58 -276.69 608.76 -296.63 606.25 -312.2 621.01 -303.8 644.49 -288.77 630.24 -268.61 632.77 -252.91 617.41 -231.96 619.67 -217.05 604.59 -195.3 606.56 -179.09 591.3 -159.5 593.77 -159.12 593.4 -158.64 593.46 -143.51 578.44 -122.84 580.66 -107.94 565.59 -86.19 567.56 -72.08 552.78 -52.61 554.23 -52.46 554.64 -37.42 540.38 -17.27 542.92 -1.57 527.56 19.38 529.82 34.29 514.74 56.04 516.71 72.25 501.45 91.84 503.92 92.22 503.55 92.7 503.61 107.83 488.59" style="fill:#f79514"/><polygon points="-64.31 521.48 -50.76 506.71 -28.48 508.38 -14.52 493.75 6.98 495.7 21.72 480.8 42.44 483.02 57.38 468.41 77.2 470.61 77.53 470.31 77.9 470.35 88.39 460.4 94.59 454.75 116.1 456.7 130.83 441.79 151.55 444.02 167.08 428.84 186.92 431.34 178.32 407.26 159 404.83 143.29 420.19 122.34 417.94 107.44 433.01 85.69 431.04 69.48 446.3 49.88 443.83 49.51 444.2 49.02 444.14 33.9 459.16 13.23 456.94 -1.68 472.01 -23.43 470.04 -37.53 484.83 -60.09 483.14 -73 497.2 -73.03 497.12 -92.34 494.68 -108.05 510.04 -129 507.79 -143.9 522.86 -165.66 520.89 -181.87 536.15 -201.46 533.68 -201.84 534.05 -202.32 533.99 -217.45 549.01 -238.11 546.79 -253.02 561.86 -274.77 559.89 -288.88 574.68 -311.43 572.99 -324.34 587.05 -315.66 611.33 -302.1 596.57 -279.82 598.23 -265.87 583.61 -244.36 585.55 -229.62 570.65 -208.9 572.88 -193.96 558.26 -174.14 560.46 -173.81 560.16 -173.44 560.2 -162.95 550.26 -156.75 544.6 -135.25 546.55 -120.51 531.64 -99.79 533.87 -84.27 518.69 -64.42 521.19 -64.31 521.48" style="fill:#f79514"/><path d="M206.29,340.51a1.82,1.82,0,0,0,.31-1.77l-6.36-17.8a1.82,1.82,0,0,0-2.33-1.1L194.75,321a1.82,1.82,0,0,0-1.1,2.33l1.85,5.17a1.82,1.82,0,0,1-1.1,2.33l-5.17,1.85a1.82,1.82,0,0,1-2.33-1.1L185,326.37a1.82,1.82,0,0,0-2.33-1.1l-3.16,1.13a1.82,1.82,0,0,0-1.1,2.33l6.36,17.8a1.82,1.82,0,0,0,1.36,1.17l11.14,2.21a1.82,1.82,0,0,0,1.76-.63Z" style="fill:#f79514"/><path d="M170.39,353.34a1.82,1.82,0,0,0,.31-1.77l-6.36-17.8a1.82,1.82,0,0,0-2.33-1.1l-3.16,1.13a1.82,1.82,0,0,0-1.1,2.33l1.85,5.17a1.82,1.82,0,0,1-1.1,2.33l-2.58.92,6.48,18.12a1.82,1.82,0,0,0,.79-.56Z" style="fill:#f79514"/><path d="M242.2,327.67a1.82,1.82,0,0,0,.31-1.77l-6.36-17.8a1.82,1.82,0,0,0-2.33-1.1l-3.16,1.13a1.82,1.82,0,0,0-1.1,2.33l1.85,5.17a1.82,1.82,0,0,1-1.1,2.33l-5.17,1.85a1.82,1.82,0,0,1-2.33-1.1l-1.85-5.17a1.82,1.82,0,0,0-2.33-1.1l-3.16,1.13a1.82,1.82,0,0,0-1.1,2.33l6.36,17.8a1.82,1.82,0,0,0,1.36,1.17l11.14,2.21a1.82,1.82,0,0,0,1.76-.63Z" style="fill:#f79514"/><path d="M278.11,314.83a1.82,1.82,0,0,0,.31-1.77l-6.36-17.8a1.82,1.82,0,0,0-2.33-1.1l-3.16,1.13a1.82,1.82,0,0,0-1.1,2.33l1.85,5.17a1.82,1.82,0,0,1-1.1,2.33L261,307a1.82,1.82,0,0,1-2.33-1.1l-1.85-5.17a1.82,1.82,0,0,0-2.33-1.1l-3.16,1.13a1.82,1.82,0,0,0-1.1,2.33l6.36,17.8A1.82,1.82,0,0,0,258,322l11.14,2.21a1.82,1.82,0,0,0,1.76-.63Z" style="fill:#f79514"/><path d="M314,302a1.82,1.82,0,0,0,.31-1.77L308,282.43a1.82,1.82,0,0,0-2.33-1.1l-3.16,1.13a1.82,1.82,0,0,0-1.1,2.33l1.85,5.17a1.82,1.82,0,0,1-1.1,2.33l-5.17,1.85a1.82,1.82,0,0,1-2.33-1.1l-1.85-5.17a1.82,1.82,0,0,0-2.33-1.1l-3.16,1.13a1.82,1.82,0,0,0-1.1,2.33l6.36,17.8a1.82,1.82,0,0,0,1.36,1.17L305,311.4a1.82,1.82,0,0,0,1.76-.63Z" style="fill:#f79514"/><path d="M349.92,289.17a1.82,1.82,0,0,0,.31-1.77l-6.36-17.8a1.82,1.82,0,0,0-2.33-1.1l-3.16,1.13a1.82,1.82,0,0,0-1.1,2.33l1.85,5.17a1.82,1.82,0,0,1-1.1,2.33l-5.17,1.85a1.82,1.82,0,0,1-2.33-1.1L328.67,275a1.82,1.82,0,0,0-2.33-1.1l-3.16,1.13a1.82,1.82,0,0,0-1.1,2.33l6.36,17.8a1.82,1.82,0,0,0,1.36,1.17l11.14,2.21a1.82,1.82,0,0,0,1.76-.63Z" style="fill:#f79514"/><path d="M385.82,276.33a1.82,1.82,0,0,0,.31-1.77l-6.36-17.8a1.82,1.82,0,0,0-2.33-1.1l-3.16,1.13a1.82,1.82,0,0,0-1.1,2.33l1.85,5.17a1.82,1.82,0,0,1-1.1,2.33l-5.17,1.85a1.82,1.82,0,0,1-2.33-1.1l-1.85-5.17a1.82,1.82,0,0,0-2.33-1.1l-3.16,1.13a1.82,1.82,0,0,0-1.1,2.33l6.36,17.8a1.82,1.82,0,0,0,1.36,1.17l11.14,2.21a1.82,1.82,0,0,0,1.76-.63Z" style="fill:#f79514"/><path d="M453.72,405.06l-6.36-17.8a1.82,1.82,0,0,0-1.36-1.17l-11.14-2.21a1.82,1.82,0,0,0-1.76.63l-7.22,8.77a1.82,1.82,0,0,0-.31,1.77l6.36,17.8a1.82,1.82,0,0,0,2.33,1.1l3.16-1.13a1.82,1.82,0,0,0,1.1-2.33l-1.85-5.17a1.82,1.82,0,0,1,1.1-2.33l5.17-1.85a1.82,1.82,0,0,1,2.33,1.1l1.85,5.17a1.82,1.82,0,0,0,2.33,1.1l3.16-1.13A1.82,1.82,0,0,0,453.72,405.06Z" style="fill:#f79514"/><path d="M417.81,417.9l-6.36-17.8a1.82,1.82,0,0,0-1.36-1.17l-11.14-2.21a1.82,1.82,0,0,0-1.76.63L390,406.12a1.82,1.82,0,0,0-.31,1.77l6.36,17.8a1.82,1.82,0,0,0,2.33,1.1l3.16-1.13a1.82,1.82,0,0,0,1.1-2.33l-1.85-5.17a1.82,1.82,0,0,1,1.1-2.33L407,414a1.82,1.82,0,0,1,2.33,1.1l1.85,5.17a1.82,1.82,0,0,0,2.33,1.1l3.16-1.13A1.82,1.82,0,0,0,417.81,417.9Z" style="fill:#f79514"/><path d="M381.91,430.73l-6.36-17.8a1.82,1.82,0,0,0-1.36-1.17L363,409.55a1.82,1.82,0,0,0-1.76.63L354.06,419a1.82,1.82,0,0,0-.31,1.77l6.36,17.8a1.82,1.82,0,0,0,2.33,1.1l3.16-1.13a1.82,1.82,0,0,0,1.1-2.33L364.86,431a1.82,1.82,0,0,1,1.1-2.33l5.17-1.85a1.82,1.82,0,0,1,2.33,1.1l1.85,5.17a1.82,1.82,0,0,0,2.33,1.1l3.16-1.13A1.82,1.82,0,0,0,381.91,430.73Z" style="fill:#f79514"/><path d="M346,443.57l-6.36-17.8a1.82,1.82,0,0,0-1.36-1.17l-11.14-2.21a1.82,1.82,0,0,0-1.76.63l-7.22,8.77a1.82,1.82,0,0,0-.31,1.77l6.36,17.8a1.82,1.82,0,0,0,2.33,1.1l3.16-1.13a1.82,1.82,0,0,0,1.1-2.33L329,443.84a1.82,1.82,0,0,1,1.1-2.33l5.17-1.85a1.82,1.82,0,0,1,2.33,1.1l1.85,5.17a1.82,1.82,0,0,0,2.33,1.1l3.16-1.13A1.82,1.82,0,0,0,346,443.57Z" style="fill:#f79514"/><path d="M310.09,456.4l-6.36-17.8a1.82,1.82,0,0,0-1.36-1.17l-11.14-2.21a1.82,1.82,0,0,0-1.76.63l-7.22,8.77a1.82,1.82,0,0,0-.31,1.77l6.36,17.8a1.82,1.82,0,0,0,2.33,1.1l3.16-1.13a1.82,1.82,0,0,0,1.1-2.33L293,456.67a1.82,1.82,0,0,1,1.1-2.33l5.17-1.85a1.82,1.82,0,0,1,2.33,1.1l1.85,5.17a1.82,1.82,0,0,0,2.33,1.1l3.16-1.13A1.82,1.82,0,0,0,310.09,456.4Z" style="fill:#f79514"/><path d="M274.19,469.24l-6.36-17.8a1.82,1.82,0,0,0-1.36-1.17l-11.14-2.21a1.82,1.82,0,0,0-1.76.63l-7.22,8.77a1.82,1.82,0,0,0-.31,1.77l6.36,17.8a1.82,1.82,0,0,0,2.33,1.1l3.16-1.13a1.82,1.82,0,0,0,1.1-2.33l-1.85-5.17a1.82,1.82,0,0,1,1.1-2.33l5.17-1.85a1.82,1.82,0,0,1,2.33,1.1l1.85,5.17a1.82,1.82,0,0,0,2.33,1.1l3.16-1.13A1.82,1.82,0,0,0,274.19,469.24Z" style="fill:#f79514"/><path d="M238.28,482.07l-6.36-17.8a1.82,1.82,0,0,0-1.36-1.17l-11.14-2.21a1.82,1.82,0,0,0-1.76.63l-7.22,8.77a1.82,1.82,0,0,0-.31,1.77l6.36,17.8a1.82,1.82,0,0,0,2.33,1.1l3.16-1.13a1.82,1.82,0,0,0,1.1-2.33l-1.85-5.17a1.82,1.82,0,0,1,1.1-2.33l5.17-1.85a1.82,1.82,0,0,1,2.33,1.1l1.85,5.17a1.82,1.82,0,0,0,2.33,1.1l3.16-1.13A1.82,1.82,0,0,0,238.28,482.07Z" style="fill:#f79514"/><path d="M429.79,238.87l6.36,17.8a1.82,1.82,0,0,0,1.36,1.17l11.14,2.21a1.82,1.82,0,0,0,1.76-.63l7.22-8.77a1.82,1.82,0,0,0,.31-1.77l-6.36-17.8a1.82,1.82,0,0,0-2.33-1.1l-3.16,1.13a1.82,1.82,0,0,0-1.1,2.33l1.85,5.17a1.82,1.82,0,0,1-1.1,2.33l-5.17,1.85a1.82,1.82,0,0,1-2.33-1.1l-1.85-5.17a1.82,1.82,0,0,0-2.33-1.1l-3.16,1.13A1.82,1.82,0,0,0,429.79,238.87Z" style="fill:#f79514"/><path d="M409.08,246.28l1.85,5.17a1.82,1.82,0,0,1-1.1,2.33l-2.58.92h0l-2.58.92a1.82,1.82,0,0,1-2.33-1.1l-1.85-5.17a1.82,1.82,0,0,0-2.33-1.1L395,249.38a1.82,1.82,0,0,0-1.1,2.33l6.36,17.8a1.82,1.82,0,0,0,1.36,1.17l11.14,2.21a1.82,1.82,0,0,0,1-.07h0a1.82,1.82,0,0,0,.79-.56l7.22-8.77a1.82,1.82,0,0,0,.31-1.77l-6.36-17.8a1.82,1.82,0,0,0-2.33-1.1l-3.16,1.13A1.82,1.82,0,0,0,409.08,246.28Z" style="fill:#f79514"/><path d="M465.69,226l6.36,17.8a1.82,1.82,0,0,0,1.36,1.17l11.14,2.21a1.82,1.82,0,0,0,1.76-.63l7.22-8.77a1.82,1.82,0,0,0,.31-1.77l-6.36-17.8a1.82,1.82,0,0,0-2.33-1.1L482,218.27a1.82,1.82,0,0,0-1.1,2.33l1.85,5.17a1.82,1.82,0,0,1-1.1,2.33l-5.17,1.85a1.82,1.82,0,0,1-2.33-1.1l-1.85-5.17a1.82,1.82,0,0,0-2.33-1.1l-3.16,1.13A1.82,1.82,0,0,0,465.69,226Z" style="fill:#f79514"/><path d="M501.6,213.2,508,231a1.82,1.82,0,0,0,1.36,1.17l11.14,2.21a1.82,1.82,0,0,0,1.76-.63l7.22-8.77a1.82,1.82,0,0,0,.31-1.77l-6.36-17.8a1.82,1.82,0,0,0-2.33-1.1l-3.16,1.13a1.82,1.82,0,0,0-1.1,2.33l1.85,5.17a1.82,1.82,0,0,1-1.1,2.33l-5.17,1.85A1.82,1.82,0,0,1,510,216l-1.85-5.17a1.82,1.82,0,0,0-2.33-1.1l-3.16,1.13A1.82,1.82,0,0,0,501.6,213.2Z" style="fill:#f79514"/><path d="M537.5,200.37l6.36,17.8a1.82,1.82,0,0,0,1.36,1.17l11.14,2.21a1.82,1.82,0,0,0,1.76-.63l7.22-8.77a1.82,1.82,0,0,0,.31-1.77l-6.36-17.8a1.82,1.82,0,0,0-2.33-1.1l-3.16,1.13a1.82,1.82,0,0,0-1.1,2.33l1.85,5.17a1.82,1.82,0,0,1-1.1,2.33l-5.17,1.85a1.82,1.82,0,0,1-2.33-1.1L544.1,198a1.82,1.82,0,0,0-2.33-1.1L538.61,198A1.82,1.82,0,0,0,537.5,200.37Z" style="fill:#f79514"/><path d="M601.26,199.32a1.82,1.82,0,0,0,.31-1.77l-6.36-17.8a1.82,1.82,0,0,0-2.33-1.1l-3.16,1.13a1.82,1.82,0,0,0-1.1,2.33l1.85,5.17a1.82,1.82,0,0,1-1.1,2.33l-5.17,1.85a1.82,1.82,0,0,1-2.33-1.1L580,185.18a1.82,1.82,0,0,0-2.33-1.1l-3.16,1.13a1.82,1.82,0,0,0-1.1,2.33l6.36,17.8a1.82,1.82,0,0,0,1.36,1.17l11.14,2.21a1.82,1.82,0,0,0,1.76-.63Z" style="fill:#f79514"/><path d="M637.17,186.48a1.82,1.82,0,0,0,.31-1.77l-6.36-17.8a1.82,1.82,0,0,0-2.33-1.1l-3.16,1.13a1.82,1.82,0,0,0-1.1,2.33l1.85,5.17a1.82,1.82,0,0,1-1.1,2.33l-5.17,1.85a1.82,1.82,0,0,1-2.33-1.1l-1.85-5.17a1.82,1.82,0,0,0-2.33-1.1l-3.16,1.13a1.82,1.82,0,0,0-1.1,2.33l6.36,17.8a1.82,1.82,0,0,0,1.36,1.17l11.14,2.21a1.82,1.82,0,0,0,1.76-.63Z" style="fill:#f79514"/><path d="M645.22,161.86l6.36,17.8a1.82,1.82,0,0,0,1.36,1.17L664.09,183a1.82,1.82,0,0,0,1-.07l-6.48-18.12-2.58.92a1.82,1.82,0,0,1-2.33-1.1l-1.85-5.17a1.82,1.82,0,0,0-2.33-1.1l-3.16,1.13A1.82,1.82,0,0,0,645.22,161.86Z" style="fill:#f79514"/><polygon points="426.15 307.6 439.71 292.83 461.99 294.5 475.94 279.88 497.45 281.82 512.19 266.92 532.91 269.15 547.85 254.53 567.67 256.73 568 256.43 568.37 256.47 578.86 246.53 585.06 240.87 606.56 242.82 621.3 227.91 642.02 230.14 657.54 214.96 677.39 217.46 668.78 193.38 649.47 190.95 633.76 206.31 612.81 204.06 597.9 219.13 576.15 217.16 559.94 232.42 540.35 229.95 539.97 230.32 539.49 230.26 524.36 245.28 503.7 243.06 488.79 258.13 467.04 256.16 452.93 270.95 430.38 269.26 417.47 283.32 417.44 283.24 398.12 280.8 382.42 296.16 361.47 293.91 346.56 308.98 324.81 307.01 308.6 322.27 289.01 319.81 288.63 320.18 288.15 320.11 273.02 335.13 252.35 332.91 237.45 347.98 215.7 346.01 201.59 360.8 179.04 359.11 166.13 373.18 174.81 397.45 188.36 382.69 210.65 384.35 224.6 369.73 246.11 371.67 260.84 356.77 281.56 359 296.51 344.38 316.33 346.58 316.65 346.28 317.02 346.33 327.51 336.38 333.72 330.73 355.22 332.67 369.96 317.77 390.68 320 406.2 304.81 426.05 307.31 426.15 307.6" style="fill:#f79514"/><path d="M696.62,312.4l1.85,5.17a1.82,1.82,0,0,0,2.33,1.1l3.16-1.13a1.82,1.82,0,0,0,1.1-2.33l-6.36-17.8a1.82,1.82,0,0,0-1.36-1.17L686.19,294a1.82,1.82,0,0,0-1.76.63l-7.22,8.77a1.82,1.82,0,0,0-.31,1.77l6.36,17.8a1.82,1.82,0,0,0,2.33,1.1l3.16-1.13a1.82,1.82,0,0,0,1.1-2.33L688,315.48a1.82,1.82,0,0,1,1.1-2.33l5.17-1.85A1.82,1.82,0,0,1,696.62,312.4Z" style="fill:#f79514"/><path d="M669.15,328l-6.36-17.8a1.82,1.82,0,0,0-1.36-1.17l-11.14-2.21a1.82,1.82,0,0,0-1.76.63l-7.22,8.77A1.82,1.82,0,0,0,641,318l6.36,17.8a1.82,1.82,0,0,0,2.33,1.1l3.16-1.13a1.82,1.82,0,0,0,1.1-2.33l-1.85-5.17a1.82,1.82,0,0,1,1.1-2.33l5.17-1.85a1.82,1.82,0,0,1,2.33,1.1l1.85,5.17a1.82,1.82,0,0,0,2.33,1.1l3.16-1.13A1.82,1.82,0,0,0,669.15,328Z" style="fill:#f79514"/><path d="M633.25,340.88l-6.36-17.8a1.82,1.82,0,0,0-1.36-1.17l-11.14-2.21a1.82,1.82,0,0,0-1.76.63l-7.22,8.77a1.82,1.82,0,0,0-.31,1.77l6.36,17.8a1.82,1.82,0,0,0,2.33,1.1l3.16-1.13a1.82,1.82,0,0,0,1.1-2.33l-1.85-5.17a1.82,1.82,0,0,1,1.1-2.33l5.17-1.85a1.82,1.82,0,0,1,2.33,1.1l1.85,5.17a1.82,1.82,0,0,0,2.33,1.1l3.16-1.13A1.82,1.82,0,0,0,633.25,340.88Z" style="fill:#f79514"/><path d="M597.34,353.72,591,335.92a1.82,1.82,0,0,0-1.36-1.17l-11.14-2.21a1.82,1.82,0,0,0-1.76.63l-7.22,8.77a1.82,1.82,0,0,0-.31,1.77l6.36,17.8a1.82,1.82,0,0,0,2.33,1.1l3.16-1.13a1.82,1.82,0,0,0,1.1-2.33L580.3,354a1.82,1.82,0,0,1,1.1-2.33l5.17-1.85a1.82,1.82,0,0,1,2.33,1.1l1.85,5.17a1.82,1.82,0,0,0,2.33,1.1l3.16-1.13A1.82,1.82,0,0,0,597.34,353.72Z" style="fill:#f79514"/><path d="M553,363.74l1.85,5.17a1.82,1.82,0,0,0,2.33,1.1l3.16-1.13a1.82,1.82,0,0,0,1.1-2.33l-6.36-17.8a1.82,1.82,0,0,0-1.36-1.17l-11.14-2.21a1.82,1.82,0,0,0-1.76.63l-7.22,8.77a1.82,1.82,0,0,0-.31,1.77l6.36,17.8a1.82,1.82,0,0,0,2.33,1.1l3.16-1.13a1.82,1.82,0,0,0,1.1-2.33l-1.85-5.17a1.82,1.82,0,0,1,1.1-2.33l5.17-1.85A1.82,1.82,0,0,1,553,363.74Z" style="fill:#f79514"/><path d="M497.68,367.6a1.82,1.82,0,0,0-.31,1.77l6.36,17.8a1.82,1.82,0,0,0,2.33,1.1l3.16-1.13a1.82,1.82,0,0,0,1.1-2.33l-1.85-5.17a1.82,1.82,0,0,1,1.1-2.33l5.17-1.85a1.82,1.82,0,0,1,2.33,1.1l1.85,5.17a1.82,1.82,0,0,0,2.33,1.1l3.16-1.13a1.82,1.82,0,0,0,1.1-2.33l-6.36-17.8a1.82,1.82,0,0,0-1.36-1.17l-11.14-2.21a1.82,1.82,0,0,0-1.76.63Z" style="fill:#f79514"/><path d="M461.77,380.44a1.82,1.82,0,0,0-.31,1.77l6.36,17.8a1.82,1.82,0,0,0,2.33,1.1l3.16-1.13a1.82,1.82,0,0,0,1.1-2.33l-1.85-5.17a1.82,1.82,0,0,1,1.1-2.33l5.17-1.85a1.82,1.82,0,0,1,2.33,1.1l1.85,5.17a1.82,1.82,0,0,0,2.33,1.1l3.16-1.13a1.82,1.82,0,0,0,1.1-2.33l-6.36-17.8a1.82,1.82,0,0,0-1.36-1.17L470.75,371a1.82,1.82,0,0,0-1.76.63Z" style="fill:#f79514"/><polygon points="610.48 308.8 631.15 311.02 646.05 295.95 667.81 297.92 681.91 283.13 701.39 284.59 692.99 261.09 672.85 259.58 658.9 274.21 637.4 272.26 622.66 287.17 601.94 284.94 587 299.55 567.18 297.36 566.85 297.65 566.48 297.61 555.99 307.56 549.79 313.21 528.28 311.26 513.55 326.17 492.82 323.94 477.3 339.12 457.37 336.61 441.8 351.37 441.64 350.94 421.51 349.43 407.56 364.06 386.06 362.11 371.32 377.02 350.6 374.79 335.65 389.4 315.84 387.21 315.51 387.51 315.14 387.46 304.65 397.41 298.45 403.06 276.94 401.12 262.2 416.02 241.48 413.79 225.96 428.97 206.02 426.46 190.46 441.22 198.85 464.7 213.89 450.44 234.04 452.98 249.74 437.62 270.69 439.88 285.6 424.8 307.35 426.77 323.56 411.51 343.15 413.98 343.53 413.61 344.01 413.67 359.14 398.65 379.81 400.87 394.71 385.8 416.47 387.77 430.57 372.99 450.05 374.44 450.19 374.85 465.23 360.59 485.38 363.13 501.08 347.77 522.04 350.02 536.94 334.95 558.7 336.92 574.9 321.66 594.5 324.13 594.87 323.76 595.35 323.82 610.48 308.8" style="fill:#f79514"/><polygon points="438.34 341.69 451.89 326.92 474.18 328.59 488.13 313.96 509.63 315.91 524.37 301 545.09 303.23 560.03 288.62 579.85 290.81 580.18 290.51 580.55 290.56 591.04 280.61 597.24 274.96 618.75 276.91 633.49 262 654.21 264.23 669.73 249.05 689.58 251.55 680.97 227.47 661.65 225.04 645.95 240.4 625 238.15 610.09 253.22 588.34 251.25 572.13 266.51 552.54 264.04 552.16 264.41 551.68 264.35 536.55 279.37 515.88 277.15 500.98 292.22 479.22 290.25 465.12 305.04 442.56 303.35 429.66 317.41 429.63 317.32 410.31 314.89 394.61 330.25 373.65 328 358.75 343.07 337 341.1 320.79 356.36 301.19 353.89 300.82 354.26 300.34 354.2 285.21 369.22 264.54 367 249.63 382.07 227.88 380.1 213.78 394.89 191.22 393.2 178.32 407.26 187 431.54 200.55 416.77 222.84 418.44 236.79 403.81 258.29 405.76 273.03 390.86 293.75 393.08 308.69 378.47 328.51 380.67 328.84 380.37 329.21 380.41 339.7 370.47 345.9 364.81 367.41 366.76 382.14 351.85 402.87 354.08 418.39 338.9 438.23 341.4 438.34 341.69" style="fill:#f79514"/><path d="M708.95,160.72a1.82,1.82,0,0,0,.31-1.77l-6.36-17.8a1.82,1.82,0,0,0-2.33-1.1l-3.16,1.13a1.82,1.82,0,0,0-1.1,2.33l1.85,5.17A1.82,1.82,0,0,1,697,151l-5.17,1.85a1.82,1.82,0,0,1-2.33-1.1l-1.85-5.17a1.82,1.82,0,0,0-2.33-1.1l-3.16,1.13a1.82,1.82,0,0,0-1.1,2.33l6.36,17.8a1.82,1.82,0,0,0,1.36,1.17L700,170.12a1.82,1.82,0,0,0,1.76-.63Z" style="fill:#f79514"/><path d="M673,173.55a1.82,1.82,0,0,0,.31-1.77L667,154a1.82,1.82,0,0,0-2.33-1.1L661.49,154a1.82,1.82,0,0,0-1.1,2.33l1.85,5.17a1.82,1.82,0,0,1-1.1,2.33l-2.58.92L665,182.88a1.82,1.82,0,0,0,.79-.56Z" style="fill:#f79514"/><path d="M744.85,147.88a1.82,1.82,0,0,0,.31-1.77l-6.36-17.8a1.82,1.82,0,0,0-2.33-1.1l-3.16,1.13a1.82,1.82,0,0,0-1.1,2.33l1.85,5.17a1.82,1.82,0,0,1-1.1,2.33L727.78,140a1.82,1.82,0,0,1-2.33-1.1l-1.85-5.17a1.82,1.82,0,0,0-2.33-1.1l-3.16,1.13a1.82,1.82,0,0,0-1.1,2.33l6.36,17.8a1.82,1.82,0,0,0,1.36,1.17l11.14,2.21a1.82,1.82,0,0,0,1.76-.63Z" style="fill:#f79514"/><path d="M780.76,135a1.82,1.82,0,0,0,.31-1.77l-6.36-17.8a1.82,1.82,0,0,0-2.33-1.1l-3.16,1.13a1.82,1.82,0,0,0-1.1,2.33L770,123a1.82,1.82,0,0,1-1.1,2.33l-5.17,1.85a1.82,1.82,0,0,1-2.33-1.1l-1.85-5.17a1.82,1.82,0,0,0-2.33-1.1L754,120.93a1.82,1.82,0,0,0-1.1,2.33l6.36,17.8a1.82,1.82,0,0,0,1.36,1.17l11.14,2.21a1.82,1.82,0,0,0,1.76-.63Z" style="fill:#f79514"/><path d="M816.66,122.21a1.82,1.82,0,0,0,.31-1.77l-6.36-17.8a1.82,1.82,0,0,0-2.33-1.1l-3.16,1.13A1.82,1.82,0,0,0,804,105l1.85,5.17a1.82,1.82,0,0,1-1.1,2.33l-5.17,1.85a1.82,1.82,0,0,1-2.33-1.1l-1.85-5.17a1.82,1.82,0,0,0-2.33-1.1l-3.16,1.13a1.82,1.82,0,0,0-1.1,2.33l6.36,17.8a1.82,1.82,0,0,0,1.36,1.17l11.14,2.21a1.82,1.82,0,0,0,1.76-.63Z" style="fill:#f79514"/><path d="M852.57,109.38a1.82,1.82,0,0,0,.31-1.77l-6.36-17.8a1.82,1.82,0,0,0-2.33-1.1L841,89.83a1.82,1.82,0,0,0-1.1,2.33l1.85,5.17a1.82,1.82,0,0,1-1.1,2.33l-5.17,1.85a1.82,1.82,0,0,1-2.33-1.1l-1.85-5.17a1.82,1.82,0,0,0-2.33-1.1l-3.16,1.13a1.82,1.82,0,0,0-1.1,2.33l6.36,17.8a1.82,1.82,0,0,0,1.36,1.17l11.14,2.21a1.82,1.82,0,0,0,1.76-.63Z" style="fill:#f79514"/><path d="M888.48,96.54a1.82,1.82,0,0,0,.31-1.77L882.42,77a1.82,1.82,0,0,0-2.33-1.1L876.93,77a1.82,1.82,0,0,0-1.1,2.33l1.85,5.17a1.82,1.82,0,0,1-1.1,2.33l-5.17,1.85a1.82,1.82,0,0,1-2.33-1.1l-1.85-5.17a1.82,1.82,0,0,0-2.33-1.1l-3.16,1.13a1.82,1.82,0,0,0-1.1,2.33l6.36,17.8a1.82,1.82,0,0,0,1.36,1.17l11.14,2.21a1.82,1.82,0,0,0,1.76-.63Z" style="fill:#f79514"/><path d="M956.37,225.27,950,207.47a1.82,1.82,0,0,0-1.36-1.17l-11.14-2.21a1.82,1.82,0,0,0-1.76.63l-7.22,8.77a1.82,1.82,0,0,0-.31,1.77l6.36,17.8a1.82,1.82,0,0,0,2.33,1.1l3.16-1.13a1.82,1.82,0,0,0,1.1-2.33l-1.85-5.17a1.82,1.82,0,0,1,1.1-2.33l5.17-1.85a1.82,1.82,0,0,1,2.33,1.1l1.85,5.17a1.82,1.82,0,0,0,2.33,1.1l3.16-1.13A1.82,1.82,0,0,0,956.37,225.27Z" style="fill:#f79514"/><path d="M920.46,238.11l-6.36-17.8a1.82,1.82,0,0,0-1.36-1.17l-11.14-2.21a1.82,1.82,0,0,0-1.76.63l-7.22,8.77a1.82,1.82,0,0,0-.31,1.77l6.36,17.8A1.82,1.82,0,0,0,901,247l3.16-1.13a1.82,1.82,0,0,0,1.1-2.33l-1.85-5.17a1.82,1.82,0,0,1,1.1-2.33l5.17-1.85a1.82,1.82,0,0,1,2.33,1.1l1.85,5.17a1.82,1.82,0,0,0,2.33,1.1l3.16-1.13A1.82,1.82,0,0,0,920.46,238.11Z" style="fill:#f79514"/><path d="M884.56,250.94l-6.36-17.8a1.82,1.82,0,0,0-1.36-1.17l-11.14-2.21a1.82,1.82,0,0,0-1.76.63l-7.22,8.77a1.82,1.82,0,0,0-.31,1.77l6.36,17.8a1.82,1.82,0,0,0,2.33,1.1l3.16-1.13a1.82,1.82,0,0,0,1.1-2.33l-1.85-5.17a1.82,1.82,0,0,1,1.1-2.33l5.17-1.85a1.82,1.82,0,0,1,2.33,1.1L878,253.3a1.82,1.82,0,0,0,2.33,1.1l3.16-1.13A1.82,1.82,0,0,0,884.56,250.94Z" style="fill:#f79514"/><path d="M848.65,263.78,842.29,246a1.82,1.82,0,0,0-1.36-1.17l-11.14-2.21a1.82,1.82,0,0,0-1.76.63L820.8,252a1.82,1.82,0,0,0-.31,1.77l6.36,17.8a1.82,1.82,0,0,0,2.33,1.1l3.16-1.13a1.82,1.82,0,0,0,1.1-2.33L831.61,264a1.82,1.82,0,0,1,1.1-2.33l5.17-1.85a1.82,1.82,0,0,1,2.33,1.1l1.85,5.17a1.82,1.82,0,0,0,2.33,1.1l3.16-1.13A1.82,1.82,0,0,0,848.65,263.78Z" style="fill:#f79514"/><path d="M812.75,276.61l-6.36-17.8a1.82,1.82,0,0,0-1.36-1.17l-11.14-2.21a1.82,1.82,0,0,0-1.76.63l-7.22,8.77a1.82,1.82,0,0,0-.31,1.77L791,284.4a1.82,1.82,0,0,0,2.33,1.1l3.16-1.13a1.82,1.82,0,0,0,1.1-2.33l-1.85-5.17a1.82,1.82,0,0,1,1.1-2.33L802,272.7a1.82,1.82,0,0,1,2.33,1.1l1.85,5.17a1.82,1.82,0,0,0,2.33,1.1l3.16-1.13A1.82,1.82,0,0,0,812.75,276.61Z" style="fill:#f79514"/><path d="M776.84,289.44l-6.36-17.8a1.82,1.82,0,0,0-1.36-1.17L758,268.26a1.82,1.82,0,0,0-1.76.63L749,277.66a1.82,1.82,0,0,0-.31,1.77l6.36,17.8a1.82,1.82,0,0,0,2.33,1.1l3.16-1.13a1.82,1.82,0,0,0,1.1-2.33l-1.85-5.17a1.82,1.82,0,0,1,1.1-2.33l5.17-1.85a1.82,1.82,0,0,1,2.33,1.1l1.85,5.17a1.82,1.82,0,0,0,2.33,1.1l3.16-1.13A1.82,1.82,0,0,0,776.84,289.44Z" style="fill:#f79514"/><path d="M740.93,302.28l-6.36-17.8a1.82,1.82,0,0,0-1.36-1.17l-11.14-2.21a1.82,1.82,0,0,0-1.76.63l-7.22,8.77a1.82,1.82,0,0,0-.31,1.77l6.36,17.8a1.82,1.82,0,0,0,2.33,1.1l3.16-1.13a1.82,1.82,0,0,0,1.1-2.33l-1.85-5.17a1.82,1.82,0,0,1,1.1-2.33l5.17-1.85a1.82,1.82,0,0,1,2.33,1.1l1.85,5.17a1.82,1.82,0,0,0,2.33,1.1l3.16-1.13A1.82,1.82,0,0,0,740.93,302.28Z" style="fill:#f79514"/><path d="M932.44,59.08l6.36,17.8a1.82,1.82,0,0,0,1.36,1.17l11.14,2.21a1.82,1.82,0,0,0,1.76-.63l7.22-8.77a1.82,1.82,0,0,0,.31-1.77l-6.36-17.8a1.82,1.82,0,0,0-2.33-1.1l-3.16,1.13a1.82,1.82,0,0,0-1.1,2.33l1.85,5.17a1.82,1.82,0,0,1-1.1,2.33L943.21,63a1.82,1.82,0,0,1-2.33-1.1L939,56.72a1.82,1.82,0,0,0-2.33-1.1l-3.16,1.13A1.82,1.82,0,0,0,932.44,59.08Z" style="fill:#f79514"/><path d="M911.73,66.49l1.85,5.17a1.82,1.82,0,0,1-1.1,2.33l-2.58.92h0l-2.58.92a1.82,1.82,0,0,1-2.33-1.1l-1.85-5.17a1.82,1.82,0,0,0-2.33-1.1l-3.16,1.13a1.82,1.82,0,0,0-1.1,2.33l6.36,17.8a1.82,1.82,0,0,0,1.36,1.17l11.14,2.21a1.82,1.82,0,0,0,1-.07h0a1.82,1.82,0,0,0,.79-.56l7.22-8.77a1.82,1.82,0,0,0,.31-1.77l-6.36-17.8A1.82,1.82,0,0,0,916,63l-3.16,1.13A1.82,1.82,0,0,0,911.73,66.49Z" style="fill:#f79514"/><path d="M968.34,46.25,974.71,64a1.82,1.82,0,0,0,1.36,1.17l11.14,2.21A1.82,1.82,0,0,0,989,66.8L996.19,58a1.82,1.82,0,0,0,.31-1.77l-6.36-17.8a1.82,1.82,0,0,0-2.33-1.1l-3.16,1.13a1.82,1.82,0,0,0-1.1,2.33L985.39,46a1.82,1.82,0,0,1-1.1,2.33l-5.17,1.85a1.82,1.82,0,0,1-2.33-1.1l-1.85-5.17a1.82,1.82,0,0,0-2.33-1.1l-3.16,1.13A1.82,1.82,0,0,0,968.34,46.25Z" style="fill:#f79514"/><path d="M1004.25,33.41l6.36,17.8a1.82,1.82,0,0,0,1.36,1.17l11.14,2.21a1.82,1.82,0,0,0,1.76-.63l7.22-8.77a1.82,1.82,0,0,0,.31-1.77L1026,25.62a1.82,1.82,0,0,0-2.33-1.1l-3.16,1.13a1.82,1.82,0,0,0-1.1,2.33l1.85,5.17a1.82,1.82,0,0,1-1.1,2.33L1015,37.32a1.82,1.82,0,0,1-2.33-1.1l-1.85-5.17a1.82,1.82,0,0,0-2.33-1.1l-3.16,1.13A1.82,1.82,0,0,0,1004.25,33.41Z" style="fill:#f79514"/><path d="M1040.16,20.58l6.36,17.8a1.82,1.82,0,0,0,1.36,1.17L1059,41.76a1.82,1.82,0,0,0,1.76-.63l7.22-8.77a1.82,1.82,0,0,0,.31-1.77L1062,12.78a1.82,1.82,0,0,0-2.33-1.1l-3.16,1.13a1.82,1.82,0,0,0-1.1,2.33l1.85,5.17a1.82,1.82,0,0,1-1.1,2.33l-5.17,1.85a1.82,1.82,0,0,1-2.33-1.1l-1.85-5.17a1.82,1.82,0,0,0-2.33-1.1l-3.16,1.13A1.82,1.82,0,0,0,1040.16,20.58Z" style="fill:#f79514"/><path d="M1103.91,19.52a1.82,1.82,0,0,0,.31-1.77L1097.86,0a1.82,1.82,0,0,0-2.33-1.1L1092.37,0a1.82,1.82,0,0,0-1.1,2.33l1.85,5.17a1.82,1.82,0,0,1-1.1,2.33l-5.17,1.85a1.82,1.82,0,0,1-2.33-1.1l-1.85-5.17a1.82,1.82,0,0,0-2.33-1.1l-3.16,1.13a1.82,1.82,0,0,0-1.1,2.33l6.36,17.8a1.82,1.82,0,0,0,1.36,1.17l11.14,2.21a1.82,1.82,0,0,0,1.76-.63Z" style="fill:#f79514"/><polygon points="928.8 127.81 942.36 113.05 964.64 114.71 978.6 100.08 1000.1 102.03 1014.84 87.13 1035.56 89.36 1050.5 74.74 1070.32 76.94 1070.65 76.64 1071.02 76.68 1081.51 66.74 1087.71 61.08 1109.21 63.03 1123.95 48.12 1144.67 50.35 1160.19 35.17 1180.04 37.67 1171.43 13.59 1152.12 11.16 1136.41 26.52 1115.46 24.27 1100.56 39.34 1078.81 37.37 1062.6 52.63 1043 50.16 1042.63 50.53 1042.14 50.47 1027.02 65.49 1006.35 63.27 991.44 78.34 969.69 76.37 955.59 91.16 933.03 89.47 920.13 103.53 920.09 103.44 900.78 101.01 885.07 116.37 864.12 114.12 849.22 129.19 827.46 127.22 811.25 142.48 791.66 140.01 791.28 140.38 790.8 140.32 775.67 155.34 755.01 153.12 740.1 168.19 718.35 166.22 704.24 181.01 681.69 179.32 668.78 193.38 677.46 217.66 691.02 202.9 713.3 204.56 727.25 189.94 748.76 191.88 763.5 176.98 784.22 179.21 799.16 164.59 818.98 166.79 819.31 166.49 819.68 166.53 830.17 156.59 836.37 150.93 857.87 152.88 872.61 137.98 893.33 140.21 908.85 125.02 928.7 127.52 928.8 127.81" style="fill:#f79514"/><path d="M1100,173.93l-6.36-17.8a1.82,1.82,0,0,0-1.36-1.17l-11.14-2.21a1.82,1.82,0,0,0-1.76.63l-7.22,8.77a1.82,1.82,0,0,0-.31,1.77l6.36,17.8a1.82,1.82,0,0,0,2.33,1.1l3.16-1.13a1.82,1.82,0,0,0,1.1-2.33l-1.85-5.17a1.82,1.82,0,0,1,1.1-2.33l5.17-1.85a1.82,1.82,0,0,1,2.33,1.1l1.85,5.17a1.82,1.82,0,0,0,2.33,1.1l3.16-1.13A1.82,1.82,0,0,0,1100,173.93Z" style="fill:#f79514"/><path d="M1055.64,184l1.85,5.17a1.82,1.82,0,0,0,2.33,1.1l3.16-1.13a1.82,1.82,0,0,0,1.1-2.33l-6.36-17.8a1.82,1.82,0,0,0-1.36-1.17l-11.14-2.21a1.82,1.82,0,0,0-1.76.63l-7.22,8.77a1.82,1.82,0,0,0-.31,1.77l6.36,17.8a1.82,1.82,0,0,0,2.33,1.1l3.16-1.13a1.82,1.82,0,0,0,1.1-2.33L1047,187a1.82,1.82,0,0,1,1.1-2.33l5.17-1.85A1.82,1.82,0,0,1,1055.64,184Z" style="fill:#f79514"/><path d="M1000.33,187.81a1.82,1.82,0,0,0-.31,1.77l6.36,17.8a1.82,1.82,0,0,0,2.33,1.1l3.16-1.13A1.82,1.82,0,0,0,1013,205l-1.85-5.17a1.82,1.82,0,0,1,1.1-2.33l5.17-1.85a1.82,1.82,0,0,1,2.33,1.1l1.85,5.17a1.82,1.82,0,0,0,2.33,1.1l3.16-1.13a1.82,1.82,0,0,0,1.1-2.33l-6.36-17.8a1.82,1.82,0,0,0-1.36-1.17l-11.14-2.21a1.82,1.82,0,0,0-1.76.63Z" style="fill:#f79514"/><path d="M964.43,200.65a1.82,1.82,0,0,0-.31,1.77l6.36,17.8a1.82,1.82,0,0,0,2.33,1.1l3.16-1.13a1.82,1.82,0,0,0,1.1-2.33l-1.85-5.17a1.82,1.82,0,0,1,1.1-2.33l5.17-1.85a1.82,1.82,0,0,1,2.33,1.1l1.85,5.17a1.82,1.82,0,0,0,2.33,1.1l3.16-1.13a1.82,1.82,0,0,0,1.1-2.33l-6.36-17.8a1.82,1.82,0,0,0-1.36-1.17l-11.14-2.21a1.82,1.82,0,0,0-1.76.63Z" style="fill:#f79514"/><polygon points="1113.14 129.01 1133.8 131.23 1148.71 116.16 1170.46 118.13 1184.57 103.34 1204.04 104.8 1195.64 81.3 1175.51 79.79 1161.56 94.42 1140.05 92.47 1125.31 107.38 1104.59 105.15 1089.65 119.76 1069.83 117.56 1069.5 117.86 1069.13 117.82 1058.64 127.77 1052.44 133.42 1030.94 131.47 1016.2 146.38 995.48 144.15 979.96 159.33 960.02 156.82 944.45 171.58 944.3 171.15 924.16 169.64 910.21 184.27 888.71 182.32 873.97 197.23 853.25 195 838.31 209.61 818.49 207.42 818.16 207.72 817.79 207.67 807.3 217.62 801.1 223.27 779.59 221.32 764.86 236.23 744.14 234 728.61 249.18 708.68 246.67 693.11 261.43 701.5 284.91 716.54 270.65 736.69 273.19 752.39 257.83 773.35 260.09 788.25 245.01 810 246.98 826.21 231.72 845.81 234.19 846.18 233.82 846.66 233.88 861.79 218.86 882.46 221.08 897.37 206.01 919.12 207.98 933.22 193.19 952.7 194.65 952.84 195.06 967.88 180.8 988.03 183.34 1003.74 167.98 1024.69 170.23 1039.59 155.16 1061.35 157.13 1077.56 141.87 1097.15 144.34 1097.53 143.97 1098.01 144.03 1113.14 129.01" style="fill:#f79514"/><polygon points="940.99 161.9 954.54 147.13 976.83 148.8 990.78 134.17 1012.29 136.12 1027.03 121.21 1047.75 123.44 1062.69 108.83 1082.51 111.02 1082.84 110.72 1083.2 110.77 1093.7 100.82 1099.9 95.17 1121.4 97.12 1136.14 82.21 1156.86 84.44 1172.38 69.26 1192.23 71.76 1183.62 47.68 1164.3 45.25 1148.6 60.61 1127.65 58.35 1112.74 73.43 1090.99 71.46 1074.78 86.72 1055.19 84.25 1054.81 84.62 1054.33 84.56 1039.2 99.58 1018.53 97.36 1003.63 112.43 981.88 110.46 967.77 125.25 945.22 123.56 932.31 137.62 932.28 137.53 912.96 135.1 897.26 150.46 876.31 148.21 861.4 163.28 839.65 161.31 823.44 176.57 803.85 174.1 803.47 174.47 802.99 174.41 787.86 189.43 767.19 187.21 752.29 202.28 730.53 200.31 716.43 215.1 693.88 213.41 680.97 227.47 689.65 251.75 703.2 236.98 725.49 238.65 739.44 224.02 760.95 225.97 775.68 211.06 796.4 213.29 811.35 198.68 831.16 200.88 831.49 200.58 831.86 200.62 842.35 190.68 848.55 185.02 870.06 186.97 884.8 172.06 905.52 174.29 921.04 159.11 940.89 161.61 940.99 161.9" style="fill:#f79514"/></g></svg>