<?xml version="1.0" encoding="utf-8"?>
<!-- Generator: Adobe Illustrator 21.0.0, SVG Export Plug-In . SVG Version: 6.00 Build 0)  -->
<svg version="1.1" id="Layer_1" xmlns="http://www.w3.org/2000/svg" xmlns:xlink="http://www.w3.org/1999/xlink" x="0px" y="0px"
	 viewBox="0 0 94 94" style="enable-background:new 0 0 94 94;" xml:space="preserve">
<style type="text/css">
	.st0{fill:#F2F2F2;}
	.st1{fill:#FF6B06;}
	.st2{fill:#C1C1C1;}
	.st3{fill:#72A037;}
	.st4{fill:#DFF1FF;}
	.st5{fill:#C4E2E4;}
	.st6{fill:#8AC5CA;}
	.st7{fill:#6DB195;}
	.st8{fill:#F5F0F0;}
	.st9{fill:#B4B9C8;}
	.st10{fill:#F09B8C;}
	.st11{fill:#FAF0DC;}
	.st12{fill:#AA9191;}
	.st13{fill:#AAC3DC;}
	.st14{fill:#F0CDB4;}
	.st15{fill:#82A5CD;}
	.st16{fill:#FFFFFF;}
	.st17{fill:#968282;}
	.st18{fill:#EBE1C3;}
	.st19{fill:#73BE6E;}
	.st20{fill:#6EAA64;}
	.st21{fill:#558C73;}
	.st22{fill:#5A8E4F;}
	.st23{fill:#E24905;}
	.st24{fill:#FFA403;}
	.st25{fill:#54ACD3;}
	.st26{fill:#CECECE;}
	.st27{fill:#332C24;}
	.st28{fill:#E03815;}
	.st29{fill:#ECECE8;}
	.st30{fill:#A5A5A5;}
</style>
<g>
	<polygon class="st24" points="18.7,43.5 18.7,33.3 12.1,33.3 12.1,43.5 2.1,43.5 2.1,50.2 12.1,50.2 12.1,60.4 18.7,60.4 
		18.7,50.2 28.6,50.2 28.6,43.5 	"/>
	<path class="st24" d="M45.3,56.6c-4.6,0-13.7,2.7-13.7,7.9v4H59v-4C59,59.2,49.9,56.6,45.3,56.6z"/>
	<path class="st24" d="M45.3,25.5c-7.4,0-13.4,6-13.4,13.4s6,13.4,13.4,13.4s13.4-6,13.4-13.4S52.7,25.5,45.3,25.5z M45.3,49.6
		c-5.9,0-10.7-4.8-10.7-10.7c0-0.4,0-0.8,0.1-1.1c3.2-1.4,5.7-4,7-7.2c2.4,3.4,6.4,5.7,10.9,5.7c1,0,2-0.1,3-0.3
		c0.3,0.9,0.4,2,0.4,3C56,44.8,51.2,49.6,45.3,49.6z"/>
	<path class="st24" d="M76,56.6c-4.6,0-13.7,2.7-13.7,7.9v4h27.4v-4C89.7,59.2,80.6,56.6,76,56.6z"/>
	<path class="st24" d="M76,25.5c-7.4,0-13.4,6-13.4,13.4s6,13.4,13.4,13.4c7.4,0,13.4-6,13.4-13.4S83.4,25.5,76,25.5z M76,49.6
		c-5.9,0-10.7-4.8-10.7-10.7c0-0.4-0.1-1.7,0.4-3l4.8,0l2.8-2.7l3,2.7l3-2.7l2.3,2.7l4.7,0c0.3,0.9,0.4,2,0.4,3
		C86.7,44.8,81.9,49.6,76,49.6z"/>
	<g>
		<path class="st24" d="M87.7,43.6c-0.7,1.7-1.9,3.1-3.2,4.4c-0.7,0.7-1.5,1.4-2.3,1.9c0.6,2.1,2.5,3.6,4.8,3.6h5v-5
			C91.9,46.1,90,44,87.7,43.6z"/>
		<path class="st24" d="M63.7,43.8c-2,0.6-3.5,2.5-3.5,4.7v5h5c2,0,3.8-1.2,4.5-3C67.2,49.4,65.2,47.1,63.7,43.8z"/>
	</g>
</g>
</svg>
