<?xml version="1.0" encoding="utf-8"?>
<!-- Generator: Adobe Illustrator 21.0.0, SVG Export Plug-In . SVG Version: 6.00 Build 0)  -->
<svg version="1.1" id="Layer_1" xmlns="http://www.w3.org/2000/svg" xmlns:xlink="http://www.w3.org/1999/xlink" x="0px" y="0px"
	 viewBox="0 0 136.5 139.3" style="enable-background:new 0 0 136.5 139.3;" xml:space="preserve">
<style type="text/css">
	.st0{fill:#F2F2F2;}
	.st1{fill:#FF6B06;}
	.st2{fill:#C1C1C1;}
	.st3{fill:#72A037;}
	.st4{fill:#DFF1FF;}
	.st5{fill:#C4E2E4;}
	.st6{fill:#8AC5CA;}
	.st7{fill:#6DB195;}
	.st8{fill:#F5F0F0;}
	.st9{fill:#B4B9C8;}
	.st10{fill:#F09B8C;}
	.st11{fill:#FAF0DC;}
	.st12{fill:#AA9191;}
	.st13{fill:#AAC3DC;}
	.st14{fill:#F0CDB4;}
	.st15{fill:#82A5CD;}
	.st16{fill:#FFFFFF;}
	.st17{fill:#968282;}
	.st18{fill:#EBE1C3;}
	.st19{fill:#73BE6E;}
	.st20{fill:#6EAA64;}
	.st21{fill:#558C73;}
	.st22{fill:#5A8E4F;}
	.st23{fill:#E24905;}
	.st24{fill:#FFA403;}
	.st25{fill:#54ACD3;}
	.st26{fill:#CECECE;}
	.st27{fill:#332C24;}
	.st28{fill:#E03815;}
	.st29{fill:#ECECE8;}
</style>
<g>
	<g>
		<path class="st4" d="M68.2,1.6C31.6,1.6,1.9,31.3,1.9,67.9c0,34.5,26.3,62.8,59.9,66c0.2-0.3,0.5-0.6,0.7-0.9
			c1.7-1.8,3.8-3.8,6.4-4c3.5-0.4,6.5,1.7,8.3,4.6c32.3-4.4,57.3-32.1,57.3-65.7C134.6,31.3,104.9,1.6,68.2,1.6z"/>
		<path class="st5" d="M134.5,65.9c-0.2-6.2-1.2-12.2-3-17.9c-4.4-1.8-12.1-4.9-13.5-4.9c-2.1,0-12.4,6.2-14.5,6.2
			c-2.1,0-22.8-12.4-24.9-12.4S64.1,43.1,62,43.1s-6.2-4.1-10.4-4.1s-14.5,7.9-16.6,8.3c-2.8,0.5-10.4-4.1-14.5-4.1
			c-2.9,0-11.1,3.1-15.6,5c-1.8,5.7-2.8,11.6-3,17.8H134.5z"/>
		<path class="st6" d="M72.4,63.8c-2.1,0-20.7-8.3-22.8-8.3c-2.1,0-8.3,4.1-10.4,4.1c-2.1,0-12.4-6.2-16.6-6.2c-2.9,0-13.6,3-20,4.8
			c-0.5,3.2-0.7,6.4-0.7,9.7c0,1.4,0.1,2.8,0.1,4.1h132.3c0.1-1.4,0.1-2.8,0.1-4.1c0-1.8-0.1-3.6-0.2-5.4
			c-9.2-1.8-25.2-4.9-26.7-4.9C105.5,57.6,74.5,63.8,72.4,63.8z"/>
		<path class="st7" d="M131.2,88.7c2.1-6.5,3.3-13.5,3.3-20.7H1.9c0,7.2,1.2,14.2,3.3,20.7H131.2z"/>
		<g>
			<rect x="38.1" y="36.9" class="st8" width="1.2" height="14.6"/>
			<rect x="37.5" y="56.4" class="st8" width="2.4" height="21.9"/>
		</g>
		<g>
			<rect x="37.3" y="53.9" class="st9" width="3" height="2.9"/>
			<polygon class="st9" points="39.6,47.8 37.9,47.8 36.9,53.9 40.6,53.9 			"/>
		</g>
		<polygon class="st10" points="42.4,51.4 35.1,51.4 35.1,53.9 37.2,55.5 40.3,55.5 42.4,53.9 		"/>
		<rect x="91" y="65.9" class="st11" width="20.7" height="18.6"/>
		<path class="st9" d="M122.1,101.1h3.5c5.6-9.8,8.9-21.1,8.9-33.2h-12.4V101.1z"/>
		<rect x="31" y="72.1" class="st12" width="18.6" height="16.6"/>
		<rect x="24.7" y="70" class="st13" width="10.4" height="24.9"/>
		<rect x="12.3" y="70" class="st14" width="8.3" height="24.9"/>
		<rect x="37.2" y="74.2" class="st15" width="12.4" height="24.9"/>
		<rect x="60" y="65.9" class="st9" width="12.4" height="12.4"/>
		<rect x="47.5" y="57.6" class="st11" width="14.5" height="31.1"/>
		<rect x="41.3" y="84.5" class="st16" width="18.6" height="12.4"/>
		<rect x="60" y="74.2" class="st17" width="12.4" height="22.8"/>
		<path class="st12" d="M130.4,91v-19h-10.4v37.2C124.4,103.9,127.9,97.7,130.4,91z"/>
		<rect x="107.6" y="61.7" class="st15" width="16.6" height="37.3"/>
		<rect x="93.1" y="74.2" class="st12" width="10.4" height="31.1"/>
		<rect x="101.4" y="70" class="st18" width="14.5" height="31.1"/>
		<rect x="84.8" y="57.6" class="st9" width="10.4" height="43.5"/>
		<rect x="70.3" y="47.2" class="st15" width="16.6" height="55.9"/>
		<rect x="76.5" y="88.7" class="st16" width="18.6" height="12.4"/>
		<path class="st19" d="M8.6,96.9c9.9,20.3,29.8,34.7,53.2,37c0.2-0.3,0.5-0.6,0.7-0.9c1.7-1.8,3.8-3.8,6.4-4
			c3.5-0.4,6.5,1.7,8.3,4.6c22.3-3,41.1-17.2,50.6-36.7H8.6z"/>
		<path class="st20" d="M60.1,133.7c-10.2-7.4-9.7-12.9-4.3-16.4c6.9-4.4,20.2-3.5,26.9-10c5.2-5,21.5-6.2,42.9-6.2
			c0.8-1.4,1.5-2.7,2.2-4.1H8.6C18.2,116.7,37.4,130.9,60.1,133.7z"/>
		<rect x="64.1" y="86.6" class="st11" width="8.3" height="10.4"/>
		<rect x="31" y="84.5" class="st14" width="8.3" height="10.4"/>
		<rect x="18.5" y="76.2" class="st11" width="10.4" height="18.6"/>
		<path class="st9" d="M7.7,94.9h6.7V78.3H2.8C3.7,84.1,5.3,89.7,7.7,94.9z"/>
		<path class="st20" d="M70.6,129.5c0.9,1.6,2.3,3.1,3.9,4.4c0.7-0.1,1.4-0.1,2.1-0.2C75.2,131.5,73.1,129.8,70.6,129.5z"/>
		<g>
			<path class="st21" d="M56.2,103.2h23.1c0,0-1.3-6.5-11.6-6.5c0,0-5.2-4.4-11.1-2.5c0,0-2.2-1.8-7.1-0.4c0,0-5.7-1.7-10.5,1.2
				c0,0-2.7-2.6-6.2-1.4c0,0-5.6-1.3-8.7,1.2c0,0-3.2-3.2-10-2.5c0,0-3.7-2.5-8.4-2.2c1.6,4.6,3.8,9,6.4,13.1h8.1
				c-1,0.6-1.7,1.7-1.7,3h13.2c0-1.1-0.4-2.2-1-3h13.3c0,0,0,0,0,0.1c-1.3,0.1-2.4,0.7-3.2,1.6c-0.3-0.1-0.6-0.1-0.9-0.1
				c-2,0-3.6,1.6-3.6,3.6h13.2c0-1.1-0.4-2.2-1-3h8C56.6,104.5,56.5,103.8,56.2,103.2z"/>
			<path class="st21" d="M129.6,93.2c-9.5-2.5-18.4-0.3-18.4-0.3c-6.4-1-11.9,1.3-11.9,1.3c-10.9,0-12.4,3.4-12.4,3.4h40.6
				C128.2,96.2,128.9,94.7,129.6,93.2z"/>
		</g>
	</g>
	<g>
		<path class="st22" d="M46.2,133.9c1.3-3.7,2.4-7.3,3.8-11c1.2-3.3,2-6.6,1.7-10l-14.4-4.1l-13.6,23l20.9,6.8
			C45,137,45.6,135.5,46.2,133.9z"/>
		<path class="st19" d="M67.7,121.6l-10.3-8.8c0.1,0.1-3.4,1-3.3,1.1l-2.5,0.4l0.5,0c0.4,6-2.3,10.3-4.3,15.9
			c-0.7,2.1-1.4,4.1-2.2,6.2c-0.1,0.3-0.5,1.3-0.8,2.3l0.1,0l22.7-5.2V121.6z"/>
		<path class="st19" d="M85.3,120.8c1.2,2.4,2.8,4.6,3.9,7c1.1,2.5,1.8,5.2,2.6,7.9c0.3,1.1,0.7,2.1,1,3.2l20.1-6.4l-13.6-23.7
			l-15.5,4.3C84.1,115.7,84.1,118.3,85.3,120.8z"/>
		<path class="st22" d="M91.2,135.6c-0.8-2.8-1.5-5.6-2.8-8.3c-1.2-2.5-2.9-4.7-4-7.2c-0.9-2.2-0.9-3.1-1.1-5.4l-4.1-1.4
			c0,0-0.2-0.4-0.1-0.4l-10.7,8.8v11.8l0.2,0l23.2,5.8l0.6-0.2C91.9,137.9,91.5,136.8,91.2,135.6z"/>
		<path class="st23" d="M95.5,87.6c-2.3-0.2-4.7-0.4-7-0.7c-1.4-0.2-2.9-0.5-4.3,0.1c-1.1,0.5-1.7,1.5-2.2,2.5
			c-1.1,1.9-2.9,2.7-4.8,3.7c-4.1,2.1-8.3,3-12.9,2c-4-0.9-8.1-3.2-10.4-6.7c-0.3-0.4-0.5-1.1-0.8-1.4c-0.4-0.3-0.8-0.2-1.4-0.2
			c-1.3,0.1-2.6,0.1-4,0c-2.7-0.1-5.3-0.4-8-0.1c1.9,9,8.3,17.6,14.1,23.8c0.3,0.4,0.7,0.7,1,1.1l13.4,9.5l12-8.7
			c0.2-0.2,0.4-0.4,0.6-0.6c5.7-6.3,12.8-15.5,15.4-24.3C96,87.6,95.8,87.6,95.5,87.6z"/>
		<path class="st24" d="M102.2,50v-2.7c0-3-2.4-5.4-5.4-5.4H95c-0.2-5.1-4.5-9.2-9.6-9.2H51.1c-5.2,0-9.4,4.1-9.6,9.2h-1.9
			c-3,0-5.4,2.4-5.4,5.4V50c-1.7,0.6-2.9,2.2-2.9,4.1v9.2c0,2.4,1.9,4.3,4.3,4.3s4.3-1.9,4.3-4.3V54c0-1.9-1.2-3.5-2.9-4.1v-2.7
			c0-1.4,1.1-2.5,2.5-2.5h1.9v24.1c-1.4,0.9-2.3,2.4-2.3,4.2c0,0,0.1,8.6,0.1,8.7c0,1.6,0.2,3.1,0.5,4.7c4.4-0.5,8.9,0.6,13.3-0.1
			c0.1,0,0.2,0,0.3,0.1c1.8,3.8,5.5,6.4,9.4,7.7c3.8,1.3,8,1.3,11.8-0.2c1.7-0.7,3.4-1.6,5-2.6c1.6-1,2-2.6,3.2-4
			c1-1.1,2.3-1.3,3.7-1.3c1.7,0.1,3.3,0.3,5,0.5c1.5,0.2,3.2,0.5,4.9,0.6c0.6-2.1,0.9-4.1,0.9-6.1c0,0,0,0,0,0c0,0,0.1-8,0.1-8
			c0-1.8-0.9-3.3-2.3-4.2V44.8h1.8c1.4,0,2.5,1.1,2.5,2.5V50c-1.7,0.6-2.9,2.2-2.9,4.1v9.2c0,2.4,1.9,4.3,4.3,4.3
			c2.4,0,4.3-1.9,4.3-4.3V54C105.1,52.2,103.9,50.6,102.2,50z"/>
		<rect x="43.4" y="43.3" class="st25" width="49.7" height="25.9"/>
		<rect x="60.5" y="75.7" class="st26" width="15.3" height="7"/>
		<circle class="st23" cx="51.7" cy="77.8" r="2.6"/>
		<circle class="st23" cx="84.3" cy="77.8" r="2.6"/>
	</g>
	<g>
		<path class="st27" d="M102.2,50v-2.7c0-3-2.4-5.4-5.4-5.4H95c-0.2-5.1-4.5-9.2-9.6-9.2H51.1c-5.2,0-9.4,4.1-9.6,9.2h-1.9
			c-3,0-5.4,2.4-5.4,5.4V50c-1.7,0.6-2.9,2.2-2.9,4.1v9.2c0,2.4,1.9,4.3,4.3,4.3c2.4,0,4.3-1.9,4.3-4.3V54c0-1.9-1.2-3.5-2.9-4.1
			v-2.7c0-1.4,1.1-2.5,2.5-2.5h1.9v24.1c-1.4,0.9-2.3,2.4-2.3,4.2c0,0,0.1,8.6,0.1,8.7c0,18.9,24.2,38.1,24.6,38.4h-5.1
			c-0.8,0-1.5,0.6-1.5,1.5c0,0.8,0.6,1.5,1.5,1.5h18.5c0.8,0,1.5-0.6,1.5-1.5c0-0.8-0.6-1.5-1.5-1.5h-4.5
			c0.3-0.4,24.6-21.9,24.6-39.1c0,0,0,0,0,0c0,0,0.1-8,0.1-8c0-1.8-0.9-3.3-2.3-4.2V44.8h1.8c1.4,0,2.5,1.1,2.5,2.5V50
			c-1.7,0.6-2.9,2.2-2.9,4.1v9.2c0,2.4,1.9,4.3,4.3,4.3c2.4,0,4.3-1.9,4.3-4.3V54C105.1,52.2,103.9,50.6,102.2,50z M37.1,63.2
			c0,0.8-0.6,1.4-1.4,1.4c-0.8,0-1.4-0.6-1.4-1.4V54c0-0.8,0.6-1.4,1.4-1.4c0.8,0,1.4,0.6,1.4,1.4V63.2z M92.1,47.5L71.5,68.1h-1.8
			V44.8H83l-5.5,5.5c-0.6,0.6-0.6,1.5,0,2c0.3,0.3,0.6,0.4,1,0.4c0.4,0,0.7-0.1,1-0.4l7.6-7.6h5.1L92.1,47.5
			C92.2,47.5,92.1,47.5,92.1,47.5z M92.2,51.6v16.6H75.6L92.2,51.6z M51.1,35.6h34.3c3.6,0,6.5,2.8,6.8,6.3H44.4
			C44.6,38.4,47.5,35.6,51.1,35.6z M44.4,44.8h13.8L49,54c-0.6,0.6-0.6,1.5,0,2c0.3,0.3,0.6,0.4,1,0.4s0.7-0.1,1-0.4l11.2-11.2h4.6
			V48L46.7,68.1h-2.3V44.8z M66.8,52.1v16.1H50.7L66.8,52.1z M69.4,119.7c-0.3,0.3-0.7,0.5-1.1,0.5c-0.4,0-0.8-0.2-1.1-0.5
			c-0.6-0.7-19.9-16.9-23.3-31.8h8.1c3.4,5.6,9.6,9.1,16.2,9.1c6.6,0,12.8-3.5,16.2-9.1H93C89.3,102.1,70,119,69.4,119.7z
			 M94.4,81.1c0,1.2-0.2,2.5-0.5,3.9H80.5c-0.8,0-1.4,0.6-1.4,1.4c0,0.8,0.6,1.4,1.4,1.4h0.2c-3,3.9-7.7,6.2-12.6,6.2
			c-5,0-9.6-2.3-12.7-6.2c0.7-0.1,1.3-0.7,1.3-1.4c0-0.8-0.6-1.4-1.4-1.4H42.7c-0.4-1.4-0.6-4-0.6-4V73c0-1.1,0.9-2,2-2h48.4
			c1.1,0,2,0.9,2,2C94.5,73,94.4,80.7,94.4,81.1z M102.2,63.2c0,0.8-0.6,1.4-1.4,1.4c-0.8,0-1.4-0.6-1.4-1.4V54
			c0-0.8,0.6-1.4,1.4-1.4c0.8,0,1.4,0.6,1.4,1.4V63.2z"/>
		<path class="st27" d="M74.3,54.1c-0.4,0-0.8,0.2-1,0.4c-0.3,0.3-0.4,0.6-0.4,1c0,0.4,0.2,0.8,0.4,1c0.3,0.3,0.6,0.4,1,0.4
			s0.8-0.2,1-0.4c0.3-0.3,0.4-0.6,0.4-1c0-0.4-0.2-0.8-0.4-1C75.1,54.3,74.7,54.1,74.3,54.1z"/>
		<path class="st27" d="M68.3,87.9c-0.4,0-0.8,0.2-1,0.4s-0.4,0.6-0.4,1c0,0.4,0.2,0.8,0.4,1c0.3,0.3,0.6,0.4,1,0.4
			c0.4,0,0.8-0.2,1-0.4c0.3-0.3,0.4-0.6,0.4-1c0-0.4-0.2-0.8-0.4-1C69,88.1,68.6,87.9,68.3,87.9z"/>
		<path class="st27" d="M51.6,73.7c-2.4,0-4.3,1.9-4.3,4.3c0,2.4,1.9,4.3,4.3,4.3s4.3-1.9,4.3-4.3C55.9,75.6,53.9,73.7,51.6,73.7z
			 M51.6,79.4c-0.8,0-1.4-0.6-1.4-1.4s0.6-1.4,1.4-1.4c0.8,0,1.4,0.6,1.4,1.4S52.4,79.4,51.6,79.4z"/>
		<path class="st27" d="M85,73.7c-2.4,0-4.3,1.9-4.3,4.3c0,2.4,1.9,4.3,4.3,4.3c2.4,0,4.3-1.9,4.3-4.3C89.3,75.6,87.3,73.7,85,73.7z
			 M85,79.4c-0.8,0-1.4-0.6-1.4-1.4s0.6-1.4,1.4-1.4s1.4,0.6,1.4,1.4S85.8,79.4,85,79.4z"/>
		<path class="st27" d="M75.8,75.2h-15c-0.8,0-1.4,0.6-1.4,1.4v5.8c0,0.8,0.6,1.4,1.4,1.4h15c0.8,0,1.4-0.6,1.4-1.4v-5.8
			C77.2,75.8,76.6,75.2,75.8,75.2z M74.3,80.9H62.2V78h12.1V80.9z"/>
		<path class="st27" d="M70.8,37.5h-5c-0.8,0-1.4,0.6-1.4,1.4c0,0.8,0.6,1.4,1.4,1.4h5c0.8,0,1.4-0.6,1.4-1.4
			C72.2,38.1,71.6,37.5,70.8,37.5z"/>
		<path class="st27" d="M136.5,68.2c0-18.2-7.1-35.4-20-48.2S86.5,0,68.2,0S32.9,7.1,20,20S0,50,0,68.2c0,22,10.6,42.6,28.4,55.4
			l-4.8,8.2l21.4,7l23.4-5.4l23.2,5.8l21.2-6.7l-5-8.8C125.8,111,136.5,90.3,136.5,68.2z M28,130.2l10.6-17.9l12.5,3.6l-6.1,19.9
			L28,130.2z M92.7,135.9l-7.6-20.1l12.8-3.5l10.6,18.6L92.7,135.9z M105.9,120.4l-6.6-11.6l-15.8,4.3l-1.5-0.2l-2.3,2.3l3.1,1
			l7.4,19.8l-20.6-5.2v-5.9h-2.9v6l-19.3,4.4l5.9-19.4l2.7-0.8l-2.3-2.4l-1.7,0.5l-14.9-4.3l-6.8,11.5C13.8,108.2,3.9,88.9,3.9,68.2
			c0-17.2,6.7-33.3,18.8-45.5C34.9,10.6,51,3.9,68.2,3.9s33.3,6.7,45.5,18.8c12.2,12.2,18.8,28.3,18.8,45.5
			C132.6,88.9,122.6,108.3,105.9,120.4z"/>
	</g>
</g>
</svg>
