<?xml version="1.0" encoding="utf-8"?>
<!-- Generator: Adobe Illustrator 21.0.0, SVG Export Plug-In . SVG Version: 6.00 Build 0)  -->
<svg version="1.1" id="Layer_1" xmlns="http://www.w3.org/2000/svg" xmlns:xlink="http://www.w3.org/1999/xlink" x="0px" y="0px"
	 viewBox="0 0 318.1 324.6" style="enable-background:new 0 0 318.1 324.6;" xml:space="preserve">
<style type="text/css">
	.st0{fill:#F2F2F2;}
	.st1{fill:#FF6B06;}
	.st2{fill:#C1C1C1;}
	.st3{fill:#72A037;}
	.st4{fill:#DFF1FF;}
	.st5{fill:#C4E2E4;}
	.st6{fill:#8AC5CA;}
	.st7{fill:#6DB195;}
	.st8{fill:#F5F0F0;}
	.st9{fill:#B4B9C8;}
	.st10{fill:#F09B8C;}
	.st11{fill:#FAF0DC;}
	.st12{fill:#AA9191;}
	.st13{fill:#AAC3DC;}
	.st14{fill:#F0CDB4;}
	.st15{fill:#82A5CD;}
	.st16{fill:#FFFFFF;}
	.st17{fill:#968282;}
	.st18{fill:#EBE1C3;}
	.st19{fill:#73BE6E;}
	.st20{fill:#6EAA64;}
	.st21{fill:#558C73;}
	.st22{fill:#5A8E4F;}
	.st23{fill:#E24905;}
	.st24{fill:#FFA403;}
	.st25{fill:#54ACD3;}
	.st26{fill:#CECECE;}
	.st27{fill:#332C24;}
	.st28{fill:#E03815;}
	.st29{fill:#ECECE8;}
</style>
<g>
	<g>
		<path class="st4" d="M159.1,3.8C73.7,3.8,4.5,73,4.5,158.4c0,80.3,61.3,146.4,139.7,153.9c0.6-0.7,1.1-1.3,1.7-2
			c3.9-4.3,8.8-8.7,14.8-9.4c8.2-0.9,15.1,4,19.4,10.7c75.4-10.3,133.5-74.9,133.5-153.1C313.7,73,244.5,3.8,159.1,3.8z"/>
		<path class="st5" d="M313.6,153.5c-0.4-14.5-2.9-28.4-7-41.6c-10.2-4.2-28.1-11.5-31.5-11.5c-4.8,0-29,14.5-33.8,14.5
			c-4.8,0-53.1-29-58-29c-4.8,0-33.8,14.5-38.6,14.5c-4.8,0-14.5-9.7-24.2-9.7s-33.9,18.5-38.6,19.3c-6.6,1.2-24.2-9.7-33.8-9.7
			c-6.9,0-25.9,7.3-36.4,11.6c-4.1,13.2-6.6,27.1-7,41.6H313.6z"/>
		<path class="st6" d="M168.8,148.7c-4.8,0-48.3-19.3-53.1-19.3c-4.8,0-19.3,9.7-24.2,9.7c-4.8,0-29-14.5-38.6-14.5
			c-6.7,0-31.7,6.9-46.6,11.2c-1.1,7.4-1.7,14.9-1.7,22.6c0,3.2,0.1,6.5,0.3,9.7h308.5c0.2-3.2,0.3-6.4,0.3-9.7
			c0-4.3-0.2-8.5-0.6-12.6c-21.5-4.2-58.8-11.5-62.2-11.5C246,134.2,173.6,148.7,168.8,148.7z"/>
		<path class="st7" d="M305.9,206.7c5-15.2,7.7-31.4,7.7-48.3H4.5c0,16.9,2.7,33.1,7.7,48.3H305.9z"/>
		<g>
			<rect x="88.9" y="85.9" class="st8" width="2.8" height="34.1"/>
			<rect x="87.5" y="131.4" class="st8" width="5.7" height="51.1"/>
		</g>
		<g>
			<rect x="86.8" y="125.7" class="st9" width="7" height="6.9"/>
			<polygon class="st9" points="92.2,111.5 88.4,111.5 86.1,125.7 94.6,125.7 			"/>
		</g>
		<polygon class="st10" points="98.9,119.7 81.8,119.7 81.8,125.7 86.6,129.4 93.9,129.4 98.9,125.7 		"/>
		<rect x="212.2" y="153.5" class="st11" width="48.3" height="43.5"/>
		<path class="st9" d="M284.7,235.7h8.3c13.2-22.7,20.7-49.1,20.7-77.3h-29V235.7z"/>
		<rect x="72.2" y="168" class="st12" width="43.5" height="38.6"/>
		<rect x="57.7" y="163.2" class="st13" width="24.2" height="58"/>
		<rect x="28.7" y="163.2" class="st14" width="19.3" height="58"/>
		<rect x="86.6" y="172.9" class="st15" width="29" height="58"/>
		<rect x="139.8" y="153.5" class="st9" width="29" height="29"/>
		<rect x="110.8" y="134.2" class="st11" width="33.8" height="72.5"/>
		<rect x="96.3" y="197" class="st16" width="43.5" height="29"/>
		<rect x="139.8" y="172.9" class="st17" width="29" height="53.1"/>
		<path class="st12" d="M304,212.2V168h-24.2v86.8C290,242.1,298.2,227.8,304,212.2z"/>
		<rect x="250.9" y="143.9" class="st15" width="38.6" height="86.9"/>
		<rect x="217.1" y="172.9" class="st12" width="24.2" height="72.5"/>
		<rect x="236.4" y="163.2" class="st18" width="33.8" height="72.5"/>
		<rect x="197.7" y="134.2" class="st9" width="24.2" height="101.4"/>
		<rect x="163.9" y="110.1" class="st15" width="38.6" height="130.4"/>
		<rect x="178.4" y="206.7" class="st16" width="43.5" height="29"/>
		<path class="st19" d="M20.1,226c23,47.2,69.4,81,124.1,86.2c0.6-0.7,1.1-1.3,1.7-2c3.9-4.3,8.8-8.7,14.8-9.4
			c8.2-0.9,15.1,4,19.4,10.7c52-7.1,95.8-40.1,117.9-85.5H20.1z"/>
		<path class="st20" d="M140.2,311.7c-23.7-17.3-22.5-30.2-10-38.2c16-10.3,47.1-8.2,62.8-23.3c12.1-11.7,50.1-14.5,100-14.5
			c1.8-3.2,3.6-6.4,5.2-9.7h-278C42.5,272.1,87.2,305.2,140.2,311.7z"/>
		<rect x="149.4" y="201.8" class="st11" width="19.3" height="24.2"/>
		<rect x="72.2" y="197" class="st14" width="19.3" height="24.2"/>
		<rect x="43.2" y="177.7" class="st11" width="24.2" height="43.5"/>
		<path class="st9" d="M17.9,221.2h15.6v-38.6H6.4C8.5,196.1,12.5,209,17.9,221.2z"/>
		<path class="st20" d="M164.7,302c2.1,3.7,5.3,7.2,9.2,10.2c1.6-0.2,3.3-0.3,4.9-0.6C175.3,306.6,170.4,302.6,164.7,302z"/>
		<g>
			<path class="st21" d="M130.9,240.5h53.9c0,0-3.1-15.1-27-15.1c0,0-12.1-10.3-26-5.7c0,0-5.1-4.2-16.6-0.9c0,0-13.3-3.9-24.5,2.7
				c0,0-6.3-6-14.5-3.3c0,0-13-3-20.2,2.7c0,0-7.5-7.5-23.2-5.7c0,0-8.7-5.8-19.5-5.2c3.8,10.8,8.8,21,14.8,30.6h18.9
				c-2.4,1.5-3.9,4.1-3.9,7H74c0-2.6-0.9-5.1-2.4-7h31c0,0-0.1,0.1-0.1,0.1c-3,0.3-5.6,1.6-7.5,3.7c-0.6-0.2-1.3-0.3-2-0.3
				c-4.6,0-8.3,3.7-8.3,8.3h30.9c0-2.6-0.9-5.1-2.4-7H132C132,243.6,131.6,242,130.9,240.5z"/>
			<path class="st21" d="M302,217.3c-22.1-5.8-42.8-0.7-42.8-0.7c-14.9-2.4-27.8,3-27.8,3c-25.5,0-28.9,8-28.9,8h94.7
				C299,224.3,300.5,220.8,302,217.3z"/>
		</g>
	</g>
	<g>
		<path class="st22" d="M107.6,312.2c3-8.5,5.7-17.1,8.8-25.5c2.8-7.6,4.6-15.3,3.9-23.3l-33.6-9.7l-31.7,53.7l48.7,15.9
			C104.8,319.4,106.3,315.8,107.6,312.2z"/>
		<path class="st19" d="M157.9,283.6L134,263c0.3,0.3-7.9,2.4-7.7,2.6l-5.9,1l1.2,0c0.9,14.1-5.5,24-9.9,37.2
			c-1.6,4.8-3.3,9.6-5,14.4c-0.3,0.8-1.2,3-1.9,5.3l0.1,0l53-12.1V283.6z"/>
		<path class="st19" d="M198.8,281.7c2.8,5.6,6.5,10.6,9,16.4c2.6,5.9,4.1,12.2,6,18.4c0.7,2.5,1.5,5,2.4,7.4l46.9-14.9l-31.6-55.3
			l-36.2,9.9C196,269.8,196,275.9,198.8,281.7z"/>
		<path class="st22" d="M212.5,316.1c-2-6.6-3.6-13.1-6.5-19.3c-2.8-5.8-6.8-10.9-9.2-16.9c-2.1-5.2-2-7.2-2.7-12.7l-9.7-3.3
			c0.1-0.1-0.4-0.8-0.3-0.9l-25,20.5v27.6l0.4-0.1l54.1,13.6l1.4-0.5C214.2,321.5,213.3,318.8,212.5,316.1z"/>
		<path class="st23" d="M222.6,204.2c-5.4-0.4-10.9-1-16.3-1.6c-3.2-0.4-6.8-1.2-9.9,0.2c-2.6,1.1-3.9,3.5-5.2,5.9
			c-2.6,4.5-6.7,6.3-11.1,8.6c-9.5,5-19.4,7.1-30.1,4.6c-9.4-2.2-18.8-7.5-24.3-15.5c-0.6-0.8-1.2-2.6-1.9-3.2
			c-1-0.8-1.9-0.5-3.2-0.4c-3.1,0.2-6.1,0.1-9.2,0c-6.2-0.3-12.4-1-18.5-0.2c4.5,20.9,19.4,41,32.8,55.5c0.8,0.9,1.6,1.7,2.3,2.5
			l31.2,22.2l28-20.3c0.4-0.5,0.9-1,1.3-1.4c13.4-14.8,29.9-36,36-56.7C223.8,204.2,223.2,204.2,222.6,204.2z"/>
		<path class="st24" d="M238.3,116.5v-6.2c0-6.9-5.6-12.5-12.5-12.5h-4.3c-0.5-11.9-10.4-21.5-22.5-21.5h-79.9
			c-12.1,0-22,9.6-22.5,21.5h-4.3c-6.9,0-12.5,5.6-12.5,12.5v6.2c-3.9,1.4-6.7,5.1-6.7,9.5v21.5c0,5.6,4.5,10.1,10.1,10.1
			s10.1-4.5,10.1-10.1V126c0-4.4-2.8-8.1-6.7-9.5v-6.2c0-3.2,2.6-5.8,5.8-5.8h4.3v56.1c-3.2,2-5.4,5.6-5.4,9.7
			c0,0,0.1,20.1,0.2,20.3c0,3.6,0.4,7.3,1.1,10.9c10.3-1.3,20.7,1.4,31.1-0.2c0.3,0,0.5,0.1,0.7,0.3c4.2,8.9,12.8,14.9,21.9,17.9
			c9,3,18.7,3.1,27.6-0.4c3.9-1.6,8-3.7,11.6-5.9c3.8-2.4,4.6-6.1,7.5-9.3c2.3-2.5,5.5-3.1,8.7-3c3.9,0.2,7.8,0.7,11.6,1.1
			c3.5,0.4,7.5,1.1,11.5,1.3c1.3-4.8,2.1-9.6,2.1-14.2c0,0,0,0,0,0c0.1-0.1,0.2-18.7,0.2-18.7c0-4.1-2.2-7.7-5.4-9.7v-56.1h4.3
			c3.2,0,5.8,2.6,5.8,5.8v6.2c-3.9,1.4-6.7,5.1-6.7,9.5v21.5c0,5.6,4.5,10.1,10.1,10.1c5.6,0,10.1-4.5,10.1-10.1V126
			C245.1,121.6,242.3,117.8,238.3,116.5z"/>
		<rect x="101.1" y="101" class="st25" width="115.9" height="60.4"/>
		<rect x="141" y="176.5" class="st26" width="35.6" height="16.3"/>
		<circle class="st23" cx="120.5" cy="181.3" r="6"/>
		<circle class="st23" cx="196.5" cy="181.3" r="6"/>
	</g>
	<g>
		<path class="st27" d="M238.3,116.5v-6.2c0-6.9-5.6-12.5-12.5-12.5h-4.3c-0.5-11.9-10.4-21.5-22.5-21.5h-79.9
			c-12.1,0-22,9.6-22.5,21.5h-4.3c-6.9,0-12.5,5.6-12.5,12.5v6.2c-3.9,1.4-6.7,5.1-6.7,9.5v21.5c0,5.6,4.5,10.1,10.1,10.1
			c5.6,0,10.1-4.5,10.1-10.1V126c0-4.4-2.8-8.1-6.7-9.5v-6.2c0-3.2,2.6-5.8,5.8-5.8h4.3v56.1c-3.2,2-5.4,5.6-5.4,9.7
			c0,0,0.1,20.1,0.2,20.3c0,44.1,56.5,88.7,57.3,89.6h-11.9c-1.9,0-3.4,1.5-3.4,3.4c0,1.9,1.5,3.4,3.4,3.4H180
			c1.9,0,3.4-1.5,3.4-3.4c0-1.9-1.5-3.4-3.4-3.4h-10.5c0.7-0.9,57.3-51,57.3-91.1c0,0,0,0,0,0c0.1-0.1,0.2-18.7,0.2-18.7
			c0-4.1-2.2-7.7-5.4-9.7v-56.1h4.3c3.2,0,5.8,2.6,5.8,5.8v6.2c-3.9,1.4-6.7,5.1-6.7,9.5v21.5c0,5.6,4.5,10.1,10.1,10.1
			c5.6,0,10.1-4.5,10.1-10.1V126C245.1,121.6,242.3,117.8,238.3,116.5z M86.6,147.4c0,1.9-1.5,3.4-3.4,3.4c-1.9,0-3.4-1.5-3.4-3.4
			V126c0-1.9,1.5-3.4,3.4-3.4c1.9,0,3.4,1.5,3.4,3.4V147.4z M214.8,110.8l-48,48h-4.3v-54.4h31.1l-12.9,12.9c-1.3,1.3-1.3,3.4,0,4.7
			c0.7,0.7,1.5,1,2.4,1c0.9,0,1.7-0.3,2.4-1l17.6-17.6h11.8L214.8,110.8C214.8,110.8,214.8,110.8,214.8,110.8z M214.8,120.2v38.6
			h-38.6L214.8,120.2z M119.2,83h79.9c8.4,0,15.2,6.6,15.7,14.8H103.4C104,89.5,110.8,83,119.2,83z M103.4,104.5h32.2l-21.3,21.3
			c-1.3,1.3-1.3,3.4,0,4.7c0.7,0.7,1.5,1,2.4,1s1.7-0.3,2.4-1l26.1-26.1h10.7v7.4l-47,47h-5.3V104.5z M155.8,121.3v37.5h-37.5
			L155.8,121.3z M161.7,279c-0.7,0.7-1.6,1.2-2.6,1.2c-1,0-1.9-0.4-2.6-1.2c-1.4-1.7-46.5-39.5-54.4-74.1H121
			c8,13.2,22.3,21.3,37.8,21.3c15.5,0,29.8-8.1,37.8-21.3h20.2C208.2,238.1,163.1,277.3,161.7,279z M220,189c0,2.7-0.4,5.7-1.2,9.1
			h-31c-1.9,0-3.4,1.5-3.4,3.4c0,1.9,1.5,3.4,3.4,3.4h0.5c-7,9-17.9,14.4-29.5,14.4c-11.6,0-22.5-5.4-29.5-14.4c1.7-0.2,3-1.6,3-3.3
			c0-1.9-1.5-3.4-3.4-3.4H99.5c-0.8-3.4-1.3-9.3-1.4-9.4v-18.4c0-2.6,2.1-4.7,4.7-4.7h112.8c2.6,0,4.7,2.1,4.7,4.7
			C220.2,170.3,220,188.1,220,189z M238.3,147.4c0,1.9-1.5,3.4-3.4,3.4c-1.9,0-3.4-1.5-3.4-3.4V126c0-1.9,1.5-3.4,3.4-3.4
			c1.9,0,3.4,1.5,3.4,3.4V147.4z"/>
		<path class="st27" d="M173.3,126.2c-0.9,0-1.7,0.4-2.4,1c-0.6,0.6-1,1.5-1,2.4c0,0.9,0.4,1.7,1,2.4s1.5,1,2.4,1s1.7-0.4,2.4-1
			c0.6-0.6,1-1.5,1-2.4c0-0.9-0.4-1.7-1-2.4C175,126.5,174.1,126.2,173.3,126.2z"/>
		<path class="st27" d="M159.1,205c-0.9,0-1.7,0.4-2.4,1c-0.6,0.6-1,1.5-1,2.4c0,0.9,0.4,1.7,1,2.4c0.6,0.6,1.5,1,2.4,1
			s1.7-0.4,2.4-1c0.6-0.6,1-1.5,1-2.4c0-0.9-0.4-1.7-1-2.4C160.9,205.3,160,205,159.1,205z"/>
		<path class="st27" d="M120.2,171.8c-5.6,0-10.1,4.5-10.1,10.1c0,5.6,4.5,10.1,10.1,10.1c5.6,0,10.1-4.5,10.1-10.1
			C130.3,176.3,125.8,171.8,120.2,171.8z M120.2,185.2c-1.9,0-3.4-1.5-3.4-3.4c0-1.9,1.5-3.4,3.4-3.4c1.9,0,3.4,1.5,3.4,3.4
			C123.6,183.7,122.1,185.2,120.2,185.2z"/>
		<path class="st27" d="M198.1,171.8c-5.6,0-10.1,4.5-10.1,10.1c0,5.6,4.5,10.1,10.1,10.1s10.1-4.5,10.1-10.1
			C208.1,176.3,203.6,171.8,198.1,171.8z M198.1,185.2c-1.9,0-3.4-1.5-3.4-3.4c0-1.9,1.5-3.4,3.4-3.4c1.9,0,3.4,1.5,3.4,3.4
			C201.4,183.7,199.9,185.2,198.1,185.2z"/>
		<path class="st27" d="M176.6,175.2h-34.9c-1.9,0-3.4,1.5-3.4,3.4V192c0,1.9,1.5,3.4,3.4,3.4h34.9c1.9,0,3.4-1.5,3.4-3.4v-13.4
			C180,176.7,178.5,175.2,176.6,175.2z M173.3,188.6h-28.2v-6.7h28.2V188.6z"/>
		<path class="st27" d="M165,87.3h-11.8c-1.9,0-3.4,1.5-3.4,3.4c0,1.9,1.5,3.4,3.4,3.4H165c1.9,0,3.4-1.5,3.4-3.4
			C168.3,88.8,166.8,87.3,165,87.3z"/>
		<path class="st27" d="M318.1,159.1c0-42.5-16.5-82.4-46.6-112.5S201.5,0,159.1,0S76.6,16.5,46.6,46.6S0,116.6,0,159.1
			c0,51.4,24.7,99.3,66.3,129.2l-11.2,19l49.9,16.3l54.6-12.5l54.1,13.6l49.5-15.7l-11.7-20.4C293.2,258.7,318.1,210.5,318.1,159.1z
			 M65.3,303.4L90,261.7l29.2,8.4l-14.2,46.3L65.3,303.4z M216,316.7l-17.6-46.9l29.8-8.2l24.8,43.3L216,316.7z M246.9,280.6
			l-15.4-27l-36.8,10.1l-3.4-0.5l-5.4,5.3l7.3,2.2l17.3,46l-48-12.1v-13.8h-6.9v14l-44.9,10.3l13.8-45.3l6.3-2l-5.4-5.5l-3.9,1.2
			l-34.8-10l-15.9,26.8C32.1,252.2,9.1,207.2,9.1,159.1C9.1,119,24.7,81.3,53,53C81.3,24.7,119,9.1,159.1,9.1S236.8,24.7,265.1,53
			c28.3,28.3,43.9,66,43.9,106.1C309.1,207.2,285.9,252.4,246.9,280.6z"/>
	</g>
</g>
</svg>
