<?xml version="1.0" encoding="utf-8"?>
<!-- Generator: Adobe Illustrator 21.0.0, SVG Export Plug-In . SVG Version: 6.00 Build 0)  -->
<svg version="1.1" id="Layer_1" xmlns="http://www.w3.org/2000/svg" xmlns:xlink="http://www.w3.org/1999/xlink" x="0px" y="0px"
	 viewBox="0 0 75 75" style="enable-background:new 0 0 75 75;" xml:space="preserve">
<style type="text/css">
	.st0{fill:#F2F2F2;}
	.st1{fill:#FF6B06;}
	.st2{fill:#C1C1C1;}
	.st3{fill:#72A037;}
	.st4{fill:#DFF1FF;}
	.st5{fill:#C4E2E4;}
	.st6{fill:#8AC5CA;}
	.st7{fill:#6DB195;}
	.st8{fill:#F5F0F0;}
	.st9{fill:#B4B9C8;}
	.st10{fill:#F09B8C;}
	.st11{fill:#FAF0DC;}
	.st12{fill:#AA9191;}
	.st13{fill:#AAC3DC;}
	.st14{fill:#F0CDB4;}
	.st15{fill:#82A5CD;}
	.st16{fill:#FFFFFF;}
	.st17{fill:#968282;}
	.st18{fill:#EBE1C3;}
	.st19{fill:#73BE6E;}
	.st20{fill:#6EAA64;}
	.st21{fill:#558C73;}
	.st22{fill:#5A8E4F;}
	.st23{fill:#E24905;}
	.st24{fill:#FFA403;}
	.st25{fill:#54ACD3;}
	.st26{fill:#CECECE;}
	.st27{fill:#332C24;}
	.st28{fill:#E03815;}
	.st29{fill:#ECECE8;}
</style>
<path class="st1" d="M9.1,12V3.4h5.7V12h8.6v5.7h-8.6v8.6H9.1v-8.6H0.5V12H9.1z M17.7,29.2v-8.6h8.6V12h20.1l5.2,5.7h9.1
	c3.2,0,5.7,2.6,5.7,5.7v34.4c0,3.2-2.6,5.7-5.7,5.7H14.9c-3.2,0-5.7-2.6-5.7-5.7V29.2H17.7z M37.8,55c7.9,0,14.3-6.4,14.3-14.3
	s-6.4-14.3-14.3-14.3s-14.3,6.4-14.3,14.3S29.9,55,37.8,55z M28.6,40.7c0,5.1,4.1,9.2,9.2,9.2s9.2-4.1,9.2-9.2s-4.1-9.2-9.2-9.2
	S28.6,35.6,28.6,40.7z"/>
</svg>
