<?xml version="1.0" encoding="utf-8"?>
<!-- Generator: Adobe Illustrator 21.0.0, SVG Export Plug-In . SVG Version: 6.00 Build 0)  -->
<svg version="1.1" id="Layer_1" xmlns="http://www.w3.org/2000/svg" xmlns:xlink="http://www.w3.org/1999/xlink" x="0px" y="0px"
	 viewBox="0 0 75 75" style="enable-background:new 0 0 75 75;" xml:space="preserve">
<style type="text/css">
	.st0{fill:#F2F2F2;}
	.st1{fill:#FF6B06;}
	.st2{fill:#C1C1C1;}
	.st3{fill:#72A037;}
	.st4{fill:#DFF1FF;}
	.st5{fill:#C4E2E4;}
	.st6{fill:#8AC5CA;}
	.st7{fill:#6DB195;}
	.st8{fill:#F5F0F0;}
	.st9{fill:#B4B9C8;}
	.st10{fill:#F09B8C;}
	.st11{fill:#FAF0DC;}
	.st12{fill:#AA9191;}
	.st13{fill:#AAC3DC;}
	.st14{fill:#F0CDB4;}
	.st15{fill:#82A5CD;}
	.st16{fill:#FFFFFF;}
	.st17{fill:#968282;}
	.st18{fill:#EBE1C3;}
	.st19{fill:#73BE6E;}
	.st20{fill:#6EAA64;}
	.st21{fill:#558C73;}
	.st22{fill:#5A8E4F;}
	.st23{fill:#E24905;}
	.st24{fill:#FFA403;}
	.st25{fill:#54ACD3;}
	.st26{fill:#CECECE;}
	.st27{fill:#332C24;}
	.st28{fill:#E03815;}
	.st29{fill:#ECECE8;}
</style>
<path class="st2" d="M37.5,4C18.7,4,3.4,19,3.4,37.5C3.4,56,18.7,71,37.5,71c18.8,0,34.1-15,34.1-33.5C71.6,19,56.3,4,37.5,4z
	 M37.8,14c5.5,0,10,4.5,10,10c0,5.6-4.5,10-10,10s-10-4.5-10-10C27.7,18.5,32.3,14,37.8,14z M37.8,64.2c-8.4,0-15.8-4.3-20.1-10.8
	c0.1-6.6,13.4-10.3,20.1-10.3s20,3.7,20.1,10.3C53.6,60,46.2,64.2,37.8,64.2z"/>
</svg>
